<?xml version="1.0" encoding="utf-8" standalone="no"?>
<!DOCTYPE svg PUBLIC "-//W3C//DTD SVG 1.1//EN"
  "http://www.w3.org/Graphics/SVG/1.1/DTD/svg11.dtd">
<!-- Created with matplotlib (http://matplotlib.org/) -->
<svg height="648pt" version="1.1" viewBox="0 0 1152 648" width="1152pt" xmlns="http://www.w3.org/2000/svg" xmlns:xlink="http://www.w3.org/1999/xlink">
 <defs>
  <style type="text/css">
*{stroke-linecap:butt;stroke-linejoin:round;}
  </style>
 </defs>
 <g id="figure_1">
  <g id="patch_1">
   <path d="M 0 648 
L 1152 648 
L 1152 0 
L 0 0 
z
" style="fill:#ffffff;"/>
  </g>
  <g id="axes_1">
   <g id="patch_2">
    <path d="M 378.575812 567 
L 802.224188 567 
L 802.224188 77.76 
L 378.575812 77.76 
z
" style="fill:#ffffff;"/>
   </g>
   <g id="LineCollection_1">
    <path clip-path="url(#pe450e43e64)" d="M 462.045665 544.69623 
L 462.045665 470.59082 
" style="fill:none;stroke:#000000;stroke-width:7.410541;"/>
    <path clip-path="url(#pe450e43e64)" d="M 397.868498 211.221885 
L 462.045665 248.27459 
" style="fill:none;stroke:#000000;stroke-width:7.410541;"/>
    <path clip-path="url(#pe450e43e64)" d="M 397.868498 433.538115 
L 397.868498 359.432705 
" style="fill:none;stroke:#000000;stroke-width:7.410541;"/>
    <path clip-path="url(#pe450e43e64)" d="M 397.868498 433.538115 
L 462.045665 470.59082 
" style="fill:none;stroke:#000000;stroke-width:7.410541;"/>
    <path clip-path="url(#pe450e43e64)" d="M 526.222833 211.221885 
L 526.222833 137.116475 
" style="fill:none;stroke:#000000;stroke-width:7.410541;"/>
    <path clip-path="url(#pe450e43e64)" d="M 526.222833 211.221885 
L 462.045665 248.27459 
" style="fill:none;stroke:#000000;stroke-width:7.410541;"/>
    <path clip-path="url(#pe450e43e64)" d="M 526.222833 211.221885 
L 590.4 248.27459 
" style="fill:none;stroke:#000000;stroke-width:7.410541;"/>
    <path clip-path="url(#pe450e43e64)" d="M 590.4 322.38 
L 590.4 248.27459 
" style="fill:none;stroke:#000000;stroke-width:7.410541;"/>
    <path clip-path="url(#pe450e43e64)" d="M 590.4 322.38 
L 526.222833 359.432705 
" style="fill:none;stroke:#000000;stroke-width:7.410541;"/>
    <path clip-path="url(#pe450e43e64)" d="M 590.4 322.38 
L 654.577167 359.432705 
" style="fill:none;stroke:#000000;stroke-width:7.410541;"/>
    <path clip-path="url(#pe450e43e64)" d="M 590.4 100.06377 
L 526.222833 137.116475 
" style="fill:none;stroke:#000000;stroke-width:7.410541;"/>
    <path clip-path="url(#pe450e43e64)" d="M 590.4 100.06377 
L 654.577167 137.116475 
" style="fill:none;stroke:#000000;stroke-width:7.410541;"/>
    <path clip-path="url(#pe450e43e64)" d="M 462.045665 322.38 
L 462.045665 248.27459 
" style="fill:none;stroke:#000000;stroke-width:7.410541;"/>
    <path clip-path="url(#pe450e43e64)" d="M 462.045665 322.38 
L 397.868498 359.432705 
" style="fill:none;stroke:#000000;stroke-width:7.410541;"/>
    <path clip-path="url(#pe450e43e64)" d="M 462.045665 322.38 
L 526.222833 359.432705 
" style="fill:none;stroke:#000000;stroke-width:7.410541;"/>
    <path clip-path="url(#pe450e43e64)" d="M 462.045665 100.06377 
L 526.222833 137.116475 
" style="fill:none;stroke:#000000;stroke-width:7.410541;"/>
    <path clip-path="url(#pe450e43e64)" d="M 526.222833 433.538115 
L 526.222833 359.432705 
" style="fill:none;stroke:#000000;stroke-width:7.410541;"/>
    <path clip-path="url(#pe450e43e64)" d="M 526.222833 433.538115 
L 462.045665 470.59082 
" style="fill:none;stroke:#000000;stroke-width:7.410541;"/>
    <path clip-path="url(#pe450e43e64)" d="M 526.222833 433.538115 
L 590.4 470.59082 
" style="fill:none;stroke:#000000;stroke-width:7.410541;"/>
    <path clip-path="url(#pe450e43e64)" d="M 718.754335 322.38 
L 718.754335 248.27459 
" style="fill:none;stroke:#000000;stroke-width:7.410541;"/>
    <path clip-path="url(#pe450e43e64)" d="M 718.754335 322.38 
L 654.577167 359.432705 
" style="fill:none;stroke:#000000;stroke-width:7.410541;"/>
    <path clip-path="url(#pe450e43e64)" d="M 718.754335 322.38 
L 782.931502 359.432705 
" style="fill:none;stroke:#000000;stroke-width:7.410541;"/>
    <path clip-path="url(#pe450e43e64)" d="M 654.577167 211.221885 
L 654.577167 137.116475 
" style="fill:none;stroke:#000000;stroke-width:7.410541;"/>
    <path clip-path="url(#pe450e43e64)" d="M 654.577167 211.221885 
L 590.4 248.27459 
" style="fill:none;stroke:#000000;stroke-width:7.410541;"/>
    <path clip-path="url(#pe450e43e64)" d="M 654.577167 211.221885 
L 718.754335 248.27459 
" style="fill:none;stroke:#000000;stroke-width:7.410541;"/>
    <path clip-path="url(#pe450e43e64)" d="M 782.931502 211.221885 
L 718.754335 248.27459 
" style="fill:none;stroke:#000000;stroke-width:7.410541;"/>
    <path clip-path="url(#pe450e43e64)" d="M 654.577167 433.538115 
L 654.577167 359.432705 
" style="fill:none;stroke:#000000;stroke-width:7.410541;"/>
    <path clip-path="url(#pe450e43e64)" d="M 654.577167 433.538115 
L 590.4 470.59082 
" style="fill:none;stroke:#000000;stroke-width:7.410541;"/>
    <path clip-path="url(#pe450e43e64)" d="M 654.577167 433.538115 
L 718.754335 470.59082 
" style="fill:none;stroke:#000000;stroke-width:7.410541;"/>
    <path clip-path="url(#pe450e43e64)" d="M 718.754335 544.69623 
L 718.754335 470.59082 
" style="fill:none;stroke:#000000;stroke-width:7.410541;"/>
    <path clip-path="url(#pe450e43e64)" d="M 718.754335 100.06377 
L 654.577167 137.116475 
" style="fill:none;stroke:#000000;stroke-width:7.410541;"/>
    <path clip-path="url(#pe450e43e64)" d="M 782.931502 433.538115 
L 782.931502 359.432705 
" style="fill:none;stroke:#000000;stroke-width:7.410541;"/>
    <path clip-path="url(#pe450e43e64)" d="M 782.931502 433.538115 
L 718.754335 470.59082 
" style="fill:none;stroke:#000000;stroke-width:7.410541;"/>
    <path clip-path="url(#pe450e43e64)" d="M 590.4 544.69623 
L 590.4 470.59082 
" style="fill:none;stroke:#000000;stroke-width:7.410541;"/>
   </g>
   <g id="matplotlib.axis_1">
    <g id="xtick_1">
     <g id="line2d_1">
      <defs>
       <path d="M 0 0 
L 0 3.5 
" id="m6111648af4" style="stroke:#000000;stroke-width:0.8;"/>
      </defs>
      <g>
       <use style="stroke:#000000;stroke-width:0.8;" x="397.868498" xlink:href="#m6111648af4" y="567"/>
      </g>
     </g>
     <g id="text_1">
      <!-- −1.5 -->
      <defs>
       <path d="M 10.59375 35.5 
L 73.1875 35.5 
L 73.1875 27.203125 
L 10.59375 27.203125 
z
" id="DejaVuSans-2212"/>
       <path d="M 12.40625 8.296875 
L 28.515625 8.296875 
L 28.515625 63.921875 
L 10.984375 60.40625 
L 10.984375 69.390625 
L 28.421875 72.90625 
L 38.28125 72.90625 
L 38.28125 8.296875 
L 54.390625 8.296875 
L 54.390625 0 
L 12.40625 0 
z
" id="DejaVuSans-31"/>
       <path d="M 10.6875 12.40625 
L 21 12.40625 
L 21 0 
L 10.6875 0 
z
" id="DejaVuSans-2e"/>
       <path d="M 10.796875 72.90625 
L 49.515625 72.90625 
L 49.515625 64.59375 
L 19.828125 64.59375 
L 19.828125 46.734375 
Q 21.96875 47.46875 24.109375 47.828125 
Q 26.265625 48.1875 28.421875 48.1875 
Q 40.625 48.1875 47.75 41.5 
Q 54.890625 34.8125 54.890625 23.390625 
Q 54.890625 11.625 47.5625 5.09375 
Q 40.234375 -1.421875 26.90625 -1.421875 
Q 22.3125 -1.421875 17.546875 -0.640625 
Q 12.796875 0.140625 7.71875 1.703125 
L 7.71875 11.625 
Q 12.109375 9.234375 16.796875 8.0625 
Q 21.484375 6.890625 26.703125 6.890625 
Q 35.15625 6.890625 40.078125 11.328125 
Q 45.015625 15.765625 45.015625 23.390625 
Q 45.015625 31 40.078125 35.4375 
Q 35.15625 39.890625 26.703125 39.890625 
Q 22.75 39.890625 18.8125 39.015625 
Q 14.890625 38.140625 10.796875 36.28125 
z
" id="DejaVuSans-35"/>
      </defs>
      <g transform="translate(385.727091 581.598438)scale(0.1 -0.1)">
       <use xlink:href="#DejaVuSans-2212"/>
       <use x="83.789062" xlink:href="#DejaVuSans-31"/>
       <use x="147.412109" xlink:href="#DejaVuSans-2e"/>
       <use x="179.199219" xlink:href="#DejaVuSans-35"/>
      </g>
     </g>
    </g>
    <g id="xtick_2">
     <g id="line2d_2">
      <g>
       <use style="stroke:#000000;stroke-width:0.8;" x="462.045665" xlink:href="#m6111648af4" y="567"/>
      </g>
     </g>
     <g id="text_2">
      <!-- −1.0 -->
      <defs>
       <path d="M 31.78125 66.40625 
Q 24.171875 66.40625 20.328125 58.90625 
Q 16.5 51.421875 16.5 36.375 
Q 16.5 21.390625 20.328125 13.890625 
Q 24.171875 6.390625 31.78125 6.390625 
Q 39.453125 6.390625 43.28125 13.890625 
Q 47.125 21.390625 47.125 36.375 
Q 47.125 51.421875 43.28125 58.90625 
Q 39.453125 66.40625 31.78125 66.40625 
M 31.78125 74.21875 
Q 44.046875 74.21875 50.515625 64.515625 
Q 56.984375 54.828125 56.984375 36.375 
Q 56.984375 17.96875 50.515625 8.265625 
Q 44.046875 -1.421875 31.78125 -1.421875 
Q 19.53125 -1.421875 13.0625 8.265625 
Q 6.59375 17.96875 6.59375 36.375 
Q 6.59375 54.828125 13.0625 64.515625 
Q 19.53125 74.21875 31.78125 74.21875 
" id="DejaVuSans-30"/>
      </defs>
      <g transform="translate(449.904259 581.598438)scale(0.1 -0.1)">
       <use xlink:href="#DejaVuSans-2212"/>
       <use x="83.789062" xlink:href="#DejaVuSans-31"/>
       <use x="147.412109" xlink:href="#DejaVuSans-2e"/>
       <use x="179.199219" xlink:href="#DejaVuSans-30"/>
      </g>
     </g>
    </g>
    <g id="xtick_3">
     <g id="line2d_3">
      <g>
       <use style="stroke:#000000;stroke-width:0.8;" x="526.222833" xlink:href="#m6111648af4" y="567"/>
      </g>
     </g>
     <g id="text_3">
      <!-- −0.5 -->
      <g transform="translate(514.081426 581.598438)scale(0.1 -0.1)">
       <use xlink:href="#DejaVuSans-2212"/>
       <use x="83.789062" xlink:href="#DejaVuSans-30"/>
       <use x="147.412109" xlink:href="#DejaVuSans-2e"/>
       <use x="179.199219" xlink:href="#DejaVuSans-35"/>
      </g>
     </g>
    </g>
    <g id="xtick_4">
     <g id="line2d_4">
      <g>
       <use style="stroke:#000000;stroke-width:0.8;" x="590.4" xlink:href="#m6111648af4" y="567"/>
      </g>
     </g>
     <g id="text_4">
      <!-- 0.0 -->
      <g transform="translate(582.448438 581.598438)scale(0.1 -0.1)">
       <use xlink:href="#DejaVuSans-30"/>
       <use x="63.623047" xlink:href="#DejaVuSans-2e"/>
       <use x="95.410156" xlink:href="#DejaVuSans-30"/>
      </g>
     </g>
    </g>
    <g id="xtick_5">
     <g id="line2d_5">
      <g>
       <use style="stroke:#000000;stroke-width:0.8;" x="654.577167" xlink:href="#m6111648af4" y="567"/>
      </g>
     </g>
     <g id="text_5">
      <!-- 0.5 -->
      <g transform="translate(646.625605 581.598438)scale(0.1 -0.1)">
       <use xlink:href="#DejaVuSans-30"/>
       <use x="63.623047" xlink:href="#DejaVuSans-2e"/>
       <use x="95.410156" xlink:href="#DejaVuSans-35"/>
      </g>
     </g>
    </g>
    <g id="xtick_6">
     <g id="line2d_6">
      <g>
       <use style="stroke:#000000;stroke-width:0.8;" x="718.754335" xlink:href="#m6111648af4" y="567"/>
      </g>
     </g>
     <g id="text_6">
      <!-- 1.0 -->
      <g transform="translate(710.802772 581.598438)scale(0.1 -0.1)">
       <use xlink:href="#DejaVuSans-31"/>
       <use x="63.623047" xlink:href="#DejaVuSans-2e"/>
       <use x="95.410156" xlink:href="#DejaVuSans-30"/>
      </g>
     </g>
    </g>
    <g id="xtick_7">
     <g id="line2d_7">
      <g>
       <use style="stroke:#000000;stroke-width:0.8;" x="782.931502" xlink:href="#m6111648af4" y="567"/>
      </g>
     </g>
     <g id="text_7">
      <!-- 1.5 -->
      <g transform="translate(774.97994 581.598438)scale(0.1 -0.1)">
       <use xlink:href="#DejaVuSans-31"/>
       <use x="63.623047" xlink:href="#DejaVuSans-2e"/>
       <use x="95.410156" xlink:href="#DejaVuSans-35"/>
      </g>
     </g>
    </g>
   </g>
   <g id="matplotlib.axis_2">
    <g id="ytick_1">
     <g id="line2d_8">
      <defs>
       <path d="M 0 0 
L -3.5 0 
" id="m02d38f9b34" style="stroke:#000000;stroke-width:0.8;"/>
      </defs>
      <g>
       <use style="stroke:#000000;stroke-width:0.8;" x="378.575812" xlink:href="#m02d38f9b34" y="514.911502"/>
      </g>
     </g>
     <g id="text_8">
      <!-- −1.5 -->
      <g transform="translate(347.292999 518.710721)scale(0.1 -0.1)">
       <use xlink:href="#DejaVuSans-2212"/>
       <use x="83.789062" xlink:href="#DejaVuSans-31"/>
       <use x="147.412109" xlink:href="#DejaVuSans-2e"/>
       <use x="179.199219" xlink:href="#DejaVuSans-35"/>
      </g>
     </g>
    </g>
    <g id="ytick_2">
     <g id="line2d_9">
      <g>
       <use style="stroke:#000000;stroke-width:0.8;" x="378.575812" xlink:href="#m02d38f9b34" y="450.734335"/>
      </g>
     </g>
     <g id="text_9">
      <!-- −1.0 -->
      <g transform="translate(347.292999 454.533554)scale(0.1 -0.1)">
       <use xlink:href="#DejaVuSans-2212"/>
       <use x="83.789062" xlink:href="#DejaVuSans-31"/>
       <use x="147.412109" xlink:href="#DejaVuSans-2e"/>
       <use x="179.199219" xlink:href="#DejaVuSans-30"/>
      </g>
     </g>
    </g>
    <g id="ytick_3">
     <g id="line2d_10">
      <g>
       <use style="stroke:#000000;stroke-width:0.8;" x="378.575812" xlink:href="#m02d38f9b34" y="386.557167"/>
      </g>
     </g>
     <g id="text_10">
      <!-- −0.5 -->
      <g transform="translate(347.292999 390.356386)scale(0.1 -0.1)">
       <use xlink:href="#DejaVuSans-2212"/>
       <use x="83.789062" xlink:href="#DejaVuSans-30"/>
       <use x="147.412109" xlink:href="#DejaVuSans-2e"/>
       <use x="179.199219" xlink:href="#DejaVuSans-35"/>
      </g>
     </g>
    </g>
    <g id="ytick_4">
     <g id="line2d_11">
      <g>
       <use style="stroke:#000000;stroke-width:0.8;" x="378.575812" xlink:href="#m02d38f9b34" y="322.38"/>
      </g>
     </g>
     <g id="text_11">
      <!-- 0.0 -->
      <g transform="translate(355.672687 326.179219)scale(0.1 -0.1)">
       <use xlink:href="#DejaVuSans-30"/>
       <use x="63.623047" xlink:href="#DejaVuSans-2e"/>
       <use x="95.410156" xlink:href="#DejaVuSans-30"/>
      </g>
     </g>
    </g>
    <g id="ytick_5">
     <g id="line2d_12">
      <g>
       <use style="stroke:#000000;stroke-width:0.8;" x="378.575812" xlink:href="#m02d38f9b34" y="258.202833"/>
      </g>
     </g>
     <g id="text_12">
      <!-- 0.5 -->
      <g transform="translate(355.672687 262.002051)scale(0.1 -0.1)">
       <use xlink:href="#DejaVuSans-30"/>
       <use x="63.623047" xlink:href="#DejaVuSans-2e"/>
       <use x="95.410156" xlink:href="#DejaVuSans-35"/>
      </g>
     </g>
    </g>
    <g id="ytick_6">
     <g id="line2d_13">
      <g>
       <use style="stroke:#000000;stroke-width:0.8;" x="378.575812" xlink:href="#m02d38f9b34" y="194.025665"/>
      </g>
     </g>
     <g id="text_13">
      <!-- 1.0 -->
      <g transform="translate(355.672687 197.824884)scale(0.1 -0.1)">
       <use xlink:href="#DejaVuSans-31"/>
       <use x="63.623047" xlink:href="#DejaVuSans-2e"/>
       <use x="95.410156" xlink:href="#DejaVuSans-30"/>
      </g>
     </g>
    </g>
    <g id="ytick_7">
     <g id="line2d_14">
      <g>
       <use style="stroke:#000000;stroke-width:0.8;" x="378.575812" xlink:href="#m02d38f9b34" y="129.848498"/>
      </g>
     </g>
     <g id="text_14">
      <!-- 1.5 -->
      <g transform="translate(355.672687 133.647716)scale(0.1 -0.1)">
       <use xlink:href="#DejaVuSans-31"/>
       <use x="63.623047" xlink:href="#DejaVuSans-2e"/>
       <use x="95.410156" xlink:href="#DejaVuSans-35"/>
      </g>
     </g>
    </g>
   </g>
   <g id="PathCollection_1">
    <defs>
     <path d="M 0 18.526352 
C 4.913246 18.526352 9.62592 16.574299 13.100109 13.100109 
C 16.574299 9.62592 18.526352 4.913246 18.526352 0 
C 18.526352 -4.913246 16.574299 -9.62592 13.100109 -13.100109 
C 9.62592 -16.574299 4.913246 -18.526352 0 -18.526352 
C -4.913246 -18.526352 -9.62592 -16.574299 -13.100109 -13.100109 
C -16.574299 -9.62592 -18.526352 -4.913246 -18.526352 0 
C -18.526352 4.913246 -16.574299 9.62592 -13.100109 13.100109 
C -9.62592 16.574299 -4.913246 18.526352 0 18.526352 
z
" id="C0_0_eb8fde3e09"/>
    </defs>
    <g clip-path="url(#pe450e43e64)">
     <use style="fill:#33638d;" x="462.045665" xlink:href="#C0_0_eb8fde3e09" y="248.27459"/>
    </g>
    <g clip-path="url(#pe450e43e64)">
     <use style="fill:#33638d;" x="590.4" xlink:href="#C0_0_eb8fde3e09" y="470.59082"/>
    </g>
    <g clip-path="url(#pe450e43e64)">
     <use style="fill:#33638d;" x="718.754335" xlink:href="#C0_0_eb8fde3e09" y="470.59082"/>
    </g>
    <g clip-path="url(#pe450e43e64)">
     <use style="fill:#440154;" x="462.045665" xlink:href="#C0_0_eb8fde3e09" y="544.69623"/>
    </g>
    <g clip-path="url(#pe450e43e64)">
     <use style="fill:#33638d;" x="654.577167" xlink:href="#C0_0_eb8fde3e09" y="359.432705"/>
    </g>
    <g clip-path="url(#pe450e43e64)">
     <use style="fill:#440154;" x="397.868498" xlink:href="#C0_0_eb8fde3e09" y="211.221885"/>
    </g>
    <g clip-path="url(#pe450e43e64)">
     <use style="fill:#440154;" x="397.868498" xlink:href="#C0_0_eb8fde3e09" y="433.538115"/>
    </g>
    <g clip-path="url(#pe450e43e64)">
     <use style="fill:#440154;" x="526.222833" xlink:href="#C0_0_eb8fde3e09" y="211.221885"/>
    </g>
    <g clip-path="url(#pe450e43e64)">
     <use style="fill:#440154;" x="590.4" xlink:href="#C0_0_eb8fde3e09" y="322.38"/>
    </g>
    <g clip-path="url(#pe450e43e64)">
     <use style="fill:#440154;" x="590.4" xlink:href="#C0_0_eb8fde3e09" y="100.06377"/>
    </g>
    <g clip-path="url(#pe450e43e64)">
     <use style="fill:#440154;" x="462.045665" xlink:href="#C0_0_eb8fde3e09" y="322.38"/>
    </g>
    <g clip-path="url(#pe450e43e64)">
     <use style="fill:#440154;" x="462.045665" xlink:href="#C0_0_eb8fde3e09" y="100.06377"/>
    </g>
    <g clip-path="url(#pe450e43e64)">
     <use style="fill:#33638d;" x="397.868498" xlink:href="#C0_0_eb8fde3e09" y="359.432705"/>
    </g>
    <g clip-path="url(#pe450e43e64)">
     <use style="fill:#440154;" x="526.222833" xlink:href="#C0_0_eb8fde3e09" y="433.538115"/>
    </g>
    <g clip-path="url(#pe450e43e64)">
     <use style="fill:#440154;" x="718.754335" xlink:href="#C0_0_eb8fde3e09" y="322.38"/>
    </g>
    <g clip-path="url(#pe450e43e64)">
     <use style="fill:#440154;" x="654.577167" xlink:href="#C0_0_eb8fde3e09" y="211.221885"/>
    </g>
    <g clip-path="url(#pe450e43e64)">
     <use style="fill:#440154;" x="782.931502" xlink:href="#C0_0_eb8fde3e09" y="211.221885"/>
    </g>
    <g clip-path="url(#pe450e43e64)">
     <use style="fill:#33638d;" x="526.222833" xlink:href="#C0_0_eb8fde3e09" y="359.432705"/>
    </g>
    <g clip-path="url(#pe450e43e64)">
     <use style="fill:#440154;" x="654.577167" xlink:href="#C0_0_eb8fde3e09" y="433.538115"/>
    </g>
    <g clip-path="url(#pe450e43e64)">
     <use style="fill:#440154;" x="718.754335" xlink:href="#C0_0_eb8fde3e09" y="544.69623"/>
    </g>
    <g clip-path="url(#pe450e43e64)">
     <use style="fill:#440154;" x="718.754335" xlink:href="#C0_0_eb8fde3e09" y="100.06377"/>
    </g>
    <g clip-path="url(#pe450e43e64)">
     <use style="fill:#33638d;" x="590.4" xlink:href="#C0_0_eb8fde3e09" y="248.27459"/>
    </g>
    <g clip-path="url(#pe450e43e64)">
     <use style="fill:#33638d;" x="526.222833" xlink:href="#C0_0_eb8fde3e09" y="137.116475"/>
    </g>
    <g clip-path="url(#pe450e43e64)">
     <use style="fill:#33638d;" x="654.577167" xlink:href="#C0_0_eb8fde3e09" y="137.116475"/>
    </g>
    <g clip-path="url(#pe450e43e64)">
     <use style="fill:#33638d;" x="782.931502" xlink:href="#C0_0_eb8fde3e09" y="359.432705"/>
    </g>
    <g clip-path="url(#pe450e43e64)">
     <use style="fill:#33638d;" x="718.754335" xlink:href="#C0_0_eb8fde3e09" y="248.27459"/>
    </g>
    <g clip-path="url(#pe450e43e64)">
     <use style="fill:#440154;" x="782.931502" xlink:href="#C0_0_eb8fde3e09" y="433.538115"/>
    </g>
    <g clip-path="url(#pe450e43e64)">
     <use style="fill:#33638d;" x="462.045665" xlink:href="#C0_0_eb8fde3e09" y="470.59082"/>
    </g>
    <g clip-path="url(#pe450e43e64)">
     <use style="fill:#440154;" x="590.4" xlink:href="#C0_0_eb8fde3e09" y="544.69623"/>
    </g>
   </g>
   <g id="patch_3">
    <path d="M 378.575812 567 
L 378.575812 77.76 
" style="fill:none;stroke:#000000;stroke-linecap:square;stroke-linejoin:miter;stroke-width:0.8;"/>
   </g>
   <g id="patch_4">
    <path d="M 802.224188 567 
L 802.224188 77.76 
" style="fill:none;stroke:#000000;stroke-linecap:square;stroke-linejoin:miter;stroke-width:0.8;"/>
   </g>
   <g id="patch_5">
    <path d="M 378.575812 567 
L 802.224188 567 
" style="fill:none;stroke:#000000;stroke-linecap:square;stroke-linejoin:miter;stroke-width:0.8;"/>
   </g>
   <g id="patch_6">
    <path d="M 378.575812 77.76 
L 802.224188 77.76 
" style="fill:none;stroke:#000000;stroke-linecap:square;stroke-linejoin:miter;stroke-width:0.8;"/>
   </g>
  </g>
 </g>
 <defs>
  <clipPath id="pe450e43e64">
   <rect height="489.24" width="423.648377" x="378.575812" y="77.76"/>
  </clipPath>
 </defs>
</svg>
