<?xml version="1.0" encoding="utf-8" standalone="no"?>
<!DOCTYPE svg PUBLIC "-//W3C//DTD SVG 1.1//EN"
  "http://www.w3.org/Graphics/SVG/1.1/DTD/svg11.dtd">
<!-- Created with matplotlib (http://matplotlib.org/) -->
<svg height="288pt" version="1.1" viewBox="0 0 576 288" width="576pt" xmlns="http://www.w3.org/2000/svg" xmlns:xlink="http://www.w3.org/1999/xlink">
 <defs>
  <style type="text/css">
*{stroke-linecap:butt;stroke-linejoin:round;}
  </style>
 </defs>
 <g id="figure_1">
  <g id="patch_1">
   <path d="M 0 288 
L 576 288 
L 576 0 
L 0 0 
z
" style="fill:#ffffff;"/>
  </g>
  <g id="axes_1">
   <g id="patch_2">
    <path d="M 72 252 
L 518.4 252 
L 518.4 34.56 
L 72 34.56 
z
" style="fill:#ffffff;"/>
   </g>
   <g id="matplotlib.axis_1">
    <g id="xtick_1">
     <g id="line2d_1">
      <defs>
       <path d="M 0 0 
L 0 3.5 
" id="m47828b86d3" style="stroke:#000000;stroke-width:0.8;"/>
      </defs>
      <g>
       <use style="stroke:#000000;stroke-width:0.8;" x="92.290909" xlink:href="#m47828b86d3" y="252"/>
      </g>
     </g>
     <g id="text_1">
      <!-- 0 -->
      <defs>
       <path d="M 31.78125 66.40625 
Q 24.171875 66.40625 20.328125 58.90625 
Q 16.5 51.421875 16.5 36.375 
Q 16.5 21.390625 20.328125 13.890625 
Q 24.171875 6.390625 31.78125 6.390625 
Q 39.453125 6.390625 43.28125 13.890625 
Q 47.125 21.390625 47.125 36.375 
Q 47.125 51.421875 43.28125 58.90625 
Q 39.453125 66.40625 31.78125 66.40625 
M 31.78125 74.21875 
Q 44.046875 74.21875 50.515625 64.515625 
Q 56.984375 54.828125 56.984375 36.375 
Q 56.984375 17.96875 50.515625 8.265625 
Q 44.046875 -1.421875 31.78125 -1.421875 
Q 19.53125 -1.421875 13.0625 8.265625 
Q 6.59375 17.96875 6.59375 36.375 
Q 6.59375 54.828125 13.0625 64.515625 
Q 19.53125 74.21875 31.78125 74.21875 
" id="DejaVuSans-30"/>
      </defs>
      <g transform="translate(89.109659 266.598437)scale(0.1 -0.1)">
       <use xlink:href="#DejaVuSans-30"/>
      </g>
     </g>
    </g>
    <g id="xtick_2">
     <g id="line2d_2">
      <g>
       <use style="stroke:#000000;stroke-width:0.8;" x="174.27438" xlink:href="#m47828b86d3" y="252"/>
      </g>
     </g>
     <g id="text_2">
      <!-- 20 -->
      <defs>
       <path d="M 19.1875 8.296875 
L 53.609375 8.296875 
L 53.609375 0 
L 7.328125 0 
L 7.328125 8.296875 
Q 12.9375 14.109375 22.625 23.890625 
Q 32.328125 33.6875 34.8125 36.53125 
Q 39.546875 41.84375 41.421875 45.53125 
Q 43.3125 49.21875 43.3125 52.78125 
Q 43.3125 58.59375 39.234375 62.25 
Q 35.15625 65.921875 28.609375 65.921875 
Q 23.96875 65.921875 18.8125 64.3125 
Q 13.671875 62.703125 7.8125 59.421875 
L 7.8125 69.390625 
Q 13.765625 71.78125 18.9375 73 
Q 24.125 74.21875 28.421875 74.21875 
Q 39.75 74.21875 46.484375 68.546875 
Q 53.21875 62.890625 53.21875 53.421875 
Q 53.21875 48.921875 51.53125 44.890625 
Q 49.859375 40.875 45.40625 35.40625 
Q 44.1875 33.984375 37.640625 27.21875 
Q 31.109375 20.453125 19.1875 8.296875 
" id="DejaVuSans-32"/>
      </defs>
      <g transform="translate(167.91188 266.598437)scale(0.1 -0.1)">
       <use xlink:href="#DejaVuSans-32"/>
       <use x="63.623047" xlink:href="#DejaVuSans-30"/>
      </g>
     </g>
    </g>
    <g id="xtick_3">
     <g id="line2d_3">
      <g>
       <use style="stroke:#000000;stroke-width:0.8;" x="256.257851" xlink:href="#m47828b86d3" y="252"/>
      </g>
     </g>
     <g id="text_3">
      <!-- 40 -->
      <defs>
       <path d="M 37.796875 64.3125 
L 12.890625 25.390625 
L 37.796875 25.390625 
z
M 35.203125 72.90625 
L 47.609375 72.90625 
L 47.609375 25.390625 
L 58.015625 25.390625 
L 58.015625 17.1875 
L 47.609375 17.1875 
L 47.609375 0 
L 37.796875 0 
L 37.796875 17.1875 
L 4.890625 17.1875 
L 4.890625 26.703125 
z
" id="DejaVuSans-34"/>
      </defs>
      <g transform="translate(249.895351 266.598437)scale(0.1 -0.1)">
       <use xlink:href="#DejaVuSans-34"/>
       <use x="63.623047" xlink:href="#DejaVuSans-30"/>
      </g>
     </g>
    </g>
    <g id="xtick_4">
     <g id="line2d_4">
      <g>
       <use style="stroke:#000000;stroke-width:0.8;" x="338.241322" xlink:href="#m47828b86d3" y="252"/>
      </g>
     </g>
     <g id="text_4">
      <!-- 60 -->
      <defs>
       <path d="M 33.015625 40.375 
Q 26.375 40.375 22.484375 35.828125 
Q 18.609375 31.296875 18.609375 23.390625 
Q 18.609375 15.53125 22.484375 10.953125 
Q 26.375 6.390625 33.015625 6.390625 
Q 39.65625 6.390625 43.53125 10.953125 
Q 47.40625 15.53125 47.40625 23.390625 
Q 47.40625 31.296875 43.53125 35.828125 
Q 39.65625 40.375 33.015625 40.375 
M 52.59375 71.296875 
L 52.59375 62.3125 
Q 48.875 64.0625 45.09375 64.984375 
Q 41.3125 65.921875 37.59375 65.921875 
Q 27.828125 65.921875 22.671875 59.328125 
Q 17.53125 52.734375 16.796875 39.40625 
Q 19.671875 43.65625 24.015625 45.921875 
Q 28.375 48.1875 33.59375 48.1875 
Q 44.578125 48.1875 50.953125 41.515625 
Q 57.328125 34.859375 57.328125 23.390625 
Q 57.328125 12.15625 50.6875 5.359375 
Q 44.046875 -1.421875 33.015625 -1.421875 
Q 20.359375 -1.421875 13.671875 8.265625 
Q 6.984375 17.96875 6.984375 36.375 
Q 6.984375 53.65625 15.1875 63.9375 
Q 23.390625 74.21875 37.203125 74.21875 
Q 40.921875 74.21875 44.703125 73.484375 
Q 48.484375 72.75 52.59375 71.296875 
" id="DejaVuSans-36"/>
      </defs>
      <g transform="translate(331.878822 266.598437)scale(0.1 -0.1)">
       <use xlink:href="#DejaVuSans-36"/>
       <use x="63.623047" xlink:href="#DejaVuSans-30"/>
      </g>
     </g>
    </g>
    <g id="xtick_5">
     <g id="line2d_5">
      <g>
       <use style="stroke:#000000;stroke-width:0.8;" x="420.224793" xlink:href="#m47828b86d3" y="252"/>
      </g>
     </g>
     <g id="text_5">
      <!-- 80 -->
      <defs>
       <path d="M 31.78125 34.625 
Q 24.75 34.625 20.71875 30.859375 
Q 16.703125 27.09375 16.703125 20.515625 
Q 16.703125 13.921875 20.71875 10.15625 
Q 24.75 6.390625 31.78125 6.390625 
Q 38.8125 6.390625 42.859375 10.171875 
Q 46.921875 13.96875 46.921875 20.515625 
Q 46.921875 27.09375 42.890625 30.859375 
Q 38.875 34.625 31.78125 34.625 
M 21.921875 38.8125 
Q 15.578125 40.375 12.03125 44.71875 
Q 8.5 49.078125 8.5 55.328125 
Q 8.5 64.0625 14.71875 69.140625 
Q 20.953125 74.21875 31.78125 74.21875 
Q 42.671875 74.21875 48.875 69.140625 
Q 55.078125 64.0625 55.078125 55.328125 
Q 55.078125 49.078125 51.53125 44.71875 
Q 48 40.375 41.703125 38.8125 
Q 48.828125 37.15625 52.796875 32.3125 
Q 56.78125 27.484375 56.78125 20.515625 
Q 56.78125 9.90625 50.3125 4.234375 
Q 43.84375 -1.421875 31.78125 -1.421875 
Q 19.734375 -1.421875 13.25 4.234375 
Q 6.78125 9.90625 6.78125 20.515625 
Q 6.78125 27.484375 10.78125 32.3125 
Q 14.796875 37.15625 21.921875 38.8125 
M 18.3125 54.390625 
Q 18.3125 48.734375 21.84375 45.5625 
Q 25.390625 42.390625 31.78125 42.390625 
Q 38.140625 42.390625 41.71875 45.5625 
Q 45.3125 48.734375 45.3125 54.390625 
Q 45.3125 60.0625 41.71875 63.234375 
Q 38.140625 66.40625 31.78125 66.40625 
Q 25.390625 66.40625 21.84375 63.234375 
Q 18.3125 60.0625 18.3125 54.390625 
" id="DejaVuSans-38"/>
      </defs>
      <g transform="translate(413.862293 266.598437)scale(0.1 -0.1)">
       <use xlink:href="#DejaVuSans-38"/>
       <use x="63.623047" xlink:href="#DejaVuSans-30"/>
      </g>
     </g>
    </g>
    <g id="xtick_6">
     <g id="line2d_6">
      <g>
       <use style="stroke:#000000;stroke-width:0.8;" x="502.208264" xlink:href="#m47828b86d3" y="252"/>
      </g>
     </g>
     <g id="text_6">
      <!-- 100 -->
      <defs>
       <path d="M 12.40625 8.296875 
L 28.515625 8.296875 
L 28.515625 63.921875 
L 10.984375 60.40625 
L 10.984375 69.390625 
L 28.421875 72.90625 
L 38.28125 72.90625 
L 38.28125 8.296875 
L 54.390625 8.296875 
L 54.390625 0 
L 12.40625 0 
z
" id="DejaVuSans-31"/>
      </defs>
      <g transform="translate(492.664514 266.598437)scale(0.1 -0.1)">
       <use xlink:href="#DejaVuSans-31"/>
       <use x="63.623047" xlink:href="#DejaVuSans-30"/>
       <use x="127.246094" xlink:href="#DejaVuSans-30"/>
      </g>
     </g>
    </g>
    <g id="text_7">
     <!-- $\varphi_{{SG}}$ -->
     <defs>
      <path d="M 46.390625 47.40625 
Q 43.21875 47.40625 41.796875 40.328125 
L 35.296875 6.84375 
Q 39.890625 6.84375 45.5625 11.921875 
Q 50.6875 16.453125 52.734375 27.34375 
Q 54.640625 37.5 51.5625 42.96875 
Q 49.03125 47.40625 46.390625 47.40625 
M 47.859375 55.078125 
Q 54.890625 55.078125 59.671875 48.640625 
Q 64.796875 41.75 62.203125 27.34375 
Q 59.8125 14.109375 51.421875 6.25 
Q 43.5 -1.171875 33.734375 -1.171875 
L 29.9375 -20.796875 
L 21 -20.796875 
L 24.8125 -1.21875 
Q 15.046875 -1.21875 10.015625 6.25 
Q 4.828125 13.875 7.421875 27.296875 
Q 10.109375 41.265625 18.21875 48.390625 
Q 24.3125 53.71875 32.5625 55.078125 
L 31 47.125 
Q 27.59375 46 24.03125 42.1875 
Q 18.65625 36.578125 16.890625 27.296875 
Q 15.046875 17.4375 18.0625 11.8125 
Q 20.84375 6.78125 26.375 6.78125 
L 32.859375 40.328125 
Q 35.75 55.078125 47.859375 55.078125 
" id="DejaVuSans-Oblique-3c6"/>
      <path d="M 60.296875 70.515625 
L 58.40625 60.890625 
Q 53.46875 63.53125 48.609375 64.875 
Q 43.75 66.21875 39.203125 66.21875 
Q 30.375 66.21875 25.140625 62.359375 
Q 19.921875 58.5 19.921875 52.09375 
Q 19.921875 48.578125 21.84375 46.703125 
Q 23.78125 44.828125 31.78125 42.671875 
L 37.703125 41.21875 
Q 47.703125 38.625 51.609375 34.640625 
Q 55.515625 30.671875 55.515625 23.484375 
Q 55.515625 12.453125 46.84375 5.515625 
Q 38.1875 -1.421875 24.03125 -1.421875 
Q 18.21875 -1.421875 12.359375 -0.265625 
Q 6.5 0.875 0.59375 3.21875 
L 2.59375 13.375 
Q 8.015625 10.015625 13.453125 8.296875 
Q 18.890625 6.59375 24.3125 6.59375 
Q 33.546875 6.59375 39.109375 10.6875 
Q 44.671875 14.796875 44.671875 21.390625 
Q 44.671875 25.78125 42.453125 28.046875 
Q 40.234375 30.328125 32.90625 32.171875 
L 27 33.6875 
Q 16.890625 36.328125 13.203125 39.765625 
Q 9.515625 43.21875 9.515625 49.421875 
Q 9.515625 60.296875 17.890625 67.25 
Q 26.265625 74.21875 39.703125 74.21875 
Q 44.921875 74.21875 50.046875 73.28125 
Q 55.171875 72.359375 60.296875 70.515625 
" id="DejaVuSans-Oblique-53"/>
      <path d="M 54.59375 10.890625 
L 58.40625 29.984375 
L 42.1875 29.984375 
L 43.703125 38.09375 
L 69.578125 38.09375 
L 63.28125 6 
Q 56.78125 2.4375 49.109375 0.5 
Q 41.453125 -1.421875 33.6875 -1.421875 
Q 19.96875 -1.421875 12.234375 6.1875 
Q 4.5 13.8125 4.5 27.390625 
Q 4.5 38.671875 9.203125 48.84375 
Q 13.921875 59.03125 22.21875 65.828125 
Q 27.4375 70.0625 33.640625 72.140625 
Q 39.84375 74.21875 47.40625 74.21875 
Q 54.25 74.21875 60.515625 72.484375 
Q 66.796875 70.75 72.515625 67.28125 
L 70.515625 56.78125 
Q 66.109375 61.375 60.203125 63.796875 
Q 54.296875 66.21875 47.609375 66.21875 
Q 39.84375 66.21875 33.9375 63.25 
Q 28.03125 60.296875 23.390625 54.109375 
Q 19.4375 48.828125 17.15625 41.671875 
Q 14.890625 34.515625 14.890625 27.09375 
Q 14.890625 16.890625 20.109375 11.734375 
Q 25.34375 6.59375 35.6875 6.59375 
Q 40.875 6.59375 45.703125 7.6875 
Q 50.53125 8.796875 54.59375 10.890625 
" id="DejaVuSans-Oblique-47"/>
     </defs>
     <g transform="translate(286.8 280.25625)scale(0.1 -0.1)">
      <use transform="translate(0 0.921875)" xlink:href="#DejaVuSans-Oblique-3c6"/>
      <use transform="translate(65.966797 -15.484375)scale(0.7)" xlink:href="#DejaVuSans-Oblique-53"/>
      <use transform="translate(110.400391 -15.484375)scale(0.7)" xlink:href="#DejaVuSans-Oblique-47"/>
     </g>
    </g>
   </g>
   <g id="matplotlib.axis_2">
    <g id="ytick_1">
     <g id="line2d_7">
      <defs>
       <path d="M 0 0 
L -3.5 0 
" id="m03255e2df4" style="stroke:#000000;stroke-width:0.8;"/>
      </defs>
      <g>
       <use style="stroke:#000000;stroke-width:0.8;" x="72" xlink:href="#m03255e2df4" y="242.993827"/>
      </g>
     </g>
     <g id="text_8">
      <!-- 0 -->
      <g transform="translate(58.6375 246.793046)scale(0.1 -0.1)">
       <use xlink:href="#DejaVuSans-30"/>
      </g>
     </g>
    </g>
    <g id="ytick_2">
     <g id="line2d_8">
      <g>
       <use style="stroke:#000000;stroke-width:0.8;" x="72" xlink:href="#m03255e2df4" y="200.252636"/>
      </g>
     </g>
     <g id="text_9">
      <!-- 2 -->
      <g transform="translate(58.6375 204.051855)scale(0.1 -0.1)">
       <use xlink:href="#DejaVuSans-32"/>
      </g>
     </g>
    </g>
    <g id="ytick_3">
     <g id="line2d_9">
      <g>
       <use style="stroke:#000000;stroke-width:0.8;" x="72" xlink:href="#m03255e2df4" y="157.511444"/>
      </g>
     </g>
     <g id="text_10">
      <!-- 4 -->
      <g transform="translate(58.6375 161.310663)scale(0.1 -0.1)">
       <use xlink:href="#DejaVuSans-34"/>
      </g>
     </g>
    </g>
    <g id="ytick_4">
     <g id="line2d_10">
      <g>
       <use style="stroke:#000000;stroke-width:0.8;" x="72" xlink:href="#m03255e2df4" y="114.770253"/>
      </g>
     </g>
     <g id="text_11">
      <!-- 6 -->
      <g transform="translate(58.6375 118.569472)scale(0.1 -0.1)">
       <use xlink:href="#DejaVuSans-36"/>
      </g>
     </g>
    </g>
    <g id="ytick_5">
     <g id="line2d_11">
      <g>
       <use style="stroke:#000000;stroke-width:0.8;" x="72" xlink:href="#m03255e2df4" y="72.029061"/>
      </g>
     </g>
     <g id="text_12">
      <!-- 8 -->
      <g transform="translate(58.6375 75.82828)scale(0.1 -0.1)">
       <use xlink:href="#DejaVuSans-38"/>
      </g>
     </g>
    </g>
    <g id="text_13">
     <!-- Conductance [2e/$\hbar$] -->
     <defs>
      <path d="M 64.40625 67.28125 
L 64.40625 56.890625 
Q 59.421875 61.53125 53.78125 63.8125 
Q 48.140625 66.109375 41.796875 66.109375 
Q 29.296875 66.109375 22.65625 58.46875 
Q 16.015625 50.828125 16.015625 36.375 
Q 16.015625 21.96875 22.65625 14.328125 
Q 29.296875 6.6875 41.796875 6.6875 
Q 48.140625 6.6875 53.78125 8.984375 
Q 59.421875 11.28125 64.40625 15.921875 
L 64.40625 5.609375 
Q 59.234375 2.09375 53.4375 0.328125 
Q 47.65625 -1.421875 41.21875 -1.421875 
Q 24.65625 -1.421875 15.125 8.703125 
Q 5.609375 18.84375 5.609375 36.375 
Q 5.609375 53.953125 15.125 64.078125 
Q 24.65625 74.21875 41.21875 74.21875 
Q 47.75 74.21875 53.53125 72.484375 
Q 59.328125 70.75 64.40625 67.28125 
" id="DejaVuSans-43"/>
      <path d="M 30.609375 48.390625 
Q 23.390625 48.390625 19.1875 42.75 
Q 14.984375 37.109375 14.984375 27.296875 
Q 14.984375 17.484375 19.15625 11.84375 
Q 23.34375 6.203125 30.609375 6.203125 
Q 37.796875 6.203125 41.984375 11.859375 
Q 46.1875 17.53125 46.1875 27.296875 
Q 46.1875 37.015625 41.984375 42.703125 
Q 37.796875 48.390625 30.609375 48.390625 
M 30.609375 56 
Q 42.328125 56 49.015625 48.375 
Q 55.71875 40.765625 55.71875 27.296875 
Q 55.71875 13.875 49.015625 6.21875 
Q 42.328125 -1.421875 30.609375 -1.421875 
Q 18.84375 -1.421875 12.171875 6.21875 
Q 5.515625 13.875 5.515625 27.296875 
Q 5.515625 40.765625 12.171875 48.375 
Q 18.84375 56 30.609375 56 
" id="DejaVuSans-6f"/>
      <path d="M 54.890625 33.015625 
L 54.890625 0 
L 45.90625 0 
L 45.90625 32.71875 
Q 45.90625 40.484375 42.875 44.328125 
Q 39.84375 48.1875 33.796875 48.1875 
Q 26.515625 48.1875 22.3125 43.546875 
Q 18.109375 38.921875 18.109375 30.90625 
L 18.109375 0 
L 9.078125 0 
L 9.078125 54.6875 
L 18.109375 54.6875 
L 18.109375 46.1875 
Q 21.34375 51.125 25.703125 53.5625 
Q 30.078125 56 35.796875 56 
Q 45.21875 56 50.046875 50.171875 
Q 54.890625 44.34375 54.890625 33.015625 
" id="DejaVuSans-6e"/>
      <path d="M 45.40625 46.390625 
L 45.40625 75.984375 
L 54.390625 75.984375 
L 54.390625 0 
L 45.40625 0 
L 45.40625 8.203125 
Q 42.578125 3.328125 38.25 0.953125 
Q 33.9375 -1.421875 27.875 -1.421875 
Q 17.96875 -1.421875 11.734375 6.484375 
Q 5.515625 14.40625 5.515625 27.296875 
Q 5.515625 40.1875 11.734375 48.09375 
Q 17.96875 56 27.875 56 
Q 33.9375 56 38.25 53.625 
Q 42.578125 51.265625 45.40625 46.390625 
M 14.796875 27.296875 
Q 14.796875 17.390625 18.875 11.75 
Q 22.953125 6.109375 30.078125 6.109375 
Q 37.203125 6.109375 41.296875 11.75 
Q 45.40625 17.390625 45.40625 27.296875 
Q 45.40625 37.203125 41.296875 42.84375 
Q 37.203125 48.484375 30.078125 48.484375 
Q 22.953125 48.484375 18.875 42.84375 
Q 14.796875 37.203125 14.796875 27.296875 
" id="DejaVuSans-64"/>
      <path d="M 8.5 21.578125 
L 8.5 54.6875 
L 17.484375 54.6875 
L 17.484375 21.921875 
Q 17.484375 14.15625 20.5 10.265625 
Q 23.53125 6.390625 29.59375 6.390625 
Q 36.859375 6.390625 41.078125 11.03125 
Q 45.3125 15.671875 45.3125 23.6875 
L 45.3125 54.6875 
L 54.296875 54.6875 
L 54.296875 0 
L 45.3125 0 
L 45.3125 8.40625 
Q 42.046875 3.421875 37.71875 1 
Q 33.40625 -1.421875 27.6875 -1.421875 
Q 18.265625 -1.421875 13.375 4.4375 
Q 8.5 10.296875 8.5 21.578125 
M 31.109375 56 
z
" id="DejaVuSans-75"/>
      <path d="M 48.78125 52.59375 
L 48.78125 44.1875 
Q 44.96875 46.296875 41.140625 47.34375 
Q 37.3125 48.390625 33.40625 48.390625 
Q 24.65625 48.390625 19.8125 42.84375 
Q 14.984375 37.3125 14.984375 27.296875 
Q 14.984375 17.28125 19.8125 11.734375 
Q 24.65625 6.203125 33.40625 6.203125 
Q 37.3125 6.203125 41.140625 7.25 
Q 44.96875 8.296875 48.78125 10.40625 
L 48.78125 2.09375 
Q 45.015625 0.34375 40.984375 -0.53125 
Q 36.96875 -1.421875 32.421875 -1.421875 
Q 20.0625 -1.421875 12.78125 6.34375 
Q 5.515625 14.109375 5.515625 27.296875 
Q 5.515625 40.671875 12.859375 48.328125 
Q 20.21875 56 33.015625 56 
Q 37.15625 56 41.109375 55.140625 
Q 45.0625 54.296875 48.78125 52.59375 
" id="DejaVuSans-63"/>
      <path d="M 18.3125 70.21875 
L 18.3125 54.6875 
L 36.8125 54.6875 
L 36.8125 47.703125 
L 18.3125 47.703125 
L 18.3125 18.015625 
Q 18.3125 11.328125 20.140625 9.421875 
Q 21.96875 7.515625 27.59375 7.515625 
L 36.8125 7.515625 
L 36.8125 0 
L 27.59375 0 
Q 17.1875 0 13.234375 3.875 
Q 9.28125 7.765625 9.28125 18.015625 
L 9.28125 47.703125 
L 2.6875 47.703125 
L 2.6875 54.6875 
L 9.28125 54.6875 
L 9.28125 70.21875 
z
" id="DejaVuSans-74"/>
      <path d="M 34.28125 27.484375 
Q 23.390625 27.484375 19.1875 25 
Q 14.984375 22.515625 14.984375 16.5 
Q 14.984375 11.71875 18.140625 8.90625 
Q 21.296875 6.109375 26.703125 6.109375 
Q 34.1875 6.109375 38.703125 11.40625 
Q 43.21875 16.703125 43.21875 25.484375 
L 43.21875 27.484375 
z
M 52.203125 31.203125 
L 52.203125 0 
L 43.21875 0 
L 43.21875 8.296875 
Q 40.140625 3.328125 35.546875 0.953125 
Q 30.953125 -1.421875 24.3125 -1.421875 
Q 15.921875 -1.421875 10.953125 3.296875 
Q 6 8.015625 6 15.921875 
Q 6 25.140625 12.171875 29.828125 
Q 18.359375 34.515625 30.609375 34.515625 
L 43.21875 34.515625 
L 43.21875 35.40625 
Q 43.21875 41.609375 39.140625 45 
Q 35.0625 48.390625 27.6875 48.390625 
Q 23 48.390625 18.546875 47.265625 
Q 14.109375 46.140625 10.015625 43.890625 
L 10.015625 52.203125 
Q 14.9375 54.109375 19.578125 55.046875 
Q 24.21875 56 28.609375 56 
Q 40.484375 56 46.34375 49.84375 
Q 52.203125 43.703125 52.203125 31.203125 
" id="DejaVuSans-61"/>
      <path d="M 56.203125 29.59375 
L 56.203125 25.203125 
L 14.890625 25.203125 
Q 15.484375 15.921875 20.484375 11.0625 
Q 25.484375 6.203125 34.421875 6.203125 
Q 39.59375 6.203125 44.453125 7.46875 
Q 49.3125 8.734375 54.109375 11.28125 
L 54.109375 2.78125 
Q 49.265625 0.734375 44.1875 -0.34375 
Q 39.109375 -1.421875 33.890625 -1.421875 
Q 20.796875 -1.421875 13.15625 6.1875 
Q 5.515625 13.8125 5.515625 26.8125 
Q 5.515625 40.234375 12.765625 48.109375 
Q 20.015625 56 32.328125 56 
Q 43.359375 56 49.78125 48.890625 
Q 56.203125 41.796875 56.203125 29.59375 
M 47.21875 32.234375 
Q 47.125 39.59375 43.09375 43.984375 
Q 39.0625 48.390625 32.421875 48.390625 
Q 24.90625 48.390625 20.390625 44.140625 
Q 15.875 39.890625 15.1875 32.171875 
z
" id="DejaVuSans-65"/>
      <path id="DejaVuSans-20"/>
      <path d="M 8.59375 75.984375 
L 29.296875 75.984375 
L 29.296875 69 
L 17.578125 69 
L 17.578125 -6.203125 
L 29.296875 -6.203125 
L 29.296875 -13.1875 
L 8.59375 -13.1875 
z
" id="DejaVuSans-5b"/>
      <path d="M 25.390625 72.90625 
L 33.6875 72.90625 
L 8.296875 -9.28125 
L 0 -9.28125 
z
" id="DejaVuSans-2f"/>
      <path d="M 56.78125 33.015625 
L 50.390625 0 
L 41.40625 0 
L 47.75 32.71875 
Q 48.34375 35.796875 48.34375 38.28125 
Q 48.34375 42 46.96875 44.34375 
Q 44.734375 48.1875 38.671875 48.1875 
Q 31.390625 48.1875 26.265625 43.5625 
Q 21.1875 38.921875 19.625 30.90625 
L 13.625 0 
L 4.59375 0 
L 16.65625 62.015625 
L 10.546875 62.015625 
L 12.109375 70.015625 
L 18.21875 70.015625 
L 19.34375 75.984375 
L 28.375 75.984375 
L 27.25 70.015625 
L 44.4375 70.015625 
L 42.875 62.015625 
L 25.6875 62.015625 
L 22.609375 46.1875 
Q 26.765625 51.125 31.640625 53.5625 
Q 36.421875 56 42.1875 56 
Q 51.5625 56 55.28125 50.203125 
Q 57.625 46.484375 57.625 40.71875 
Q 57.625 37.203125 56.78125 33.015625 
" id="DejaVuSans-Oblique-127"/>
      <path d="M 30.421875 75.984375 
L 30.421875 -13.1875 
L 9.71875 -13.1875 
L 9.71875 -6.203125 
L 21.390625 -6.203125 
L 21.390625 69 
L 9.71875 69 
L 9.71875 75.984375 
z
" id="DejaVuSans-5d"/>
     </defs>
     <g transform="translate(52.557812 193.03)rotate(-90)scale(0.1 -0.1)">
      <use transform="translate(0 0.015625)" xlink:href="#DejaVuSans-43"/>
      <use transform="translate(69.824219 0.015625)" xlink:href="#DejaVuSans-6f"/>
      <use transform="translate(131.005859 0.015625)" xlink:href="#DejaVuSans-6e"/>
      <use transform="translate(194.384766 0.015625)" xlink:href="#DejaVuSans-64"/>
      <use transform="translate(257.861328 0.015625)" xlink:href="#DejaVuSans-75"/>
      <use transform="translate(321.240234 0.015625)" xlink:href="#DejaVuSans-63"/>
      <use transform="translate(376.220703 0.015625)" xlink:href="#DejaVuSans-74"/>
      <use transform="translate(415.429688 0.015625)" xlink:href="#DejaVuSans-61"/>
      <use transform="translate(476.708984 0.015625)" xlink:href="#DejaVuSans-6e"/>
      <use transform="translate(540.087891 0.015625)" xlink:href="#DejaVuSans-63"/>
      <use transform="translate(595.068359 0.015625)" xlink:href="#DejaVuSans-65"/>
      <use transform="translate(656.591797 0.015625)" xlink:href="#DejaVuSans-20"/>
      <use transform="translate(688.378906 0.015625)" xlink:href="#DejaVuSans-5b"/>
      <use transform="translate(727.392578 0.015625)" xlink:href="#DejaVuSans-32"/>
      <use transform="translate(791.015625 0.015625)" xlink:href="#DejaVuSans-65"/>
      <use transform="translate(852.539062 0.015625)" xlink:href="#DejaVuSans-2f"/>
      <use transform="translate(886.230469 0.015625)" xlink:href="#DejaVuSans-Oblique-127"/>
      <use transform="translate(955.712891 0.015625)" xlink:href="#DejaVuSans-5d"/>
     </g>
    </g>
   </g>
   <g id="line2d_12">
    <path clip-path="url(#pefdb5dc085)" d="M 92.290909 224.011427 
L 96.390083 236.100676 
L 100.489256 229.302996 
L 104.58843 229.209688 
L 108.687603 228.778848 
L 112.786777 226.625 
L 116.88595 225.064026 
L 120.985124 236.97809 
L 125.084298 234.822099 
L 129.183471 233.954671 
L 133.282645 233.538847 
L 137.381818 233.289177 
L 141.480992 233.102876 
L 145.580165 232.917076 
L 149.679339 232.639374 
L 153.778512 232.084509 
L 157.877686 235.841139 
L 161.97686 234.092132 
L 166.076033 233.737935 
L 170.175207 233.595287 
L 174.27438 233.522296 
L 178.373554 233.480741 
L 182.472727 233.455738 
L 186.571901 233.439973 
L 190.671074 233.429105 
L 194.770248 233.420005 
L 198.869421 233.409882 
L 202.968595 233.395643 
L 207.067769 233.373158 
L 211.166942 233.33604 
L 215.266116 233.273132 
L 219.365289 233.162458 
L 223.464463 232.954151 
L 227.563636 232.511089 
L 231.66281 231.332859 
L 235.761983 226.927582 
L 239.861157 226.284133 
L 243.960331 232.861951 
L 248.059504 233.940719 
L 252.158678 234.206847 
L 256.257851 234.310044 
L 260.357025 234.36924 
L 264.456198 234.415325 
L 268.555372 234.458218 
L 272.654545 234.501552 
L 276.753719 234.546771 
L 280.852893 234.594484 
L 284.952066 234.644962 
L 289.05124 234.698342 
L 293.150413 234.754713 
L 297.249587 234.814154 
L 301.34876 234.876753 
L 305.447934 234.942613 
L 309.547107 235.011859 
L 313.646281 235.084638 
L 317.745455 235.161124 
L 321.844628 235.241513 
L 325.943802 235.32603 
L 330.042975 235.414931 
L 334.142149 235.508501 
L 338.241322 235.607058 
L 342.340496 235.710957 
L 346.439669 235.820593 
L 350.538843 235.936404 
L 354.638017 236.058876 
L 358.73719 236.188549 
L 362.836364 236.326018 
L 366.935537 236.471944 
L 371.034711 236.627058 
L 375.133884 236.792169 
L 379.233058 236.968167 
L 383.332231 237.156034 
L 387.431405 237.356845 
L 391.530579 237.57177 
L 395.629752 237.802074 
L 399.728926 238.0491 
L 403.828099 238.314243 
L 407.927273 238.598901 
L 412.026446 238.904374 
L 416.12562 239.23171 
L 420.224793 239.581424 
L 424.323967 239.953032 
L 428.42314 240.344275 
L 432.522314 240.749783 
L 436.621488 241.158822 
L 440.720661 241.551418 
L 444.819835 241.891684 
L 448.919008 242.116364 
L 453.018182 242.115623 
L 457.117355 241.702943 
L 461.216529 240.576478 
L 465.315702 238.301172 
L 469.414876 234.440898 
L 473.51405 227.765171 
L 477.613223 221.168093 
L 481.712397 214.248539 
L 485.81157 208.745441 
L 489.910744 205.28739 
L 494.009917 203.828449 
L 498.109091 203.905682 
" style="fill:none;stroke:#1f77b4;stroke-linecap:square;stroke-width:1.5;"/>
   </g>
   <g id="line2d_13">
    <path clip-path="url(#pefdb5dc085)" d="M 92.290909 204.655092 
L 96.390083 201.718304 
L 100.489256 201.860335 
L 104.58843 211.226934 
L 108.687603 209.923571 
L 112.786777 206.650399 
L 116.88595 208.02667 
L 120.985124 210.192177 
L 125.084298 211.08936 
L 129.183471 211.428432 
L 133.282645 211.569412 
L 137.381818 211.639914 
L 141.480992 211.687063 
L 145.580165 211.729417 
L 149.679339 211.774551 
L 153.778512 211.825508 
L 157.877686 211.883381 
L 161.97686 211.948404 
L 166.076033 212.020449 
L 170.175207 212.099245 
L 174.27438 212.184493 
L 178.373554 212.275909 
L 182.472727 212.373245 
L 186.571901 212.476301 
L 190.671074 212.584923 
L 194.770248 212.699002 
L 198.869421 212.81847 
L 202.968595 212.943302 
L 207.067769 213.073506 
L 211.166942 213.209125 
L 215.266116 213.350232 
L 219.365289 213.496929 
L 223.464463 213.649348 
L 227.563636 213.807642 
L 231.66281 213.971994 
L 235.761983 214.142607 
L 239.861157 214.319708 
L 243.960331 214.503548 
L 248.059504 214.694395 
L 252.158678 214.892543 
L 256.257851 215.098301 
L 260.357025 215.311999 
L 264.456198 215.533984 
L 268.555372 215.764618 
L 272.654545 216.004276 
L 276.753719 216.253343 
L 280.852893 216.512211 
L 284.952066 216.781272 
L 289.05124 217.060915 
L 293.150413 217.351516 
L 297.249587 217.653431 
L 301.34876 217.966983 
L 305.447934 218.292452 
L 309.547107 218.630062 
L 313.646281 218.979965 
L 317.745455 219.342233 
L 321.844628 219.716846 
L 325.943802 220.1037 
L 330.042975 220.502626 
L 334.142149 220.913445 
L 338.241322 221.336082 
L 342.340496 221.770766 
L 346.439669 222.218359 
L 350.538843 222.680893 
L 354.638017 223.162369 
L 358.73719 223.6699 
L 362.836364 224.21522 
L 366.935537 224.81642 
L 371.034711 225.49947 
L 375.133884 226.29851 
L 379.233058 227.253016 
L 383.332231 228.3992 
L 387.431405 229.753147 
L 391.530579 231.285828 
L 395.629752 232.896476 
L 399.728926 234.398858 
L 403.828099 235.537771 
L 407.927273 236.042273 
L 412.026446 235.699272 
L 416.12562 234.413261 
L 420.224793 232.223644 
L 424.323967 229.277534 
L 428.42314 225.780332 
L 432.522314 221.951705 
L 436.621488 218.007638 
L 440.720661 214.208456 
L 444.819835 204.096415 
L 448.919008 205.147518 
L 453.018182 201.855044 
L 457.117355 198.522713 
L 461.216529 195.308185 
L 465.315702 192.246315 
L 469.414876 189.376198 
L 473.51405 186.764845 
L 477.613223 184.501926 
L 481.712397 182.674876 
L 485.81157 181.335719 
L 489.910744 180.474807 
L 494.009917 180.011474 
L 498.109091 179.800927 
" style="fill:none;stroke:#ff7f0e;stroke-linecap:square;stroke-width:1.5;"/>
   </g>
   <g id="line2d_14">
    <path clip-path="url(#pefdb5dc085)" d="M 92.290909 186.35648 
L 96.390083 187.299139 
L 100.489256 188.054584 
L 104.58843 188.693693 
L 108.687603 189.257439 
L 112.786777 189.770693 
L 116.88595 190.24928 
L 120.985124 190.703707 
L 125.084298 191.141221 
L 129.183471 191.567001 
L 133.282645 191.984864 
L 137.381818 192.397711 
L 141.480992 192.807812 
L 145.580165 193.216989 
L 149.679339 193.626749 
L 153.778512 194.038365 
L 157.877686 194.452944 
L 161.97686 194.871468 
L 166.076033 195.294829 
L 170.175207 195.723851 
L 174.27438 196.159312 
L 178.373554 196.601958 
L 182.472727 197.052509 
L 186.571901 197.511675 
L 190.671074 197.98016 
L 194.770248 198.458666 
L 198.869421 198.947901 
L 202.968595 199.44858 
L 207.067769 199.96143 
L 211.166942 200.48719 
L 215.266116 201.026614 
L 219.365289 201.58047 
L 223.464463 202.149544 
L 227.563636 202.734632 
L 231.66281 203.336546 
L 235.761983 203.956103 
L 239.861157 204.594125 
L 243.960331 205.251432 
L 248.059504 205.92883 
L 252.158678 206.627099 
L 256.257851 207.34698 
L 260.357025 208.089153 
L 264.456198 208.85421 
L 268.555372 209.642623 
L 272.654545 210.454705 
L 276.753719 211.290554 
L 280.852893 212.149989 
L 284.952066 213.032472 
L 289.05124 213.937004 
L 293.150413 214.861999 
L 297.249587 215.805132 
L 301.34876 216.763147 
L 305.447934 217.731619 
L 309.547107 218.704673 
L 313.646281 219.674623 
L 317.745455 220.631551 
L 321.844628 221.562787 
L 325.943802 222.452279 
L 330.042975 223.279861 
L 334.142149 224.02038 
L 338.241322 224.642728 
L 342.340496 225.108842 
L 346.439669 225.372858 
L 350.538843 225.380846 
L 354.638017 225.071885 
L 358.73719 224.381687 
L 362.836364 223.250082 
L 366.935537 221.63281 
L 371.034711 219.515308 
L 375.133884 216.922279 
L 379.233058 213.91537 
L 383.332231 210.576209 
L 387.431405 206.981074 
L 391.530579 203.176345 
L 395.629752 199.151246 
L 399.728926 194.758794 
L 403.828099 189.293909 
L 407.927273 179.263166 
L 412.026446 177.755604 
L 416.12562 179.006039 
L 420.224793 176.231756 
L 424.323967 172.827091 
L 428.42314 169.361025 
L 432.522314 165.976358 
L 436.621488 162.726093 
L 440.720661 159.635404 
L 444.819835 156.718371 
L 448.919008 153.984394 
L 453.018182 151.441321 
L 457.117355 149.09697 
L 461.216529 146.959446 
L 465.315702 145.036501 
L 469.414876 143.334203 
L 473.51405 141.855326 
L 477.613223 140.59789 
L 481.712397 139.554233 
L 485.81157 138.710828 
L 489.910744 138.048899 
L 494.009917 137.545749 
L 498.109091 137.176645 
" style="fill:none;stroke:#2ca02c;stroke-linecap:square;stroke-width:1.5;"/>
   </g>
   <g id="line2d_15">
    <path clip-path="url(#pefdb5dc085)" d="M 92.290909 161.446084 
L 96.390083 162.207314 
L 100.489256 162.976927 
L 104.58843 163.756075 
L 108.687603 164.545825 
L 112.786777 165.347182 
L 116.88595 166.161102 
L 120.985124 166.988508 
L 125.084298 167.830295 
L 129.183471 168.687338 
L 133.282645 169.56049 
L 137.381818 170.450585 
L 141.480992 171.358434 
L 145.580165 172.284813 
L 149.679339 173.230459 
L 153.778512 174.196048 
L 157.877686 175.182174 
L 161.97686 176.189319 
L 166.076033 177.217809 
L 170.175207 178.267757 
L 174.27438 179.338984 
L 178.373554 180.430915 
L 182.472727 181.542439 
L 186.571901 182.671716 
L 190.671074 183.815919 
L 194.770248 184.970898 
L 198.869421 186.130722 
L 202.968595 187.287092 
L 207.067769 188.428602 
L 211.166942 189.539843 
L 215.266116 190.600425 
L 219.365289 191.584072 
L 223.464463 192.458194 
L 227.563636 193.184613 
L 231.66281 193.722515 
L 235.761983 194.034888 
L 239.861157 194.099144 
L 243.960331 193.920658 
L 248.059504 193.544477 
L 252.158678 193.057492 
L 256.257851 192.574912 
L 260.357025 192.213095 
L 264.456198 192.060401 
L 268.555372 192.159737 
L 272.654545 192.508321 
L 276.753719 193.069961 
L 280.852893 193.790981 
L 284.952066 194.613235 
L 289.05124 195.48194 
L 293.150413 196.348948 
L 297.249587 197.173043 
L 301.34876 197.918703 
L 305.447934 198.554248 
L 309.547107 199.04985 
L 313.646281 199.375594 
L 317.745455 199.499618 
L 321.844628 199.386269 
L 325.943802 198.994141 
L 330.042975 198.273788 
L 334.142149 197.164764 
L 338.241322 195.591472 
L 342.340496 193.457426 
L 346.439669 190.639413 
L 350.538843 186.993366 
L 354.638017 182.4258 
L 358.73719 177.196074 
L 362.836364 172.527159 
L 366.935537 170.061708 
L 371.034711 169.087735 
L 375.133884 167.458495 
L 379.233058 164.497527 
L 383.332231 160.539503 
L 387.431405 156.018114 
L 391.530579 151.247618 
L 395.629752 146.43645 
L 399.728926 141.721382 
L 403.828099 137.190132 
L 407.927273 132.895336 
L 412.026446 128.864106 
L 416.12562 125.105269 
L 420.224793 121.615044 
L 424.323967 118.381448 
L 428.42314 115.387578 
L 432.522314 112.613968 
L 436.621488 110.040179 
L 440.720661 107.645841 
L 444.819835 105.411311 
L 448.919008 103.318104 
L 453.018182 101.349247 
L 457.117355 99.489635 
L 461.216529 97.726489 
L 465.315702 96.049925 
L 469.414876 94.453629 
L 473.51405 92.935544 
L 477.613223 91.498397 
L 481.712397 90.14986 
L 485.81157 88.902103 
L 489.910744 87.770571 
L 494.009917 86.77202 
L 498.109091 85.922036 
" style="fill:none;stroke:#d62728;stroke-linecap:square;stroke-width:1.5;"/>
   </g>
   <g id="line2d_16">
    <path clip-path="url(#pefdb5dc085)" d="M 92.290909 143.612974 
L 96.390083 145.99158 
L 100.489256 148.363609 
L 104.58843 150.626912 
L 108.687603 152.669028 
L 112.786777 154.393675 
L 116.88595 155.74863 
L 120.985124 156.740713 
L 125.084298 157.429729 
L 129.183471 157.906119 
L 133.282645 158.265161 
L 137.381818 158.588404 
L 141.480992 158.935589 
L 145.580165 159.344643 
L 149.679339 159.83574 
L 153.778512 160.416336 
L 157.877686 161.085611 
L 161.97686 161.837772 
L 166.076033 162.664285 
L 170.175207 163.555265 
L 174.27438 164.500278 
L 178.373554 165.48876 
L 182.472727 166.5102 
L 186.571901 167.554192 
L 190.671074 168.61042 
L 194.770248 169.668607 
L 198.869421 170.718469 
L 202.968595 171.749679 
L 207.067769 172.751862 
L 211.166942 173.714617 
L 215.266116 174.62758 
L 219.365289 175.480519 
L 223.464463 176.263465 
L 227.563636 176.966866 
L 231.66281 177.581753 
L 235.761983 178.099902 
L 239.861157 178.513971 
L 243.960331 178.817588 
L 248.059504 179.005382 
L 252.158678 179.072932 
L 256.257851 179.016658 
L 260.357025 178.833679 
L 264.456198 178.521705 
L 268.555372 178.079096 
L 272.654545 177.505242 
L 276.753719 176.801514 
L 280.852893 175.972972 
L 284.952066 175.030921 
L 289.05124 173.995919 
L 293.150413 172.89986 
L 297.249587 171.784279 
L 301.34876 170.69084 
L 305.447934 169.641289 
L 309.547107 168.610516 
L 313.646281 167.506063 
L 317.745455 166.171192 
L 321.844628 164.417355 
L 325.943802 162.072289 
L 330.042975 159.021084 
L 334.142149 155.226096 
L 338.241322 150.725768 
L 342.340496 145.619932 
L 346.439669 140.049279 
L 350.538843 134.174124 
L 354.638017 128.155453 
L 358.73719 122.139997 
L 362.836364 116.250244 
L 366.935537 110.579547 
L 371.034711 105.191681 
L 375.133884 100.123689 
L 379.233058 95.390606 
L 383.332231 90.990837 
L 387.431405 86.911274 
L 391.530579 83.131666 
L 395.629752 79.628063 
L 399.728926 76.375362 
L 403.828099 73.3491 
L 407.927273 70.526653 
L 412.026446 67.888001 
L 416.12562 65.416184 
L 420.224793 63.097534 
L 424.323967 60.921729 
L 428.42314 58.8817 
L 432.522314 56.973392 
L 436.621488 55.195392 
L 440.720661 53.548418 
L 444.819835 52.03469 
L 448.919008 50.657224 
L 453.018182 49.419105 
L 457.117355 48.322786 
L 461.216529 47.369507 
L 465.315702 46.558867 
L 469.414876 45.888599 
L 473.51405 45.354545 
L 477.613223 44.950815 
L 481.712397 44.670093 
L 485.81157 44.504022 
L 489.910744 44.443636 
L 494.009917 44.479777 
L 498.109091 44.603459 
" style="fill:none;stroke:#9467bd;stroke-linecap:square;stroke-width:1.5;"/>
   </g>
   <g id="patch_3">
    <path d="M 72 252 
L 72 34.56 
" style="fill:none;stroke:#000000;stroke-linecap:square;stroke-linejoin:miter;stroke-width:0.8;"/>
   </g>
   <g id="patch_4">
    <path d="M 518.4 252 
L 518.4 34.56 
" style="fill:none;stroke:#000000;stroke-linecap:square;stroke-linejoin:miter;stroke-width:0.8;"/>
   </g>
   <g id="patch_5">
    <path d="M 72 252 
L 518.4 252 
" style="fill:none;stroke:#000000;stroke-linecap:square;stroke-linejoin:miter;stroke-width:0.8;"/>
   </g>
   <g id="patch_6">
    <path d="M 72 34.56 
L 518.4 34.56 
" style="fill:none;stroke:#000000;stroke-linecap:square;stroke-linejoin:miter;stroke-width:0.8;"/>
   </g>
   <g id="legend_1">
    <g id="patch_7">
     <path d="M 79 116.052188 
L 156.3 116.052188 
Q 158.3 116.052188 158.3 114.052188 
L 158.3 41.56 
Q 158.3 39.56 156.3 39.56 
L 79 39.56 
Q 77 39.56 77 41.56 
L 77 114.052188 
Q 77 116.052188 79 116.052188 
z
" style="fill:#ffffff;opacity:0.8;stroke:#cccccc;stroke-linejoin:miter;"/>
    </g>
    <g id="line2d_17">
     <path d="M 81 47.658437 
L 101 47.658437 
" style="fill:none;stroke:#1f77b4;stroke-linecap:square;stroke-width:1.5;"/>
    </g>
    <g id="line2d_18"/>
    <g id="text_14">
     <!-- $\varphi_{BG} = 0.1$ -->
     <defs>
      <path d="M 16.890625 72.90625 
L 42.09375 72.90625 
Q 52.34375 72.90625 57.421875 69.09375 
Q 62.5 65.28125 62.5 57.625 
Q 62.5 50.59375 58.125 45.484375 
Q 53.765625 40.375 46.6875 39.3125 
Q 52.734375 37.9375 55.765625 34.078125 
Q 58.796875 30.21875 58.796875 23.78125 
Q 58.796875 12.796875 50.65625 6.390625 
Q 42.53125 0 28.421875 0 
L 2.6875 0 
z
M 19.28125 34.8125 
L 14.109375 8.109375 
L 29.984375 8.109375 
Q 38.921875 8.109375 43.75 12.203125 
Q 48.578125 16.3125 48.578125 23.78125 
Q 48.578125 29.546875 45.375 32.171875 
Q 42.1875 34.8125 35.109375 34.8125 
z
M 25.09375 64.796875 
L 20.796875 42.828125 
L 35.5 42.828125 
Q 43.359375 42.828125 47.78125 46.234375 
Q 52.203125 49.65625 52.203125 55.71875 
Q 52.203125 60.453125 49.21875 62.625 
Q 46.234375 64.796875 39.703125 64.796875 
z
" id="DejaVuSans-Oblique-42"/>
      <path d="M 10.59375 45.40625 
L 73.1875 45.40625 
L 73.1875 37.203125 
L 10.59375 37.203125 
z
M 10.59375 25.484375 
L 73.1875 25.484375 
L 73.1875 17.1875 
L 10.59375 17.1875 
z
" id="DejaVuSans-3d"/>
      <path d="M 10.6875 12.40625 
L 21 12.40625 
L 21 0 
L 10.6875 0 
z
" id="DejaVuSans-2e"/>
     </defs>
     <g transform="translate(109 51.158437)scale(0.1 -0.1)">
      <use transform="translate(0 0.78125)" xlink:href="#DejaVuSans-Oblique-3c6"/>
      <use transform="translate(65.966797 -15.625)scale(0.7)" xlink:href="#DejaVuSans-Oblique-42"/>
      <use transform="translate(113.989258 -15.625)scale(0.7)" xlink:href="#DejaVuSans-Oblique-47"/>
      <use transform="translate(190.449219 0.78125)" xlink:href="#DejaVuSans-3d"/>
      <use transform="translate(293.720703 0.78125)" xlink:href="#DejaVuSans-30"/>
      <use transform="translate(357.34375 0.78125)" xlink:href="#DejaVuSans-2e"/>
      <use transform="translate(389.130859 0.78125)" xlink:href="#DejaVuSans-31"/>
     </g>
    </g>
    <g id="line2d_19">
     <path d="M 81 62.356875 
L 101 62.356875 
" style="fill:none;stroke:#ff7f0e;stroke-linecap:square;stroke-width:1.5;"/>
    </g>
    <g id="line2d_20"/>
    <g id="text_15">
     <!-- $\varphi_{BG} = 0.2$ -->
     <g transform="translate(109 65.856875)scale(0.1 -0.1)">
      <use transform="translate(0 0.78125)" xlink:href="#DejaVuSans-Oblique-3c6"/>
      <use transform="translate(65.966797 -15.625)scale(0.7)" xlink:href="#DejaVuSans-Oblique-42"/>
      <use transform="translate(113.989258 -15.625)scale(0.7)" xlink:href="#DejaVuSans-Oblique-47"/>
      <use transform="translate(190.449219 0.78125)" xlink:href="#DejaVuSans-3d"/>
      <use transform="translate(293.720703 0.78125)" xlink:href="#DejaVuSans-30"/>
      <use transform="translate(357.34375 0.78125)" xlink:href="#DejaVuSans-2e"/>
      <use transform="translate(389.052734 0.78125)" xlink:href="#DejaVuSans-32"/>
     </g>
    </g>
    <g id="line2d_21">
     <path d="M 81 77.055312 
L 101 77.055312 
" style="fill:none;stroke:#2ca02c;stroke-linecap:square;stroke-width:1.5;"/>
    </g>
    <g id="line2d_22"/>
    <g id="text_16">
     <!-- $\varphi_{BG} = 0.3$ -->
     <defs>
      <path d="M 40.578125 39.3125 
Q 47.65625 37.796875 51.625 33 
Q 55.609375 28.21875 55.609375 21.1875 
Q 55.609375 10.40625 48.1875 4.484375 
Q 40.765625 -1.421875 27.09375 -1.421875 
Q 22.515625 -1.421875 17.65625 -0.515625 
Q 12.796875 0.390625 7.625 2.203125 
L 7.625 11.71875 
Q 11.71875 9.328125 16.59375 8.109375 
Q 21.484375 6.890625 26.8125 6.890625 
Q 36.078125 6.890625 40.9375 10.546875 
Q 45.796875 14.203125 45.796875 21.1875 
Q 45.796875 27.640625 41.28125 31.265625 
Q 36.765625 34.90625 28.71875 34.90625 
L 20.21875 34.90625 
L 20.21875 43.015625 
L 29.109375 43.015625 
Q 36.375 43.015625 40.234375 45.921875 
Q 44.09375 48.828125 44.09375 54.296875 
Q 44.09375 59.90625 40.109375 62.90625 
Q 36.140625 65.921875 28.71875 65.921875 
Q 24.65625 65.921875 20.015625 65.03125 
Q 15.375 64.15625 9.8125 62.3125 
L 9.8125 71.09375 
Q 15.4375 72.65625 20.34375 73.4375 
Q 25.25 74.21875 29.59375 74.21875 
Q 40.828125 74.21875 47.359375 69.109375 
Q 53.90625 64.015625 53.90625 55.328125 
Q 53.90625 49.265625 50.4375 45.09375 
Q 46.96875 40.921875 40.578125 39.3125 
" id="DejaVuSans-33"/>
     </defs>
     <g transform="translate(109 80.555312)scale(0.1 -0.1)">
      <use transform="translate(0 0.78125)" xlink:href="#DejaVuSans-Oblique-3c6"/>
      <use transform="translate(65.966797 -15.625)scale(0.7)" xlink:href="#DejaVuSans-Oblique-42"/>
      <use transform="translate(113.989258 -15.625)scale(0.7)" xlink:href="#DejaVuSans-Oblique-47"/>
      <use transform="translate(190.449219 0.78125)" xlink:href="#DejaVuSans-3d"/>
      <use transform="translate(293.720703 0.78125)" xlink:href="#DejaVuSans-30"/>
      <use transform="translate(357.34375 0.78125)" xlink:href="#DejaVuSans-2e"/>
      <use transform="translate(389.130859 0.78125)" xlink:href="#DejaVuSans-33"/>
     </g>
    </g>
    <g id="line2d_23">
     <path d="M 81 91.75375 
L 101 91.75375 
" style="fill:none;stroke:#d62728;stroke-linecap:square;stroke-width:1.5;"/>
    </g>
    <g id="line2d_24"/>
    <g id="text_17">
     <!-- $\varphi_{BG} = 0.4$ -->
     <g transform="translate(109 95.25375)scale(0.1 -0.1)">
      <use transform="translate(0 0.78125)" xlink:href="#DejaVuSans-Oblique-3c6"/>
      <use transform="translate(65.966797 -15.625)scale(0.7)" xlink:href="#DejaVuSans-Oblique-42"/>
      <use transform="translate(113.989258 -15.625)scale(0.7)" xlink:href="#DejaVuSans-Oblique-47"/>
      <use transform="translate(190.449219 0.78125)" xlink:href="#DejaVuSans-3d"/>
      <use transform="translate(293.720703 0.78125)" xlink:href="#DejaVuSans-30"/>
      <use transform="translate(357.34375 0.78125)" xlink:href="#DejaVuSans-2e"/>
      <use transform="translate(389.130859 0.78125)" xlink:href="#DejaVuSans-34"/>
     </g>
    </g>
    <g id="line2d_25">
     <path d="M 81 106.452187 
L 101 106.452187 
" style="fill:none;stroke:#9467bd;stroke-linecap:square;stroke-width:1.5;"/>
    </g>
    <g id="line2d_26"/>
    <g id="text_18">
     <!-- $\varphi_{BG} = 0.5$ -->
     <defs>
      <path d="M 10.796875 72.90625 
L 49.515625 72.90625 
L 49.515625 64.59375 
L 19.828125 64.59375 
L 19.828125 46.734375 
Q 21.96875 47.46875 24.109375 47.828125 
Q 26.265625 48.1875 28.421875 48.1875 
Q 40.625 48.1875 47.75 41.5 
Q 54.890625 34.8125 54.890625 23.390625 
Q 54.890625 11.625 47.5625 5.09375 
Q 40.234375 -1.421875 26.90625 -1.421875 
Q 22.3125 -1.421875 17.546875 -0.640625 
Q 12.796875 0.140625 7.71875 1.703125 
L 7.71875 11.625 
Q 12.109375 9.234375 16.796875 8.0625 
Q 21.484375 6.890625 26.703125 6.890625 
Q 35.15625 6.890625 40.078125 11.328125 
Q 45.015625 15.765625 45.015625 23.390625 
Q 45.015625 31 40.078125 35.4375 
Q 35.15625 39.890625 26.703125 39.890625 
Q 22.75 39.890625 18.8125 39.015625 
Q 14.890625 38.140625 10.796875 36.28125 
z
" id="DejaVuSans-35"/>
     </defs>
     <g transform="translate(109 109.952187)scale(0.1 -0.1)">
      <use transform="translate(0 0.78125)" xlink:href="#DejaVuSans-Oblique-3c6"/>
      <use transform="translate(65.966797 -15.625)scale(0.7)" xlink:href="#DejaVuSans-Oblique-42"/>
      <use transform="translate(113.989258 -15.625)scale(0.7)" xlink:href="#DejaVuSans-Oblique-47"/>
      <use transform="translate(190.449219 0.78125)" xlink:href="#DejaVuSans-3d"/>
      <use transform="translate(293.720703 0.78125)" xlink:href="#DejaVuSans-30"/>
      <use transform="translate(357.34375 0.78125)" xlink:href="#DejaVuSans-2e"/>
      <use transform="translate(389.130859 0.78125)" xlink:href="#DejaVuSans-35"/>
     </g>
    </g>
   </g>
  </g>
 </g>
 <defs>
  <clipPath id="pefdb5dc085">
   <rect height="217.44" width="446.4" x="72" y="34.56"/>
  </clipPath>
 </defs>
</svg>
