<?xml version="1.0" encoding="utf-8" standalone="no"?>
<!DOCTYPE svg PUBLIC "-//W3C//DTD SVG 1.1//EN"
  "http://www.w3.org/Graphics/SVG/1.1/DTD/svg11.dtd">
<!-- Created with matplotlib (http://matplotlib.org/) -->
<svg height="288pt" version="1.1" viewBox="0 0 576 288" width="576pt" xmlns="http://www.w3.org/2000/svg" xmlns:xlink="http://www.w3.org/1999/xlink">
 <defs>
  <style type="text/css">
*{stroke-linecap:butt;stroke-linejoin:round;}
  </style>
 </defs>
 <g id="figure_1">
  <g id="patch_1">
   <path d="M 0 288 
L 576 288 
L 576 0 
L 0 0 
z
" style="fill:#ffffff;"/>
  </g>
  <g id="axes_1">
   <g id="patch_2">
    <path d="M 72 252 
L 518.4 252 
L 518.4 34.56 
L 72 34.56 
z
" style="fill:#ffffff;"/>
   </g>
   <g id="matplotlib.axis_1">
    <g id="xtick_1">
     <g id="line2d_1">
      <defs>
       <path d="M 0 0 
L 0 3.5 
" id="m8a0b9918c7" style="stroke:#000000;stroke-width:0.8;"/>
      </defs>
      <g>
       <use style="stroke:#000000;stroke-width:0.8;" x="92.290909" xlink:href="#m8a0b9918c7" y="252"/>
      </g>
     </g>
     <g id="text_1">
      <!-- 0 -->
      <defs>
       <path d="M 31.78125 66.40625 
Q 24.171875 66.40625 20.328125 58.90625 
Q 16.5 51.421875 16.5 36.375 
Q 16.5 21.390625 20.328125 13.890625 
Q 24.171875 6.390625 31.78125 6.390625 
Q 39.453125 6.390625 43.28125 13.890625 
Q 47.125 21.390625 47.125 36.375 
Q 47.125 51.421875 43.28125 58.90625 
Q 39.453125 66.40625 31.78125 66.40625 
M 31.78125 74.21875 
Q 44.046875 74.21875 50.515625 64.515625 
Q 56.984375 54.828125 56.984375 36.375 
Q 56.984375 17.96875 50.515625 8.265625 
Q 44.046875 -1.421875 31.78125 -1.421875 
Q 19.53125 -1.421875 13.0625 8.265625 
Q 6.59375 17.96875 6.59375 36.375 
Q 6.59375 54.828125 13.0625 64.515625 
Q 19.53125 74.21875 31.78125 74.21875 
" id="DejaVuSans-30"/>
      </defs>
      <g transform="translate(89.109659 266.598437)scale(0.1 -0.1)">
       <use xlink:href="#DejaVuSans-30"/>
      </g>
     </g>
    </g>
    <g id="xtick_2">
     <g id="line2d_2">
      <g>
       <use style="stroke:#000000;stroke-width:0.8;" x="174.27438" xlink:href="#m8a0b9918c7" y="252"/>
      </g>
     </g>
     <g id="text_2">
      <!-- 20 -->
      <defs>
       <path d="M 19.1875 8.296875 
L 53.609375 8.296875 
L 53.609375 0 
L 7.328125 0 
L 7.328125 8.296875 
Q 12.9375 14.109375 22.625 23.890625 
Q 32.328125 33.6875 34.8125 36.53125 
Q 39.546875 41.84375 41.421875 45.53125 
Q 43.3125 49.21875 43.3125 52.78125 
Q 43.3125 58.59375 39.234375 62.25 
Q 35.15625 65.921875 28.609375 65.921875 
Q 23.96875 65.921875 18.8125 64.3125 
Q 13.671875 62.703125 7.8125 59.421875 
L 7.8125 69.390625 
Q 13.765625 71.78125 18.9375 73 
Q 24.125 74.21875 28.421875 74.21875 
Q 39.75 74.21875 46.484375 68.546875 
Q 53.21875 62.890625 53.21875 53.421875 
Q 53.21875 48.921875 51.53125 44.890625 
Q 49.859375 40.875 45.40625 35.40625 
Q 44.1875 33.984375 37.640625 27.21875 
Q 31.109375 20.453125 19.1875 8.296875 
" id="DejaVuSans-32"/>
      </defs>
      <g transform="translate(167.91188 266.598437)scale(0.1 -0.1)">
       <use xlink:href="#DejaVuSans-32"/>
       <use x="63.623047" xlink:href="#DejaVuSans-30"/>
      </g>
     </g>
    </g>
    <g id="xtick_3">
     <g id="line2d_3">
      <g>
       <use style="stroke:#000000;stroke-width:0.8;" x="256.257851" xlink:href="#m8a0b9918c7" y="252"/>
      </g>
     </g>
     <g id="text_3">
      <!-- 40 -->
      <defs>
       <path d="M 37.796875 64.3125 
L 12.890625 25.390625 
L 37.796875 25.390625 
z
M 35.203125 72.90625 
L 47.609375 72.90625 
L 47.609375 25.390625 
L 58.015625 25.390625 
L 58.015625 17.1875 
L 47.609375 17.1875 
L 47.609375 0 
L 37.796875 0 
L 37.796875 17.1875 
L 4.890625 17.1875 
L 4.890625 26.703125 
z
" id="DejaVuSans-34"/>
      </defs>
      <g transform="translate(249.895351 266.598437)scale(0.1 -0.1)">
       <use xlink:href="#DejaVuSans-34"/>
       <use x="63.623047" xlink:href="#DejaVuSans-30"/>
      </g>
     </g>
    </g>
    <g id="xtick_4">
     <g id="line2d_4">
      <g>
       <use style="stroke:#000000;stroke-width:0.8;" x="338.241322" xlink:href="#m8a0b9918c7" y="252"/>
      </g>
     </g>
     <g id="text_4">
      <!-- 60 -->
      <defs>
       <path d="M 33.015625 40.375 
Q 26.375 40.375 22.484375 35.828125 
Q 18.609375 31.296875 18.609375 23.390625 
Q 18.609375 15.53125 22.484375 10.953125 
Q 26.375 6.390625 33.015625 6.390625 
Q 39.65625 6.390625 43.53125 10.953125 
Q 47.40625 15.53125 47.40625 23.390625 
Q 47.40625 31.296875 43.53125 35.828125 
Q 39.65625 40.375 33.015625 40.375 
M 52.59375 71.296875 
L 52.59375 62.3125 
Q 48.875 64.0625 45.09375 64.984375 
Q 41.3125 65.921875 37.59375 65.921875 
Q 27.828125 65.921875 22.671875 59.328125 
Q 17.53125 52.734375 16.796875 39.40625 
Q 19.671875 43.65625 24.015625 45.921875 
Q 28.375 48.1875 33.59375 48.1875 
Q 44.578125 48.1875 50.953125 41.515625 
Q 57.328125 34.859375 57.328125 23.390625 
Q 57.328125 12.15625 50.6875 5.359375 
Q 44.046875 -1.421875 33.015625 -1.421875 
Q 20.359375 -1.421875 13.671875 8.265625 
Q 6.984375 17.96875 6.984375 36.375 
Q 6.984375 53.65625 15.1875 63.9375 
Q 23.390625 74.21875 37.203125 74.21875 
Q 40.921875 74.21875 44.703125 73.484375 
Q 48.484375 72.75 52.59375 71.296875 
" id="DejaVuSans-36"/>
      </defs>
      <g transform="translate(331.878822 266.598437)scale(0.1 -0.1)">
       <use xlink:href="#DejaVuSans-36"/>
       <use x="63.623047" xlink:href="#DejaVuSans-30"/>
      </g>
     </g>
    </g>
    <g id="xtick_5">
     <g id="line2d_5">
      <g>
       <use style="stroke:#000000;stroke-width:0.8;" x="420.224793" xlink:href="#m8a0b9918c7" y="252"/>
      </g>
     </g>
     <g id="text_5">
      <!-- 80 -->
      <defs>
       <path d="M 31.78125 34.625 
Q 24.75 34.625 20.71875 30.859375 
Q 16.703125 27.09375 16.703125 20.515625 
Q 16.703125 13.921875 20.71875 10.15625 
Q 24.75 6.390625 31.78125 6.390625 
Q 38.8125 6.390625 42.859375 10.171875 
Q 46.921875 13.96875 46.921875 20.515625 
Q 46.921875 27.09375 42.890625 30.859375 
Q 38.875 34.625 31.78125 34.625 
M 21.921875 38.8125 
Q 15.578125 40.375 12.03125 44.71875 
Q 8.5 49.078125 8.5 55.328125 
Q 8.5 64.0625 14.71875 69.140625 
Q 20.953125 74.21875 31.78125 74.21875 
Q 42.671875 74.21875 48.875 69.140625 
Q 55.078125 64.0625 55.078125 55.328125 
Q 55.078125 49.078125 51.53125 44.71875 
Q 48 40.375 41.703125 38.8125 
Q 48.828125 37.15625 52.796875 32.3125 
Q 56.78125 27.484375 56.78125 20.515625 
Q 56.78125 9.90625 50.3125 4.234375 
Q 43.84375 -1.421875 31.78125 -1.421875 
Q 19.734375 -1.421875 13.25 4.234375 
Q 6.78125 9.90625 6.78125 20.515625 
Q 6.78125 27.484375 10.78125 32.3125 
Q 14.796875 37.15625 21.921875 38.8125 
M 18.3125 54.390625 
Q 18.3125 48.734375 21.84375 45.5625 
Q 25.390625 42.390625 31.78125 42.390625 
Q 38.140625 42.390625 41.71875 45.5625 
Q 45.3125 48.734375 45.3125 54.390625 
Q 45.3125 60.0625 41.71875 63.234375 
Q 38.140625 66.40625 31.78125 66.40625 
Q 25.390625 66.40625 21.84375 63.234375 
Q 18.3125 60.0625 18.3125 54.390625 
" id="DejaVuSans-38"/>
      </defs>
      <g transform="translate(413.862293 266.598437)scale(0.1 -0.1)">
       <use xlink:href="#DejaVuSans-38"/>
       <use x="63.623047" xlink:href="#DejaVuSans-30"/>
      </g>
     </g>
    </g>
    <g id="xtick_6">
     <g id="line2d_6">
      <g>
       <use style="stroke:#000000;stroke-width:0.8;" x="502.208264" xlink:href="#m8a0b9918c7" y="252"/>
      </g>
     </g>
     <g id="text_6">
      <!-- 100 -->
      <defs>
       <path d="M 12.40625 8.296875 
L 28.515625 8.296875 
L 28.515625 63.921875 
L 10.984375 60.40625 
L 10.984375 69.390625 
L 28.421875 72.90625 
L 38.28125 72.90625 
L 38.28125 8.296875 
L 54.390625 8.296875 
L 54.390625 0 
L 12.40625 0 
z
" id="DejaVuSans-31"/>
      </defs>
      <g transform="translate(492.664514 266.598437)scale(0.1 -0.1)">
       <use xlink:href="#DejaVuSans-31"/>
       <use x="63.623047" xlink:href="#DejaVuSans-30"/>
       <use x="127.246094" xlink:href="#DejaVuSans-30"/>
      </g>
     </g>
    </g>
    <g id="text_7">
     <!-- $\varphi_{{SG}}$ -->
     <defs>
      <path d="M 46.390625 47.40625 
Q 43.21875 47.40625 41.796875 40.328125 
L 35.296875 6.84375 
Q 39.890625 6.84375 45.5625 11.921875 
Q 50.6875 16.453125 52.734375 27.34375 
Q 54.640625 37.5 51.5625 42.96875 
Q 49.03125 47.40625 46.390625 47.40625 
M 47.859375 55.078125 
Q 54.890625 55.078125 59.671875 48.640625 
Q 64.796875 41.75 62.203125 27.34375 
Q 59.8125 14.109375 51.421875 6.25 
Q 43.5 -1.171875 33.734375 -1.171875 
L 29.9375 -20.796875 
L 21 -20.796875 
L 24.8125 -1.21875 
Q 15.046875 -1.21875 10.015625 6.25 
Q 4.828125 13.875 7.421875 27.296875 
Q 10.109375 41.265625 18.21875 48.390625 
Q 24.3125 53.71875 32.5625 55.078125 
L 31 47.125 
Q 27.59375 46 24.03125 42.1875 
Q 18.65625 36.578125 16.890625 27.296875 
Q 15.046875 17.4375 18.0625 11.8125 
Q 20.84375 6.78125 26.375 6.78125 
L 32.859375 40.328125 
Q 35.75 55.078125 47.859375 55.078125 
" id="DejaVuSans-Oblique-3c6"/>
      <path d="M 60.296875 70.515625 
L 58.40625 60.890625 
Q 53.46875 63.53125 48.609375 64.875 
Q 43.75 66.21875 39.203125 66.21875 
Q 30.375 66.21875 25.140625 62.359375 
Q 19.921875 58.5 19.921875 52.09375 
Q 19.921875 48.578125 21.84375 46.703125 
Q 23.78125 44.828125 31.78125 42.671875 
L 37.703125 41.21875 
Q 47.703125 38.625 51.609375 34.640625 
Q 55.515625 30.671875 55.515625 23.484375 
Q 55.515625 12.453125 46.84375 5.515625 
Q 38.1875 -1.421875 24.03125 -1.421875 
Q 18.21875 -1.421875 12.359375 -0.265625 
Q 6.5 0.875 0.59375 3.21875 
L 2.59375 13.375 
Q 8.015625 10.015625 13.453125 8.296875 
Q 18.890625 6.59375 24.3125 6.59375 
Q 33.546875 6.59375 39.109375 10.6875 
Q 44.671875 14.796875 44.671875 21.390625 
Q 44.671875 25.78125 42.453125 28.046875 
Q 40.234375 30.328125 32.90625 32.171875 
L 27 33.6875 
Q 16.890625 36.328125 13.203125 39.765625 
Q 9.515625 43.21875 9.515625 49.421875 
Q 9.515625 60.296875 17.890625 67.25 
Q 26.265625 74.21875 39.703125 74.21875 
Q 44.921875 74.21875 50.046875 73.28125 
Q 55.171875 72.359375 60.296875 70.515625 
" id="DejaVuSans-Oblique-53"/>
      <path d="M 54.59375 10.890625 
L 58.40625 29.984375 
L 42.1875 29.984375 
L 43.703125 38.09375 
L 69.578125 38.09375 
L 63.28125 6 
Q 56.78125 2.4375 49.109375 0.5 
Q 41.453125 -1.421875 33.6875 -1.421875 
Q 19.96875 -1.421875 12.234375 6.1875 
Q 4.5 13.8125 4.5 27.390625 
Q 4.5 38.671875 9.203125 48.84375 
Q 13.921875 59.03125 22.21875 65.828125 
Q 27.4375 70.0625 33.640625 72.140625 
Q 39.84375 74.21875 47.40625 74.21875 
Q 54.25 74.21875 60.515625 72.484375 
Q 66.796875 70.75 72.515625 67.28125 
L 70.515625 56.78125 
Q 66.109375 61.375 60.203125 63.796875 
Q 54.296875 66.21875 47.609375 66.21875 
Q 39.84375 66.21875 33.9375 63.25 
Q 28.03125 60.296875 23.390625 54.109375 
Q 19.4375 48.828125 17.15625 41.671875 
Q 14.890625 34.515625 14.890625 27.09375 
Q 14.890625 16.890625 20.109375 11.734375 
Q 25.34375 6.59375 35.6875 6.59375 
Q 40.875 6.59375 45.703125 7.6875 
Q 50.53125 8.796875 54.59375 10.890625 
" id="DejaVuSans-Oblique-47"/>
     </defs>
     <g transform="translate(286.8 280.25625)scale(0.1 -0.1)">
      <use transform="translate(0 0.921875)" xlink:href="#DejaVuSans-Oblique-3c6"/>
      <use transform="translate(65.966797 -15.484375)scale(0.7)" xlink:href="#DejaVuSans-Oblique-53"/>
      <use transform="translate(110.400391 -15.484375)scale(0.7)" xlink:href="#DejaVuSans-Oblique-47"/>
     </g>
    </g>
   </g>
   <g id="matplotlib.axis_2">
    <g id="ytick_1">
     <g id="line2d_7">
      <defs>
       <path d="M 0 0 
L -3.5 0 
" id="mf682ff8773" style="stroke:#000000;stroke-width:0.8;"/>
      </defs>
      <g>
       <use style="stroke:#000000;stroke-width:0.8;" x="72" xlink:href="#mf682ff8773" y="243.029874"/>
      </g>
     </g>
     <g id="text_8">
      <!-- 0 -->
      <g transform="translate(58.6375 246.829092)scale(0.1 -0.1)">
       <use xlink:href="#DejaVuSans-30"/>
      </g>
     </g>
    </g>
    <g id="ytick_2">
     <g id="line2d_8">
      <g>
       <use style="stroke:#000000;stroke-width:0.8;" x="72" xlink:href="#mf682ff8773" y="200.283249"/>
      </g>
     </g>
     <g id="text_9">
      <!-- 2 -->
      <g transform="translate(58.6375 204.082468)scale(0.1 -0.1)">
       <use xlink:href="#DejaVuSans-32"/>
      </g>
     </g>
    </g>
    <g id="ytick_3">
     <g id="line2d_9">
      <g>
       <use style="stroke:#000000;stroke-width:0.8;" x="72" xlink:href="#mf682ff8773" y="157.536624"/>
      </g>
     </g>
     <g id="text_10">
      <!-- 4 -->
      <g transform="translate(58.6375 161.335843)scale(0.1 -0.1)">
       <use xlink:href="#DejaVuSans-34"/>
      </g>
     </g>
    </g>
    <g id="ytick_4">
     <g id="line2d_10">
      <g>
       <use style="stroke:#000000;stroke-width:0.8;" x="72" xlink:href="#mf682ff8773" y="114.79"/>
      </g>
     </g>
     <g id="text_11">
      <!-- 6 -->
      <g transform="translate(58.6375 118.589218)scale(0.1 -0.1)">
       <use xlink:href="#DejaVuSans-36"/>
      </g>
     </g>
    </g>
    <g id="ytick_5">
     <g id="line2d_11">
      <g>
       <use style="stroke:#000000;stroke-width:0.8;" x="72" xlink:href="#mf682ff8773" y="72.043375"/>
      </g>
     </g>
     <g id="text_12">
      <!-- 8 -->
      <g transform="translate(58.6375 75.842594)scale(0.1 -0.1)">
       <use xlink:href="#DejaVuSans-38"/>
      </g>
     </g>
    </g>
    <g id="text_13">
     <!-- Conductance [2e/$\hbar$] -->
     <defs>
      <path d="M 64.40625 67.28125 
L 64.40625 56.890625 
Q 59.421875 61.53125 53.78125 63.8125 
Q 48.140625 66.109375 41.796875 66.109375 
Q 29.296875 66.109375 22.65625 58.46875 
Q 16.015625 50.828125 16.015625 36.375 
Q 16.015625 21.96875 22.65625 14.328125 
Q 29.296875 6.6875 41.796875 6.6875 
Q 48.140625 6.6875 53.78125 8.984375 
Q 59.421875 11.28125 64.40625 15.921875 
L 64.40625 5.609375 
Q 59.234375 2.09375 53.4375 0.328125 
Q 47.65625 -1.421875 41.21875 -1.421875 
Q 24.65625 -1.421875 15.125 8.703125 
Q 5.609375 18.84375 5.609375 36.375 
Q 5.609375 53.953125 15.125 64.078125 
Q 24.65625 74.21875 41.21875 74.21875 
Q 47.75 74.21875 53.53125 72.484375 
Q 59.328125 70.75 64.40625 67.28125 
" id="DejaVuSans-43"/>
      <path d="M 30.609375 48.390625 
Q 23.390625 48.390625 19.1875 42.75 
Q 14.984375 37.109375 14.984375 27.296875 
Q 14.984375 17.484375 19.15625 11.84375 
Q 23.34375 6.203125 30.609375 6.203125 
Q 37.796875 6.203125 41.984375 11.859375 
Q 46.1875 17.53125 46.1875 27.296875 
Q 46.1875 37.015625 41.984375 42.703125 
Q 37.796875 48.390625 30.609375 48.390625 
M 30.609375 56 
Q 42.328125 56 49.015625 48.375 
Q 55.71875 40.765625 55.71875 27.296875 
Q 55.71875 13.875 49.015625 6.21875 
Q 42.328125 -1.421875 30.609375 -1.421875 
Q 18.84375 -1.421875 12.171875 6.21875 
Q 5.515625 13.875 5.515625 27.296875 
Q 5.515625 40.765625 12.171875 48.375 
Q 18.84375 56 30.609375 56 
" id="DejaVuSans-6f"/>
      <path d="M 54.890625 33.015625 
L 54.890625 0 
L 45.90625 0 
L 45.90625 32.71875 
Q 45.90625 40.484375 42.875 44.328125 
Q 39.84375 48.1875 33.796875 48.1875 
Q 26.515625 48.1875 22.3125 43.546875 
Q 18.109375 38.921875 18.109375 30.90625 
L 18.109375 0 
L 9.078125 0 
L 9.078125 54.6875 
L 18.109375 54.6875 
L 18.109375 46.1875 
Q 21.34375 51.125 25.703125 53.5625 
Q 30.078125 56 35.796875 56 
Q 45.21875 56 50.046875 50.171875 
Q 54.890625 44.34375 54.890625 33.015625 
" id="DejaVuSans-6e"/>
      <path d="M 45.40625 46.390625 
L 45.40625 75.984375 
L 54.390625 75.984375 
L 54.390625 0 
L 45.40625 0 
L 45.40625 8.203125 
Q 42.578125 3.328125 38.25 0.953125 
Q 33.9375 -1.421875 27.875 -1.421875 
Q 17.96875 -1.421875 11.734375 6.484375 
Q 5.515625 14.40625 5.515625 27.296875 
Q 5.515625 40.1875 11.734375 48.09375 
Q 17.96875 56 27.875 56 
Q 33.9375 56 38.25 53.625 
Q 42.578125 51.265625 45.40625 46.390625 
M 14.796875 27.296875 
Q 14.796875 17.390625 18.875 11.75 
Q 22.953125 6.109375 30.078125 6.109375 
Q 37.203125 6.109375 41.296875 11.75 
Q 45.40625 17.390625 45.40625 27.296875 
Q 45.40625 37.203125 41.296875 42.84375 
Q 37.203125 48.484375 30.078125 48.484375 
Q 22.953125 48.484375 18.875 42.84375 
Q 14.796875 37.203125 14.796875 27.296875 
" id="DejaVuSans-64"/>
      <path d="M 8.5 21.578125 
L 8.5 54.6875 
L 17.484375 54.6875 
L 17.484375 21.921875 
Q 17.484375 14.15625 20.5 10.265625 
Q 23.53125 6.390625 29.59375 6.390625 
Q 36.859375 6.390625 41.078125 11.03125 
Q 45.3125 15.671875 45.3125 23.6875 
L 45.3125 54.6875 
L 54.296875 54.6875 
L 54.296875 0 
L 45.3125 0 
L 45.3125 8.40625 
Q 42.046875 3.421875 37.71875 1 
Q 33.40625 -1.421875 27.6875 -1.421875 
Q 18.265625 -1.421875 13.375 4.4375 
Q 8.5 10.296875 8.5 21.578125 
M 31.109375 56 
z
" id="DejaVuSans-75"/>
      <path d="M 48.78125 52.59375 
L 48.78125 44.1875 
Q 44.96875 46.296875 41.140625 47.34375 
Q 37.3125 48.390625 33.40625 48.390625 
Q 24.65625 48.390625 19.8125 42.84375 
Q 14.984375 37.3125 14.984375 27.296875 
Q 14.984375 17.28125 19.8125 11.734375 
Q 24.65625 6.203125 33.40625 6.203125 
Q 37.3125 6.203125 41.140625 7.25 
Q 44.96875 8.296875 48.78125 10.40625 
L 48.78125 2.09375 
Q 45.015625 0.34375 40.984375 -0.53125 
Q 36.96875 -1.421875 32.421875 -1.421875 
Q 20.0625 -1.421875 12.78125 6.34375 
Q 5.515625 14.109375 5.515625 27.296875 
Q 5.515625 40.671875 12.859375 48.328125 
Q 20.21875 56 33.015625 56 
Q 37.15625 56 41.109375 55.140625 
Q 45.0625 54.296875 48.78125 52.59375 
" id="DejaVuSans-63"/>
      <path d="M 18.3125 70.21875 
L 18.3125 54.6875 
L 36.8125 54.6875 
L 36.8125 47.703125 
L 18.3125 47.703125 
L 18.3125 18.015625 
Q 18.3125 11.328125 20.140625 9.421875 
Q 21.96875 7.515625 27.59375 7.515625 
L 36.8125 7.515625 
L 36.8125 0 
L 27.59375 0 
Q 17.1875 0 13.234375 3.875 
Q 9.28125 7.765625 9.28125 18.015625 
L 9.28125 47.703125 
L 2.6875 47.703125 
L 2.6875 54.6875 
L 9.28125 54.6875 
L 9.28125 70.21875 
z
" id="DejaVuSans-74"/>
      <path d="M 34.28125 27.484375 
Q 23.390625 27.484375 19.1875 25 
Q 14.984375 22.515625 14.984375 16.5 
Q 14.984375 11.71875 18.140625 8.90625 
Q 21.296875 6.109375 26.703125 6.109375 
Q 34.1875 6.109375 38.703125 11.40625 
Q 43.21875 16.703125 43.21875 25.484375 
L 43.21875 27.484375 
z
M 52.203125 31.203125 
L 52.203125 0 
L 43.21875 0 
L 43.21875 8.296875 
Q 40.140625 3.328125 35.546875 0.953125 
Q 30.953125 -1.421875 24.3125 -1.421875 
Q 15.921875 -1.421875 10.953125 3.296875 
Q 6 8.015625 6 15.921875 
Q 6 25.140625 12.171875 29.828125 
Q 18.359375 34.515625 30.609375 34.515625 
L 43.21875 34.515625 
L 43.21875 35.40625 
Q 43.21875 41.609375 39.140625 45 
Q 35.0625 48.390625 27.6875 48.390625 
Q 23 48.390625 18.546875 47.265625 
Q 14.109375 46.140625 10.015625 43.890625 
L 10.015625 52.203125 
Q 14.9375 54.109375 19.578125 55.046875 
Q 24.21875 56 28.609375 56 
Q 40.484375 56 46.34375 49.84375 
Q 52.203125 43.703125 52.203125 31.203125 
" id="DejaVuSans-61"/>
      <path d="M 56.203125 29.59375 
L 56.203125 25.203125 
L 14.890625 25.203125 
Q 15.484375 15.921875 20.484375 11.0625 
Q 25.484375 6.203125 34.421875 6.203125 
Q 39.59375 6.203125 44.453125 7.46875 
Q 49.3125 8.734375 54.109375 11.28125 
L 54.109375 2.78125 
Q 49.265625 0.734375 44.1875 -0.34375 
Q 39.109375 -1.421875 33.890625 -1.421875 
Q 20.796875 -1.421875 13.15625 6.1875 
Q 5.515625 13.8125 5.515625 26.8125 
Q 5.515625 40.234375 12.765625 48.109375 
Q 20.015625 56 32.328125 56 
Q 43.359375 56 49.78125 48.890625 
Q 56.203125 41.796875 56.203125 29.59375 
M 47.21875 32.234375 
Q 47.125 39.59375 43.09375 43.984375 
Q 39.0625 48.390625 32.421875 48.390625 
Q 24.90625 48.390625 20.390625 44.140625 
Q 15.875 39.890625 15.1875 32.171875 
z
" id="DejaVuSans-65"/>
      <path id="DejaVuSans-20"/>
      <path d="M 8.59375 75.984375 
L 29.296875 75.984375 
L 29.296875 69 
L 17.578125 69 
L 17.578125 -6.203125 
L 29.296875 -6.203125 
L 29.296875 -13.1875 
L 8.59375 -13.1875 
z
" id="DejaVuSans-5b"/>
      <path d="M 25.390625 72.90625 
L 33.6875 72.90625 
L 8.296875 -9.28125 
L 0 -9.28125 
z
" id="DejaVuSans-2f"/>
      <path d="M 56.78125 33.015625 
L 50.390625 0 
L 41.40625 0 
L 47.75 32.71875 
Q 48.34375 35.796875 48.34375 38.28125 
Q 48.34375 42 46.96875 44.34375 
Q 44.734375 48.1875 38.671875 48.1875 
Q 31.390625 48.1875 26.265625 43.5625 
Q 21.1875 38.921875 19.625 30.90625 
L 13.625 0 
L 4.59375 0 
L 16.65625 62.015625 
L 10.546875 62.015625 
L 12.109375 70.015625 
L 18.21875 70.015625 
L 19.34375 75.984375 
L 28.375 75.984375 
L 27.25 70.015625 
L 44.4375 70.015625 
L 42.875 62.015625 
L 25.6875 62.015625 
L 22.609375 46.1875 
Q 26.765625 51.125 31.640625 53.5625 
Q 36.421875 56 42.1875 56 
Q 51.5625 56 55.28125 50.203125 
Q 57.625 46.484375 57.625 40.71875 
Q 57.625 37.203125 56.78125 33.015625 
" id="DejaVuSans-Oblique-127"/>
      <path d="M 30.421875 75.984375 
L 30.421875 -13.1875 
L 9.71875 -13.1875 
L 9.71875 -6.203125 
L 21.390625 -6.203125 
L 21.390625 69 
L 9.71875 69 
L 9.71875 75.984375 
z
" id="DejaVuSans-5d"/>
     </defs>
     <g transform="translate(52.557812 193.03)rotate(-90)scale(0.1 -0.1)">
      <use transform="translate(0 0.015625)" xlink:href="#DejaVuSans-43"/>
      <use transform="translate(69.824219 0.015625)" xlink:href="#DejaVuSans-6f"/>
      <use transform="translate(131.005859 0.015625)" xlink:href="#DejaVuSans-6e"/>
      <use transform="translate(194.384766 0.015625)" xlink:href="#DejaVuSans-64"/>
      <use transform="translate(257.861328 0.015625)" xlink:href="#DejaVuSans-75"/>
      <use transform="translate(321.240234 0.015625)" xlink:href="#DejaVuSans-63"/>
      <use transform="translate(376.220703 0.015625)" xlink:href="#DejaVuSans-74"/>
      <use transform="translate(415.429688 0.015625)" xlink:href="#DejaVuSans-61"/>
      <use transform="translate(476.708984 0.015625)" xlink:href="#DejaVuSans-6e"/>
      <use transform="translate(540.087891 0.015625)" xlink:href="#DejaVuSans-63"/>
      <use transform="translate(595.068359 0.015625)" xlink:href="#DejaVuSans-65"/>
      <use transform="translate(656.591797 0.015625)" xlink:href="#DejaVuSans-20"/>
      <use transform="translate(688.378906 0.015625)" xlink:href="#DejaVuSans-5b"/>
      <use transform="translate(727.392578 0.015625)" xlink:href="#DejaVuSans-32"/>
      <use transform="translate(791.015625 0.015625)" xlink:href="#DejaVuSans-65"/>
      <use transform="translate(852.539062 0.015625)" xlink:href="#DejaVuSans-2f"/>
      <use transform="translate(886.230469 0.015625)" xlink:href="#DejaVuSans-Oblique-127"/>
      <use transform="translate(955.712891 0.015625)" xlink:href="#DejaVuSans-5d"/>
     </g>
    </g>
   </g>
   <g id="line2d_12">
    <path clip-path="url(#p859bdd1da7)" d="M 92.290909 235.017753 
L 96.390083 236.542481 
L 100.489256 227.620386 
L 104.58843 231.800547 
L 108.687603 228.931502 
L 112.786777 228.810338 
L 116.88595 227.711839 
L 120.985124 220.362537 
L 125.084298 228.034997 
L 129.183471 235.309312 
L 133.282645 234.070801 
L 137.381818 233.533449 
L 141.480992 233.23453 
L 145.580165 233.026455 
L 149.679339 232.832318 
L 153.778512 232.552875 
L 157.877686 231.890046 
L 161.97686 235.540082 
L 166.076033 233.895664 
L 170.175207 233.56987 
L 174.27438 233.438299 
L 178.373554 233.370663 
L 182.472727 233.331673 
L 186.571901 233.307337 
L 190.671074 233.290511 
L 194.770248 233.276611 
L 198.869421 233.261876 
L 202.968595 233.242332 
L 207.067769 233.212739 
L 211.166942 233.1649 
L 215.266116 233.084108 
L 219.365289 232.940214 
L 223.464463 232.660725 
L 227.563636 232.028389 
L 231.66281 230.148101 
L 235.761983 223.71836 
L 239.861157 230.167282 
L 243.960331 233.433226 
L 248.059504 234.00952 
L 252.158678 234.176417 
L 256.257851 234.251154 
L 260.357025 234.300516 
L 264.456198 234.343177 
L 268.555372 234.385312 
L 272.654545 234.429167 
L 276.753719 234.475597 
L 280.852893 234.52493 
L 284.952066 234.577291 
L 289.05124 234.632738 
L 293.150413 234.69131 
L 297.249587 234.753055 
L 301.34876 234.818043 
L 305.447934 234.886362 
L 309.547107 234.958129 
L 313.646281 235.033484 
L 317.745455 235.112594 
L 321.844628 235.195656 
L 325.943802 235.28289 
L 330.042975 235.374552 
L 334.142149 235.470924 
L 338.241322 235.572325 
L 342.340496 235.679111 
L 346.439669 235.791677 
L 350.538843 235.910463 
L 354.638017 236.035955 
L 358.73719 236.168694 
L 362.836364 236.309278 
L 366.935537 236.45837 
L 371.034711 236.616702 
L 375.133884 236.785085 
L 379.233058 236.96441 
L 383.332231 237.155661 
L 387.431405 237.359911 
L 391.530579 237.578328 
L 395.629752 237.81217 
L 399.728926 238.06277 
L 403.828099 238.331504 
L 407.927273 238.619737 
L 412.026446 238.928722 
L 416.12562 239.259424 
L 420.224793 239.612233 
L 424.323967 239.986467 
L 428.42314 240.379547 
L 432.522314 240.785601 
L 436.621488 241.19309 
L 440.720661 241.580752 
L 444.819835 241.910651 
L 448.919008 242.116364 
L 453.018182 242.083441 
L 457.117355 241.619687 
L 461.216529 240.419519 
L 465.315702 238.055252 
L 469.414876 234.116826 
L 473.51405 227.448139 
L 477.613223 221.084838 
L 481.712397 214.3401 
L 485.81157 208.908365 
L 489.910744 205.419472 
L 494.009917 203.901017 
L 498.109091 203.93676 
" style="fill:none;stroke:#1f77b4;stroke-linecap:square;stroke-width:1.5;"/>
   </g>
   <g id="line2d_13">
    <path clip-path="url(#p859bdd1da7)" d="M 92.290909 206.962334 
L 96.390083 205.268306 
L 100.489256 202.503406 
L 104.58843 198.452823 
L 108.687603 205.906197 
L 112.786777 207.227334 
L 116.88595 207.073521 
L 120.985124 209.722788 
L 125.084298 210.827335 
L 129.183471 211.151483 
L 133.282645 211.235225 
L 137.381818 211.250663 
L 141.480992 211.252874 
L 145.580165 211.260131 
L 149.679339 211.278215 
L 153.778512 211.308418 
L 157.877686 211.350421 
L 161.97686 211.403381 
L 166.076033 211.46635 
L 170.175207 211.538442 
L 174.27438 211.618883 
L 178.373554 211.707025 
L 182.472727 211.802335 
L 186.571901 211.904385 
L 190.671074 212.012841 
L 194.770248 212.127447 
L 198.869421 212.248016 
L 202.968595 212.374419 
L 207.067769 212.506583 
L 211.166942 212.644476 
L 215.266116 212.78811 
L 219.365289 212.937532 
L 223.464463 213.092823 
L 227.563636 213.254093 
L 231.66281 213.421482 
L 235.761983 213.595154 
L 239.861157 213.775298 
L 243.960331 213.962125 
L 248.059504 214.15587 
L 252.158678 214.356785 
L 256.257851 214.565141 
L 260.357025 214.781226 
L 264.456198 215.005342 
L 268.555372 215.237804 
L 272.654545 215.478937 
L 276.753719 215.729068 
L 280.852893 215.988529 
L 284.952066 216.257648 
L 289.05124 216.536739 
L 293.150413 216.826104 
L 297.249587 217.126015 
L 301.34876 217.43671 
L 305.447934 217.758382 
L 309.547107 218.091172 
L 313.646281 218.435159 
L 317.745455 218.790364 
L 321.844628 219.156758 
L 325.943802 219.534291 
L 330.042975 219.92296 
L 334.142149 220.32292 
L 338.241322 220.734684 
L 342.340496 221.15945 
L 346.439669 221.599605 
L 350.538843 222.059485 
L 354.638017 222.546465 
L 358.73719 223.072404 
L 362.836364 223.655376 
L 366.935537 224.321349 
L 371.034711 225.104929 
L 375.133884 226.047518 
L 379.233058 227.190312 
L 383.332231 228.559378 
L 387.431405 230.142098 
L 391.530579 231.86011 
L 395.629752 233.552273 
L 399.728926 234.985159 
L 403.828099 235.898994 
L 407.927273 236.074726 
L 412.026446 235.390565 
L 416.12562 233.841721 
L 420.224793 231.520988 
L 424.323967 228.578723 
L 428.42314 225.184807 
L 432.522314 221.505976 
L 436.621488 217.702696 
L 440.720661 213.951982 
L 444.819835 202.618315 
L 448.919008 205.25035 
L 453.018182 201.991493 
L 457.117355 198.661392 
L 461.216529 195.439369 
L 465.315702 192.366809 
L 469.414876 189.485773 
L 473.51405 186.863688 
L 477.613223 184.589387 
L 481.712397 182.749631 
L 485.81157 181.396798 
L 489.910744 180.522546 
L 494.009917 180.047773 
L 498.109091 179.82894 
" style="fill:none;stroke:#ff7f0e;stroke-linecap:square;stroke-width:1.5;"/>
   </g>
   <g id="line2d_14">
    <path clip-path="url(#p859bdd1da7)" d="M 92.290909 184.145166 
L 96.390083 185.477783 
L 100.489256 186.458075 
L 104.58843 187.23655 
L 108.687603 187.893287 
L 112.786777 188.473059 
L 116.88595 189.002357 
L 120.985124 189.497693 
L 125.084298 189.969851 
L 129.183471 190.426166 
L 133.282645 190.871824 
L 137.381818 191.310613 
L 141.480992 191.745392 
L 145.580165 192.178388 
L 149.679339 192.611386 
L 153.778512 193.045858 
L 157.877686 193.483054 
L 161.97686 193.924061 
L 166.076033 194.369848 
L 170.175207 194.821299 
L 174.27438 195.27924 
L 178.373554 195.74445 
L 182.472727 196.217682 
L 186.571901 196.699669 
L 190.671074 197.191134 
L 194.770248 197.692799 
L 198.869421 198.205387 
L 202.968595 198.729624 
L 207.067769 199.266251 
L 211.166942 199.816015 
L 215.266116 200.37968 
L 219.365289 200.958021 
L 223.464463 201.551827 
L 227.563636 202.161898 
L 231.66281 202.789046 
L 235.761983 203.434085 
L 239.861157 204.097829 
L 243.960331 204.781085 
L 248.059504 205.484641 
L 252.158678 206.209251 
L 256.257851 206.955619 
L 260.357025 207.72438 
L 264.456198 208.516062 
L 268.555372 209.331061 
L 272.654545 210.169588 
L 276.753719 211.031615 
L 280.852893 211.916802 
L 284.952066 212.824412 
L 289.05124 213.753196 
L 293.150413 214.701263 
L 297.249587 215.665901 
L 301.34876 216.643376 
L 305.447934 217.628668 
L 309.547107 218.615151 
L 313.646281 219.594203 
L 317.745455 220.554714 
L 321.844628 221.482498 
L 325.943802 222.359567 
L 330.042975 223.163272 
L 334.142149 223.865297 
L 338.241322 224.430597 
L 342.340496 224.816419 
L 346.439669 224.971827 
L 350.538843 224.838469 
L 354.638017 224.353747 
L 358.73719 223.45773 
L 362.836364 222.104335 
L 366.935537 220.274797 
L 371.034711 217.987761 
L 375.133884 215.2986 
L 379.233058 212.284703 
L 383.332231 209.022224 
L 387.431405 205.564698 
L 391.530579 201.92841 
L 395.629752 198.07341 
L 399.728926 193.828846 
L 403.828099 188.498891 
L 407.927273 178.961393 
L 412.026446 177.107226 
L 416.12562 178.938468 
L 420.224793 176.294098 
L 424.323967 172.929269 
L 428.42314 169.479513 
L 432.522314 166.100699 
L 436.621488 162.851091 
L 440.720661 159.758819 
L 444.819835 156.839369 
L 448.919008 154.102319 
L 453.018182 151.554932 
L 457.117355 149.20421 
L 461.216529 147.057699 
L 465.315702 145.12315 
L 469.414876 143.407273 
L 473.51405 141.914 
L 477.613223 140.642779 
L 481.712397 139.58735 
L 485.81157 138.735323 
L 489.910744 138.068652 
L 494.009917 137.564916 
L 498.109091 137.19924 
" style="fill:none;stroke:#2ca02c;stroke-linecap:square;stroke-width:1.5;"/>
   </g>
   <g id="line2d_15">
    <path clip-path="url(#p859bdd1da7)" d="M 92.290909 159.091679 
L 96.390083 159.884383 
L 100.489256 160.685523 
L 104.58843 161.496403 
L 108.687603 162.318204 
L 112.786777 163.152013 
L 116.88595 163.998855 
L 120.985124 164.859712 
L 125.084298 165.735531 
L 129.183471 166.627237 
L 133.282645 167.535736 
L 137.381818 168.461917 
L 141.480992 169.406647 
L 145.580165 170.370769 
L 149.679339 171.355086 
L 153.778512 172.36035 
L 157.877686 173.387234 
L 161.97686 174.436302 
L 166.076033 175.507964 
L 170.175207 176.602414 
L 174.27438 177.719543 
L 178.373554 178.858829 
L 182.472727 180.019178 
L 186.571901 181.198711 
L 190.671074 182.394482 
L 194.770248 183.60209 
L 198.869421 184.81517 
L 202.968595 186.024739 
L 207.067769 187.218361 
L 211.166942 188.379173 
L 215.266116 189.484849 
L 219.365289 190.506741 
L 223.464463 191.409709 
L 227.563636 192.153489 
L 231.66281 192.69682 
L 235.761983 193.00555 
L 239.861157 193.064859 
L 243.960331 192.893043 
L 248.059504 192.550582 
L 252.158678 192.136553 
L 256.257851 191.768887 
L 260.357025 191.554851 
L 264.456198 191.565515 
L 268.555372 191.825308 
L 272.654545 192.317557 
L 276.753719 192.99881 
L 280.852893 193.813665 
L 284.952066 194.705478 
L 289.05124 195.622107 
L 293.150413 196.51788 
L 297.249587 197.353308 
L 301.34876 198.093737 
L 305.447934 198.70765 
L 309.547107 199.164948 
L 313.646281 199.43534 
L 317.745455 199.486825 
L 321.844628 199.284214 
L 325.943802 198.787535 
L 330.042975 197.950109 
L 334.142149 196.715887 
L 338.241322 195.01549 
L 342.340496 192.760522 
L 346.439669 189.837996 
L 350.538843 186.11852 
L 354.638017 181.538169 
L 358.73719 176.42553 
L 362.836364 172.086337 
L 366.935537 170.033233 
L 371.034711 169.306123 
L 375.133884 167.822797 
L 379.233058 165.015416 
L 383.332231 161.219909 
L 387.431405 156.841364 
L 391.530579 152.173524 
L 395.629752 147.417124 
L 399.728926 142.711012 
L 403.828099 138.150725 
L 407.927273 133.798957 
L 412.026446 129.692669 
L 416.12562 125.848977 
L 420.224793 122.270358 
L 424.323967 118.949126 
L 428.42314 115.871087 
L 432.522314 113.018316 
L 436.621488 110.371156 
L 440.720661 107.909587 
L 444.819835 105.614111 
L 448.919008 103.466349 
L 453.018182 101.449467 
L 457.117355 99.548576 
L 461.216529 97.75117 
L 465.315702 96.047648 
L 469.414876 94.431911 
L 473.51405 92.901947 
L 477.613223 91.460253 
L 481.712397 90.113913 
L 485.81157 88.874109 
L 489.910744 87.754948 
L 494.009917 86.771619 
L 498.109091 85.938116 
" style="fill:none;stroke:#d62728;stroke-linecap:square;stroke-width:1.5;"/>
   </g>
   <g id="line2d_16">
    <path clip-path="url(#p859bdd1da7)" d="M 92.290909 138.653761 
L 96.390083 141.103854 
L 100.489256 143.661064 
L 104.58843 146.238111 
L 108.687603 148.710958 
L 112.786777 150.939429 
L 116.88595 152.805109 
L 120.985124 154.250267 
L 125.084298 155.294869 
L 129.183471 156.021963 
L 133.282645 156.543485 
L 137.381818 156.967305 
L 141.480992 157.378104 
L 145.580165 157.832447 
L 149.679339 158.362374 
L 153.778512 158.981935 
L 157.877686 159.69341 
L 161.97686 160.492068 
L 166.076033 161.369364 
L 170.175207 162.31491 
L 174.27438 163.317601 
L 178.373554 164.366199 
L 182.472727 165.449595 
L 186.571901 166.556892 
L 190.671074 167.677386 
L 194.770248 168.80052 
L 198.869421 169.915817 
L 202.968595 171.012826 
L 207.067769 172.081099 
L 211.166942 173.110184 
L 215.266116 174.089653 
L 219.365289 175.009168 
L 223.464463 175.858569 
L 227.563636 176.627992 
L 231.66281 177.307995 
L 235.761983 177.8897 
L 239.861157 178.364916 
L 243.960331 178.726236 
L 248.059504 178.967103 
L 252.158678 179.081833 
L 256.257851 179.065597 
L 260.357025 178.914424 
L 264.456198 178.625258 
L 268.555372 178.196224 
L 272.654545 177.627249 
L 276.753719 176.921283 
L 280.852893 176.086292 
L 284.952066 175.138056 
L 289.05124 174.10316 
L 293.150413 173.020434 
L 297.249587 171.937366 
L 301.34876 170.897163 
L 305.447934 169.914859 
L 309.547107 168.949576 
L 313.646281 167.890066 
L 317.745455 166.569585 
L 321.844628 164.807958 
L 325.943802 162.458952 
L 330.042975 159.440306 
L 334.142149 155.739472 
L 338.241322 151.402458 
L 342.340496 146.516632 
L 346.439669 141.194644 
L 350.538843 135.561859 
L 354.638017 129.746754 
L 358.73719 123.873016 
L 362.836364 118.052627 
L 366.935537 112.380214 
L 371.034711 106.929361 
L 375.133884 101.751411 
L 379.233058 96.876669 
L 383.332231 92.3174 
L 387.431405 88.071762 
L 391.530579 84.127892 
L 395.629752 80.467614 
L 399.728926 77.06948 
L 403.828099 73.911108 
L 407.927273 70.970852 
L 412.026446 68.228938 
L 416.12562 65.668184 
L 420.224793 63.274396 
L 424.323967 61.036518 
L 428.42314 58.946593 
L 432.522314 56.999544 
L 436.621488 55.192813 
L 440.720661 53.525866 
L 444.819835 51.999588 
L 448.919008 50.615626 
L 453.018182 49.375703 
L 457.117355 48.280995 
L 461.216529 47.331599 
L 465.315702 46.526158 
L 469.414876 45.861671 
L 473.51405 45.333472 
L 477.613223 44.935385 
L 481.712397 44.659996 
L 485.81157 44.499011 
L 489.910744 44.443636 
L 494.009917 44.484961 
L 498.109091 44.614287 
" style="fill:none;stroke:#9467bd;stroke-linecap:square;stroke-width:1.5;"/>
   </g>
   <g id="patch_3">
    <path d="M 72 252 
L 72 34.56 
" style="fill:none;stroke:#000000;stroke-linecap:square;stroke-linejoin:miter;stroke-width:0.8;"/>
   </g>
   <g id="patch_4">
    <path d="M 518.4 252 
L 518.4 34.56 
" style="fill:none;stroke:#000000;stroke-linecap:square;stroke-linejoin:miter;stroke-width:0.8;"/>
   </g>
   <g id="patch_5">
    <path d="M 72 252 
L 518.4 252 
" style="fill:none;stroke:#000000;stroke-linecap:square;stroke-linejoin:miter;stroke-width:0.8;"/>
   </g>
   <g id="patch_6">
    <path d="M 72 34.56 
L 518.4 34.56 
" style="fill:none;stroke:#000000;stroke-linecap:square;stroke-linejoin:miter;stroke-width:0.8;"/>
   </g>
   <g id="legend_1">
    <g id="patch_7">
     <path d="M 79 116.052188 
L 156.3 116.052188 
Q 158.3 116.052188 158.3 114.052188 
L 158.3 41.56 
Q 158.3 39.56 156.3 39.56 
L 79 39.56 
Q 77 39.56 77 41.56 
L 77 114.052188 
Q 77 116.052188 79 116.052188 
z
" style="fill:#ffffff;opacity:0.8;stroke:#cccccc;stroke-linejoin:miter;"/>
    </g>
    <g id="line2d_17">
     <path d="M 81 47.658437 
L 101 47.658437 
" style="fill:none;stroke:#1f77b4;stroke-linecap:square;stroke-width:1.5;"/>
    </g>
    <g id="line2d_18"/>
    <g id="text_14">
     <!-- $\varphi_{BG} = 0.1$ -->
     <defs>
      <path d="M 16.890625 72.90625 
L 42.09375 72.90625 
Q 52.34375 72.90625 57.421875 69.09375 
Q 62.5 65.28125 62.5 57.625 
Q 62.5 50.59375 58.125 45.484375 
Q 53.765625 40.375 46.6875 39.3125 
Q 52.734375 37.9375 55.765625 34.078125 
Q 58.796875 30.21875 58.796875 23.78125 
Q 58.796875 12.796875 50.65625 6.390625 
Q 42.53125 0 28.421875 0 
L 2.6875 0 
z
M 19.28125 34.8125 
L 14.109375 8.109375 
L 29.984375 8.109375 
Q 38.921875 8.109375 43.75 12.203125 
Q 48.578125 16.3125 48.578125 23.78125 
Q 48.578125 29.546875 45.375 32.171875 
Q 42.1875 34.8125 35.109375 34.8125 
z
M 25.09375 64.796875 
L 20.796875 42.828125 
L 35.5 42.828125 
Q 43.359375 42.828125 47.78125 46.234375 
Q 52.203125 49.65625 52.203125 55.71875 
Q 52.203125 60.453125 49.21875 62.625 
Q 46.234375 64.796875 39.703125 64.796875 
z
" id="DejaVuSans-Oblique-42"/>
      <path d="M 10.59375 45.40625 
L 73.1875 45.40625 
L 73.1875 37.203125 
L 10.59375 37.203125 
z
M 10.59375 25.484375 
L 73.1875 25.484375 
L 73.1875 17.1875 
L 10.59375 17.1875 
z
" id="DejaVuSans-3d"/>
      <path d="M 10.6875 12.40625 
L 21 12.40625 
L 21 0 
L 10.6875 0 
z
" id="DejaVuSans-2e"/>
     </defs>
     <g transform="translate(109 51.158437)scale(0.1 -0.1)">
      <use transform="translate(0 0.78125)" xlink:href="#DejaVuSans-Oblique-3c6"/>
      <use transform="translate(65.966797 -15.625)scale(0.7)" xlink:href="#DejaVuSans-Oblique-42"/>
      <use transform="translate(113.989258 -15.625)scale(0.7)" xlink:href="#DejaVuSans-Oblique-47"/>
      <use transform="translate(190.449219 0.78125)" xlink:href="#DejaVuSans-3d"/>
      <use transform="translate(293.720703 0.78125)" xlink:href="#DejaVuSans-30"/>
      <use transform="translate(357.34375 0.78125)" xlink:href="#DejaVuSans-2e"/>
      <use transform="translate(389.130859 0.78125)" xlink:href="#DejaVuSans-31"/>
     </g>
    </g>
    <g id="line2d_19">
     <path d="M 81 62.356875 
L 101 62.356875 
" style="fill:none;stroke:#ff7f0e;stroke-linecap:square;stroke-width:1.5;"/>
    </g>
    <g id="line2d_20"/>
    <g id="text_15">
     <!-- $\varphi_{BG} = 0.2$ -->
     <g transform="translate(109 65.856875)scale(0.1 -0.1)">
      <use transform="translate(0 0.78125)" xlink:href="#DejaVuSans-Oblique-3c6"/>
      <use transform="translate(65.966797 -15.625)scale(0.7)" xlink:href="#DejaVuSans-Oblique-42"/>
      <use transform="translate(113.989258 -15.625)scale(0.7)" xlink:href="#DejaVuSans-Oblique-47"/>
      <use transform="translate(190.449219 0.78125)" xlink:href="#DejaVuSans-3d"/>
      <use transform="translate(293.720703 0.78125)" xlink:href="#DejaVuSans-30"/>
      <use transform="translate(357.34375 0.78125)" xlink:href="#DejaVuSans-2e"/>
      <use transform="translate(389.052734 0.78125)" xlink:href="#DejaVuSans-32"/>
     </g>
    </g>
    <g id="line2d_21">
     <path d="M 81 77.055312 
L 101 77.055312 
" style="fill:none;stroke:#2ca02c;stroke-linecap:square;stroke-width:1.5;"/>
    </g>
    <g id="line2d_22"/>
    <g id="text_16">
     <!-- $\varphi_{BG} = 0.3$ -->
     <defs>
      <path d="M 40.578125 39.3125 
Q 47.65625 37.796875 51.625 33 
Q 55.609375 28.21875 55.609375 21.1875 
Q 55.609375 10.40625 48.1875 4.484375 
Q 40.765625 -1.421875 27.09375 -1.421875 
Q 22.515625 -1.421875 17.65625 -0.515625 
Q 12.796875 0.390625 7.625 2.203125 
L 7.625 11.71875 
Q 11.71875 9.328125 16.59375 8.109375 
Q 21.484375 6.890625 26.8125 6.890625 
Q 36.078125 6.890625 40.9375 10.546875 
Q 45.796875 14.203125 45.796875 21.1875 
Q 45.796875 27.640625 41.28125 31.265625 
Q 36.765625 34.90625 28.71875 34.90625 
L 20.21875 34.90625 
L 20.21875 43.015625 
L 29.109375 43.015625 
Q 36.375 43.015625 40.234375 45.921875 
Q 44.09375 48.828125 44.09375 54.296875 
Q 44.09375 59.90625 40.109375 62.90625 
Q 36.140625 65.921875 28.71875 65.921875 
Q 24.65625 65.921875 20.015625 65.03125 
Q 15.375 64.15625 9.8125 62.3125 
L 9.8125 71.09375 
Q 15.4375 72.65625 20.34375 73.4375 
Q 25.25 74.21875 29.59375 74.21875 
Q 40.828125 74.21875 47.359375 69.109375 
Q 53.90625 64.015625 53.90625 55.328125 
Q 53.90625 49.265625 50.4375 45.09375 
Q 46.96875 40.921875 40.578125 39.3125 
" id="DejaVuSans-33"/>
     </defs>
     <g transform="translate(109 80.555312)scale(0.1 -0.1)">
      <use transform="translate(0 0.78125)" xlink:href="#DejaVuSans-Oblique-3c6"/>
      <use transform="translate(65.966797 -15.625)scale(0.7)" xlink:href="#DejaVuSans-Oblique-42"/>
      <use transform="translate(113.989258 -15.625)scale(0.7)" xlink:href="#DejaVuSans-Oblique-47"/>
      <use transform="translate(190.449219 0.78125)" xlink:href="#DejaVuSans-3d"/>
      <use transform="translate(293.720703 0.78125)" xlink:href="#DejaVuSans-30"/>
      <use transform="translate(357.34375 0.78125)" xlink:href="#DejaVuSans-2e"/>
      <use transform="translate(389.130859 0.78125)" xlink:href="#DejaVuSans-33"/>
     </g>
    </g>
    <g id="line2d_23">
     <path d="M 81 91.75375 
L 101 91.75375 
" style="fill:none;stroke:#d62728;stroke-linecap:square;stroke-width:1.5;"/>
    </g>
    <g id="line2d_24"/>
    <g id="text_17">
     <!-- $\varphi_{BG} = 0.4$ -->
     <g transform="translate(109 95.25375)scale(0.1 -0.1)">
      <use transform="translate(0 0.78125)" xlink:href="#DejaVuSans-Oblique-3c6"/>
      <use transform="translate(65.966797 -15.625)scale(0.7)" xlink:href="#DejaVuSans-Oblique-42"/>
      <use transform="translate(113.989258 -15.625)scale(0.7)" xlink:href="#DejaVuSans-Oblique-47"/>
      <use transform="translate(190.449219 0.78125)" xlink:href="#DejaVuSans-3d"/>
      <use transform="translate(293.720703 0.78125)" xlink:href="#DejaVuSans-30"/>
      <use transform="translate(357.34375 0.78125)" xlink:href="#DejaVuSans-2e"/>
      <use transform="translate(389.130859 0.78125)" xlink:href="#DejaVuSans-34"/>
     </g>
    </g>
    <g id="line2d_25">
     <path d="M 81 106.452187 
L 101 106.452187 
" style="fill:none;stroke:#9467bd;stroke-linecap:square;stroke-width:1.5;"/>
    </g>
    <g id="line2d_26"/>
    <g id="text_18">
     <!-- $\varphi_{BG} = 0.5$ -->
     <defs>
      <path d="M 10.796875 72.90625 
L 49.515625 72.90625 
L 49.515625 64.59375 
L 19.828125 64.59375 
L 19.828125 46.734375 
Q 21.96875 47.46875 24.109375 47.828125 
Q 26.265625 48.1875 28.421875 48.1875 
Q 40.625 48.1875 47.75 41.5 
Q 54.890625 34.8125 54.890625 23.390625 
Q 54.890625 11.625 47.5625 5.09375 
Q 40.234375 -1.421875 26.90625 -1.421875 
Q 22.3125 -1.421875 17.546875 -0.640625 
Q 12.796875 0.140625 7.71875 1.703125 
L 7.71875 11.625 
Q 12.109375 9.234375 16.796875 8.0625 
Q 21.484375 6.890625 26.703125 6.890625 
Q 35.15625 6.890625 40.078125 11.328125 
Q 45.015625 15.765625 45.015625 23.390625 
Q 45.015625 31 40.078125 35.4375 
Q 35.15625 39.890625 26.703125 39.890625 
Q 22.75 39.890625 18.8125 39.015625 
Q 14.890625 38.140625 10.796875 36.28125 
z
" id="DejaVuSans-35"/>
     </defs>
     <g transform="translate(109 109.952187)scale(0.1 -0.1)">
      <use transform="translate(0 0.78125)" xlink:href="#DejaVuSans-Oblique-3c6"/>
      <use transform="translate(65.966797 -15.625)scale(0.7)" xlink:href="#DejaVuSans-Oblique-42"/>
      <use transform="translate(113.989258 -15.625)scale(0.7)" xlink:href="#DejaVuSans-Oblique-47"/>
      <use transform="translate(190.449219 0.78125)" xlink:href="#DejaVuSans-3d"/>
      <use transform="translate(293.720703 0.78125)" xlink:href="#DejaVuSans-30"/>
      <use transform="translate(357.34375 0.78125)" xlink:href="#DejaVuSans-2e"/>
      <use transform="translate(389.130859 0.78125)" xlink:href="#DejaVuSans-35"/>
     </g>
    </g>
   </g>
  </g>
 </g>
 <defs>
  <clipPath id="p859bdd1da7">
   <rect height="217.44" width="446.4" x="72" y="34.56"/>
  </clipPath>
 </defs>
</svg>
