<?xml version="1.0" encoding="UTF-8" standalone="no"?>
<!-- Created with Inkscape (http://www.inkscape.org/) -->

<svg
   xmlns:dc="http://purl.org/dc/elements/1.1/"
   xmlns:cc="http://creativecommons.org/ns#"
   xmlns:rdf="http://www.w3.org/1999/02/22-rdf-syntax-ns#"
   xmlns:svg="http://www.w3.org/2000/svg"
   xmlns="http://www.w3.org/2000/svg"
   xmlns:sodipodi="http://sodipodi.sourceforge.net/DTD/sodipodi-0.dtd"
   xmlns:inkscape="http://www.inkscape.org/namespaces/inkscape"
   id="svg2"
   version="1.1"
   inkscape:version="0.91 r13725"
   xml:space="preserve"
   width="1437.5"
   height="810"
   viewBox="0 0 1437.5 810"
   sodipodi:docname="graphene-lattice-small.svg"><metadata
     id="metadata8"><rdf:RDF><cc:Work
         rdf:about=""><dc:format>image/svg+xml</dc:format><dc:type
           rdf:resource="http://purl.org/dc/dcmitype/StillImage" /><dc:title></dc:title></cc:Work></rdf:RDF></metadata><defs
     id="defs6"><clipPath
       clipPathUnits="userSpaceOnUse"
       id="clipPath22"><path
         d="m 3761,810 0,4893 4238,0 0,-4893 -4238,0 z"
         id="path24"
         inkscape:connector-curvature="0" /></clipPath><clipPath
       clipPathUnits="userSpaceOnUse"
       id="clipPath144"><path
         d="m 3761.72,810 4236.48,0 0,4892.38 -4236.48,0 0,-4892.38 z"
         id="path146"
         inkscape:connector-curvature="0" /></clipPath></defs><sodipodi:namedview
     pagecolor="#ffffff"
     bordercolor="#666666"
     borderopacity="1"
     objecttolerance="10"
     gridtolerance="10"
     guidetolerance="10"
     inkscape:pageopacity="0"
     inkscape:pageshadow="2"
     inkscape:window-width="947"
     inkscape:window-height="480"
     id="namedview4"
     showgrid="false"
     inkscape:zoom="0.29135802"
     inkscape:cx="718.75"
     inkscape:cy="405"
     inkscape:window-x="0"
     inkscape:window-y="27"
     inkscape:window-maximized="0"
     inkscape:current-layer="g10" /><g
     id="g10"
     inkscape:groupmode="layer"
     inkscape:label="ink_ext_XXXXXX"
     transform="matrix(1.25,0,0,-1.25,0,810)"><g
       id="g12"
       transform="scale(0.1,0.1)"><path
         d="m 0,0 11496,0 0,6480 L 0,6480 0,0 Z"
         style="fill:#ffffff;fill-opacity:1;fill-rule:nonzero;stroke:none"
         id="path14"
         inkscape:connector-curvature="0" /><path
         d="m 3761.72,810 4236.48,0 0,4892.38 -4236.48,0 0,-4892.38 z"
         style="fill:#ffffff;fill-opacity:1;fill-rule:nonzero;stroke:none"
         id="path16"
         inkscape:connector-curvature="0" /><g
         id="g18"><g
           id="g20"
           clip-path="url(#clipPath22)"><path
             d="m 3954.65,4367.77 641.8,-370.5"
             style="fill:none;stroke:#000000;stroke-width:74.10540009;stroke-linecap:butt;stroke-linejoin:round;stroke-miterlimit:4;stroke-dasharray:none;stroke-opacity:1"
             id="path26"
             inkscape:connector-curvature="0" /><path
             d="m 3954.65,2144.61 0,741.05"
             style="fill:none;stroke:#000000;stroke-width:74.10540009;stroke-linecap:butt;stroke-linejoin:round;stroke-miterlimit:4;stroke-dasharray:none;stroke-opacity:1"
             id="path28"
             inkscape:connector-curvature="0" /><path
             d="m 3954.65,2144.61 641.8,-370.51"
             style="fill:none;stroke:#000000;stroke-width:74.10540009;stroke-linecap:butt;stroke-linejoin:round;stroke-miterlimit:4;stroke-dasharray:none;stroke-opacity:1"
             id="path30"
             inkscape:connector-curvature="0" /><path
             d="m 5238.2,4367.77 0,741.06"
             style="fill:none;stroke:#000000;stroke-width:74.10540009;stroke-linecap:butt;stroke-linejoin:round;stroke-miterlimit:4;stroke-dasharray:none;stroke-opacity:1"
             id="path32"
             inkscape:connector-curvature="0" /><path
             d="m 5238.2,4367.77 -641.75,-370.5"
             style="fill:none;stroke:#000000;stroke-width:74.10540009;stroke-linecap:butt;stroke-linejoin:round;stroke-miterlimit:4;stroke-dasharray:none;stroke-opacity:1"
             id="path34"
             inkscape:connector-curvature="0" /><path
             d="m 5238.2,4367.77 641.76,-370.5"
             style="fill:none;stroke:#000000;stroke-width:74.10540009;stroke-linecap:butt;stroke-linejoin:round;stroke-miterlimit:4;stroke-dasharray:none;stroke-opacity:1"
             id="path36"
             inkscape:connector-curvature="0" /><path
             d="m 5879.96,3256.21 0,741.06"
             style="fill:none;stroke:#000000;stroke-width:74.10540009;stroke-linecap:butt;stroke-linejoin:round;stroke-miterlimit:4;stroke-dasharray:none;stroke-opacity:1"
             id="path38"
             inkscape:connector-curvature="0" /><path
             d="M 5879.96,3256.21 5238.2,2885.66"
             style="fill:none;stroke:#000000;stroke-width:74.10540009;stroke-linecap:butt;stroke-linejoin:round;stroke-miterlimit:4;stroke-dasharray:none;stroke-opacity:1"
             id="path40"
             inkscape:connector-curvature="0" /><path
             d="m 5879.96,3256.21 641.8,-370.55"
             style="fill:none;stroke:#000000;stroke-width:74.10540009;stroke-linecap:butt;stroke-linejoin:round;stroke-miterlimit:4;stroke-dasharray:none;stroke-opacity:1"
             id="path42"
             inkscape:connector-curvature="0" /><path
             d="M 5879.96,5479.38 5238.2,5108.83"
             style="fill:none;stroke:#000000;stroke-width:74.10540009;stroke-linecap:butt;stroke-linejoin:round;stroke-miterlimit:4;stroke-dasharray:none;stroke-opacity:1"
             id="path44"
             inkscape:connector-curvature="0" /><path
             d="m 5879.96,5479.38 641.8,-370.55"
             style="fill:none;stroke:#000000;stroke-width:74.10540009;stroke-linecap:butt;stroke-linejoin:round;stroke-miterlimit:4;stroke-dasharray:none;stroke-opacity:1"
             id="path46"
             inkscape:connector-curvature="0" /><path
             d="m 4596.45,3256.21 0,741.06"
             style="fill:none;stroke:#000000;stroke-width:74.10540009;stroke-linecap:butt;stroke-linejoin:round;stroke-miterlimit:4;stroke-dasharray:none;stroke-opacity:1"
             id="path48"
             inkscape:connector-curvature="0" /><path
             d="m 4596.45,3256.21 -641.8,-370.55"
             style="fill:none;stroke:#000000;stroke-width:74.10540009;stroke-linecap:butt;stroke-linejoin:round;stroke-miterlimit:4;stroke-dasharray:none;stroke-opacity:1"
             id="path50"
             inkscape:connector-curvature="0" /><path
             d="M 4596.45,3256.21 5238.2,2885.66"
             style="fill:none;stroke:#000000;stroke-width:74.10540009;stroke-linecap:butt;stroke-linejoin:round;stroke-miterlimit:4;stroke-dasharray:none;stroke-opacity:1"
             id="path52"
             inkscape:connector-curvature="0" /><path
             d="M 4596.45,5479.38 5238.2,5108.83"
             style="fill:none;stroke:#000000;stroke-width:74.10540009;stroke-linecap:butt;stroke-linejoin:round;stroke-miterlimit:4;stroke-dasharray:none;stroke-opacity:1"
             id="path54"
             inkscape:connector-curvature="0" /><path
             d="m 5238.2,2144.61 0,741.05"
             style="fill:none;stroke:#000000;stroke-width:74.10540009;stroke-linecap:butt;stroke-linejoin:round;stroke-miterlimit:4;stroke-dasharray:none;stroke-opacity:1"
             id="path56"
             inkscape:connector-curvature="0" /><path
             d="M 5238.2,2144.61 4596.45,1774.1"
             style="fill:none;stroke:#000000;stroke-width:74.10540009;stroke-linecap:butt;stroke-linejoin:round;stroke-miterlimit:4;stroke-dasharray:none;stroke-opacity:1"
             id="path58"
             inkscape:connector-curvature="0" /><path
             d="M 5238.2,2144.61 5879.96,1774.1"
             style="fill:none;stroke:#000000;stroke-width:74.10540009;stroke-linecap:butt;stroke-linejoin:round;stroke-miterlimit:4;stroke-dasharray:none;stroke-opacity:1"
             id="path60"
             inkscape:connector-curvature="0" /><path
             d="m 7163.52,3256.21 0,741.06"
             style="fill:none;stroke:#000000;stroke-width:74.10540009;stroke-linecap:butt;stroke-linejoin:round;stroke-miterlimit:4;stroke-dasharray:none;stroke-opacity:1"
             id="path62"
             inkscape:connector-curvature="0" /><path
             d="M 7163.52,3256.21 6521.76,2885.66"
             style="fill:none;stroke:#000000;stroke-width:74.10540009;stroke-linecap:butt;stroke-linejoin:round;stroke-miterlimit:4;stroke-dasharray:none;stroke-opacity:1"
             id="path64"
             inkscape:connector-curvature="0" /><path
             d="m 7163.52,3256.21 641.75,-370.55"
             style="fill:none;stroke:#000000;stroke-width:74.10540009;stroke-linecap:butt;stroke-linejoin:round;stroke-miterlimit:4;stroke-dasharray:none;stroke-opacity:1"
             id="path66"
             inkscape:connector-curvature="0" /><path
             d="m 6521.76,4367.77 0,741.06"
             style="fill:none;stroke:#000000;stroke-width:74.10540009;stroke-linecap:butt;stroke-linejoin:round;stroke-miterlimit:4;stroke-dasharray:none;stroke-opacity:1"
             id="path68"
             inkscape:connector-curvature="0" /><path
             d="m 6521.76,4367.77 -641.8,-370.5"
             style="fill:none;stroke:#000000;stroke-width:74.10540009;stroke-linecap:butt;stroke-linejoin:round;stroke-miterlimit:4;stroke-dasharray:none;stroke-opacity:1"
             id="path70"
             inkscape:connector-curvature="0" /><path
             d="m 6521.76,4367.77 641.76,-370.5"
             style="fill:none;stroke:#000000;stroke-width:74.10540009;stroke-linecap:butt;stroke-linejoin:round;stroke-miterlimit:4;stroke-dasharray:none;stroke-opacity:1"
             id="path72"
             inkscape:connector-curvature="0" /><path
             d="m 7805.27,4367.77 -641.75,-370.5"
             style="fill:none;stroke:#000000;stroke-width:74.10540009;stroke-linecap:butt;stroke-linejoin:round;stroke-miterlimit:4;stroke-dasharray:none;stroke-opacity:1"
             id="path74"
             inkscape:connector-curvature="0" /><path
             d="m 6521.76,2144.61 0,741.05"
             style="fill:none;stroke:#000000;stroke-width:74.10540009;stroke-linecap:butt;stroke-linejoin:round;stroke-miterlimit:4;stroke-dasharray:none;stroke-opacity:1"
             id="path76"
             inkscape:connector-curvature="0" /><path
             d="M 6521.76,2144.61 5879.96,1774.1"
             style="fill:none;stroke:#000000;stroke-width:74.10540009;stroke-linecap:butt;stroke-linejoin:round;stroke-miterlimit:4;stroke-dasharray:none;stroke-opacity:1"
             id="path78"
             inkscape:connector-curvature="0" /><path
             d="M 6521.76,2144.61 7163.52,1774.1"
             style="fill:none;stroke:#000000;stroke-width:74.10540009;stroke-linecap:butt;stroke-linejoin:round;stroke-miterlimit:4;stroke-dasharray:none;stroke-opacity:1"
             id="path80"
             inkscape:connector-curvature="0" /><path
             d="M 7163.52,5479.38 6521.76,5108.83"
             style="fill:none;stroke:#000000;stroke-width:74.10540009;stroke-linecap:butt;stroke-linejoin:round;stroke-miterlimit:4;stroke-dasharray:none;stroke-opacity:1"
             id="path82"
             inkscape:connector-curvature="0" /><path
             d="m 7805.27,2144.61 0,741.05"
             style="fill:none;stroke:#000000;stroke-width:74.10540009;stroke-linecap:butt;stroke-linejoin:round;stroke-miterlimit:4;stroke-dasharray:none;stroke-opacity:1"
             id="path84"
             inkscape:connector-curvature="0" /><path
             d="M 7805.27,2144.61 7163.52,1774.1"
             style="fill:none;stroke:#000000;stroke-width:74.10540009;stroke-linecap:butt;stroke-linejoin:round;stroke-miterlimit:4;stroke-dasharray:none;stroke-opacity:1"
             id="path86"
             inkscape:connector-curvature="0" /><path
             d="m 4596.45,3811.99 c 49.1,0 96.25,19.53 130.97,54.26 34.77,34.73 54.26,81.87 54.26,131.02 0,49.1 -19.49,96.25 -54.26,130.97 -34.72,34.77 -81.87,54.26 -130.97,54.26 -49.15,0 -96.29,-19.49 -131.02,-54.26 -34.73,-34.72 -54.26,-81.87 -54.26,-130.97 0,-49.15 19.53,-96.29 54.26,-131.02 34.73,-34.73 81.87,-54.26 131.02,-54.26 z"
             style="fill:#33638d;fill-opacity:1;fill-rule:nonzero;stroke:none"
             id="path88"
             inkscape:connector-curvature="0" /><path
             d="m 5879.96,1588.83 c 49.14,0 96.29,19.53 131.02,54.26 34.72,34.76 54.25,81.87 54.25,131.01 0,49.14 -19.53,96.25 -54.25,130.98 -34.73,34.76 -81.88,54.26 -131.02,54.26 -49.1,0 -96.25,-19.5 -130.98,-54.26 -34.76,-34.73 -54.25,-81.84 -54.25,-130.98 0,-49.14 19.49,-96.25 54.25,-131.01 34.73,-34.73 81.88,-54.26 130.98,-54.26 z"
             style="fill:#33638d;fill-opacity:1;fill-rule:nonzero;stroke:none"
             id="path90"
             inkscape:connector-curvature="0" /><path
             d="m 7163.52,1588.83 c 49.14,0 96.25,19.53 131.01,54.26 34.73,34.76 54.26,81.87 54.26,131.01 0,49.14 -19.53,96.25 -54.26,130.98 -34.76,34.76 -81.87,54.26 -131.01,54.26 -49.14,0 -96.25,-19.5 -131.02,-54.26 -34.73,-34.73 -54.26,-81.84 -54.26,-130.98 0,-49.14 19.53,-96.25 54.26,-131.01 34.77,-34.73 81.88,-54.26 131.02,-54.26 z"
             style="fill:#33638d;fill-opacity:1;fill-rule:nonzero;stroke:none"
             id="path92"
             inkscape:connector-curvature="0" /><path
             d="m 6521.76,2700.39 c 49.1,0 96.25,19.53 130.97,54.3 34.77,34.72 54.26,81.83 54.26,130.97 0,49.14 -19.49,96.25 -54.26,131.02 -34.72,34.73 -81.87,54.26 -130.97,54.26 -49.14,0 -96.29,-19.53 -131.02,-54.26 -34.72,-34.77 -54.26,-81.88 -54.26,-131.02 0,-49.14 19.54,-96.25 54.26,-130.97 34.73,-34.77 81.88,-54.3 131.02,-54.3 z"
             style="fill:#33638d;fill-opacity:1;fill-rule:nonzero;stroke:none"
             id="path94"
             inkscape:connector-curvature="0" /><path
             d="m 3954.65,4182.5 c 49.14,0 96.29,19.53 131.01,54.3 34.73,34.72 54.26,81.83 54.26,130.97 0,49.14 -19.53,96.25 -54.26,131.02 -34.72,34.73 -81.87,54.26 -131.01,54.26 -49.14,0 -96.25,-19.53 -130.98,-54.26 -34.76,-34.77 -54.26,-81.88 -54.26,-131.02 0,-49.14 19.5,-96.25 54.26,-130.97 34.73,-34.77 81.84,-54.3 130.98,-54.3 z"
             style="fill:#440154;fill-opacity:1;fill-rule:nonzero;stroke:none"
             id="path96"
             inkscape:connector-curvature="0" /><path
             d="m 3954.65,1959.34 c 49.14,0 96.29,19.53 131.01,54.29 34.73,34.73 54.26,81.84 54.26,130.98 0,49.14 -19.53,96.25 -54.26,131.01 -34.72,34.73 -81.87,54.26 -131.01,54.26 -49.14,0 -96.25,-19.53 -130.98,-54.26 -34.76,-34.76 -54.26,-81.87 -54.26,-131.01 0,-49.14 19.5,-96.25 54.26,-130.98 34.73,-34.76 81.84,-54.29 130.98,-54.29 z"
             style="fill:#440154;fill-opacity:1;fill-rule:nonzero;stroke:none"
             id="path98"
             inkscape:connector-curvature="0" /><path
             d="m 5238.2,4182.5 c 49.14,0 96.25,19.53 131.02,54.3 34.73,34.72 54.26,81.83 54.26,130.97 0,49.14 -19.53,96.25 -54.26,131.02 -34.77,34.73 -81.88,54.26 -131.02,54.26 -49.14,0 -96.25,-19.53 -131.01,-54.26 -34.73,-34.77 -54.26,-81.88 -54.26,-131.02 0,-49.14 19.53,-96.25 54.26,-130.97 34.76,-34.77 81.87,-54.3 131.01,-54.3 z"
             style="fill:#440154;fill-opacity:1;fill-rule:nonzero;stroke:none"
             id="path100"
             inkscape:connector-curvature="0" /><path
             d="m 5879.96,3070.94 c 49.14,0 96.29,19.53 131.02,54.26 34.72,34.72 54.25,81.87 54.25,131.01 0,49.14 -19.53,96.25 -54.25,130.98 -34.73,34.76 -81.88,54.26 -131.02,54.26 -49.1,0 -96.25,-19.5 -130.98,-54.26 -34.76,-34.73 -54.25,-81.84 -54.25,-130.98 0,-49.14 19.49,-96.29 54.25,-131.01 34.73,-34.73 81.88,-54.26 130.98,-54.26 z"
             style="fill:#440154;fill-opacity:1;fill-rule:nonzero;stroke:none"
             id="path102"
             inkscape:connector-curvature="0" /><path
             d="m 5879.96,5294.1 c 49.14,0 96.29,19.53 131.02,54.26 34.72,34.73 54.25,81.87 54.25,131.02 0,49.1 -19.53,96.24 -54.25,130.97 -34.73,34.77 -81.88,54.26 -131.02,54.26 -49.1,0 -96.25,-19.49 -130.98,-54.26 -34.76,-34.73 -54.25,-81.87 -54.25,-130.97 0,-49.15 19.49,-96.29 54.25,-131.02 34.73,-34.73 81.88,-54.26 130.98,-54.26 z"
             style="fill:#440154;fill-opacity:1;fill-rule:nonzero;stroke:none"
             id="path104"
             inkscape:connector-curvature="0" /><path
             d="m 4596.45,3070.94 c 49.1,0 96.25,19.53 130.97,54.26 34.77,34.72 54.26,81.87 54.26,131.01 0,49.14 -19.49,96.25 -54.26,130.98 -34.72,34.76 -81.87,54.26 -130.97,54.26 -49.15,0 -96.29,-19.5 -131.02,-54.26 -34.73,-34.73 -54.26,-81.84 -54.26,-130.98 0,-49.14 19.53,-96.29 54.26,-131.01 34.73,-34.73 81.87,-54.26 131.02,-54.26 z"
             style="fill:#440154;fill-opacity:1;fill-rule:nonzero;stroke:none"
             id="path106"
             inkscape:connector-curvature="0" /><path
             d="m 4596.45,5294.1 c 49.1,0 96.25,19.53 130.97,54.26 34.77,34.73 54.26,81.87 54.26,131.02 0,49.1 -19.49,96.24 -54.26,130.97 -34.72,34.77 -81.87,54.26 -130.97,54.26 -49.15,0 -96.29,-19.49 -131.02,-54.26 -34.73,-34.73 -54.26,-81.87 -54.26,-130.97 0,-49.15 19.53,-96.29 54.26,-131.02 34.73,-34.73 81.87,-54.26 131.02,-54.26 z"
             style="fill:#440154;fill-opacity:1;fill-rule:nonzero;stroke:none"
             id="path108"
             inkscape:connector-curvature="0" /><path
             d="m 3954.65,2700.39 c 49.14,0 96.29,19.53 131.01,54.3 34.73,34.72 54.26,81.83 54.26,130.97 0,49.14 -19.53,96.25 -54.26,131.02 -34.72,34.73 -81.87,54.26 -131.01,54.26 -49.14,0 -96.25,-19.53 -130.98,-54.26 -34.76,-34.77 -54.26,-81.88 -54.26,-131.02 0,-49.14 19.5,-96.25 54.26,-130.97 34.73,-34.77 81.84,-54.3 130.98,-54.3 z"
             style="fill:#33638d;fill-opacity:1;fill-rule:nonzero;stroke:none"
             id="path110"
             inkscape:connector-curvature="0" /><path
             d="m 5238.2,1959.34 c 49.14,0 96.25,19.53 131.02,54.29 34.73,34.73 54.26,81.84 54.26,130.98 0,49.14 -19.53,96.25 -54.26,131.01 -34.77,34.73 -81.88,54.26 -131.02,54.26 -49.14,0 -96.25,-19.53 -131.01,-54.26 -34.73,-34.76 -54.26,-81.87 -54.26,-131.01 0,-49.14 19.53,-96.25 54.26,-130.98 34.76,-34.76 81.87,-54.29 131.01,-54.29 z"
             style="fill:#440154;fill-opacity:1;fill-rule:nonzero;stroke:none"
             id="path112"
             inkscape:connector-curvature="0" /><path
             d="m 7163.52,3070.94 c 49.14,0 96.25,19.53 131.01,54.26 34.73,34.72 54.26,81.87 54.26,131.01 0,49.14 -19.53,96.25 -54.26,130.98 -34.76,34.76 -81.87,54.26 -131.01,54.26 -49.14,0 -96.25,-19.5 -131.02,-54.26 -34.73,-34.73 -54.26,-81.84 -54.26,-130.98 0,-49.14 19.53,-96.29 54.26,-131.01 34.77,-34.73 81.88,-54.26 131.02,-54.26 z"
             style="fill:#440154;fill-opacity:1;fill-rule:nonzero;stroke:none"
             id="path114"
             inkscape:connector-curvature="0" /><path
             d="m 6521.76,4182.5 c 49.1,0 96.25,19.53 130.97,54.3 34.77,34.72 54.26,81.83 54.26,130.97 0,49.14 -19.49,96.25 -54.26,131.02 -34.72,34.73 -81.87,54.26 -130.97,54.26 -49.14,0 -96.29,-19.53 -131.02,-54.26 -34.72,-34.77 -54.26,-81.88 -54.26,-131.02 0,-49.14 19.54,-96.25 54.26,-130.97 34.73,-34.77 81.88,-54.3 131.02,-54.3 z"
             style="fill:#440154;fill-opacity:1;fill-rule:nonzero;stroke:none"
             id="path116"
             inkscape:connector-curvature="0" /><path
             d="m 7805.27,4182.5 c 49.14,0 96.29,19.53 131.02,54.3 34.73,34.72 54.26,81.83 54.26,130.97 0,49.14 -19.53,96.25 -54.26,131.02 -34.73,34.73 -81.88,54.26 -131.02,54.26 -49.1,0 -96.25,-19.53 -130.97,-54.26 -34.77,-34.77 -54.26,-81.88 -54.26,-131.02 0,-49.14 19.49,-96.25 54.26,-130.97 34.72,-34.77 81.87,-54.3 130.97,-54.3 z"
             style="fill:#440154;fill-opacity:1;fill-rule:nonzero;stroke:none"
             id="path118"
             inkscape:connector-curvature="0" /><path
             d="m 5238.2,2700.39 c 49.14,0 96.25,19.53 131.02,54.3 34.73,34.72 54.26,81.83 54.26,130.97 0,49.14 -19.53,96.25 -54.26,131.02 -34.77,34.73 -81.88,54.26 -131.02,54.26 -49.14,0 -96.25,-19.53 -131.01,-54.26 -34.73,-34.77 -54.26,-81.88 -54.26,-131.02 0,-49.14 19.53,-96.25 54.26,-130.97 34.76,-34.77 81.87,-54.3 131.01,-54.3 z"
             style="fill:#33638d;fill-opacity:1;fill-rule:nonzero;stroke:none"
             id="path120"
             inkscape:connector-curvature="0" /><path
             d="m 6521.76,1959.34 c 49.1,0 96.25,19.53 130.97,54.29 34.77,34.73 54.26,81.84 54.26,130.98 0,49.14 -19.49,96.25 -54.26,131.01 -34.72,34.73 -81.87,54.26 -130.97,54.26 -49.14,0 -96.29,-19.53 -131.02,-54.26 -34.72,-34.76 -54.26,-81.87 -54.26,-131.01 0,-49.14 19.54,-96.25 54.26,-130.98 34.73,-34.76 81.88,-54.29 131.02,-54.29 z"
             style="fill:#440154;fill-opacity:1;fill-rule:nonzero;stroke:none"
             id="path122"
             inkscape:connector-curvature="0" /><path
             d="m 7163.52,5294.1 c 49.14,0 96.25,19.53 131.01,54.26 34.73,34.73 54.26,81.87 54.26,131.02 0,49.1 -19.53,96.24 -54.26,130.97 -34.76,34.77 -81.87,54.26 -131.01,54.26 -49.14,0 -96.25,-19.49 -131.02,-54.26 -34.73,-34.73 -54.26,-81.87 -54.26,-130.97 0,-49.15 19.53,-96.29 54.26,-131.02 34.77,-34.73 81.88,-54.26 131.02,-54.26 z"
             style="fill:#440154;fill-opacity:1;fill-rule:nonzero;stroke:none"
             id="path124"
             inkscape:connector-curvature="0" /><path
             d="m 5879.96,3811.99 c 49.14,0 96.29,19.53 131.02,54.26 34.72,34.73 54.25,81.87 54.25,131.02 0,49.1 -19.53,96.25 -54.25,130.97 -34.73,34.77 -81.88,54.26 -131.02,54.26 -49.1,0 -96.25,-19.49 -130.98,-54.26 -34.76,-34.72 -54.25,-81.87 -54.25,-130.97 0,-49.15 19.49,-96.29 54.25,-131.02 34.73,-34.73 81.88,-54.26 130.98,-54.26 z"
             style="fill:#33638d;fill-opacity:1;fill-rule:nonzero;stroke:none"
             id="path126"
             inkscape:connector-curvature="0" /><path
             d="m 5238.2,4923.55 c 49.14,0 96.25,19.54 131.02,54.3 34.73,34.73 54.26,81.84 54.26,130.98 0,49.14 -19.53,96.25 -54.26,131.01 -34.77,34.73 -81.88,54.26 -131.02,54.26 -49.14,0 -96.25,-19.53 -131.01,-54.26 -34.73,-34.76 -54.26,-81.87 -54.26,-131.01 0,-49.14 19.53,-96.25 54.26,-130.98 34.76,-34.76 81.87,-54.3 131.01,-54.3 z"
             style="fill:#33638d;fill-opacity:1;fill-rule:nonzero;stroke:none"
             id="path128"
             inkscape:connector-curvature="0" /><path
             d="m 6521.76,4923.55 c 49.1,0 96.25,19.54 130.97,54.3 34.77,34.73 54.26,81.84 54.26,130.98 0,49.14 -19.49,96.25 -54.26,131.01 -34.72,34.73 -81.87,54.26 -130.97,54.26 -49.14,0 -96.29,-19.53 -131.02,-54.26 -34.72,-34.76 -54.26,-81.87 -54.26,-131.01 0,-49.14 19.54,-96.25 54.26,-130.98 34.73,-34.76 81.88,-54.3 131.02,-54.3 z"
             style="fill:#33638d;fill-opacity:1;fill-rule:nonzero;stroke:none"
             id="path130"
             inkscape:connector-curvature="0" /><path
             d="m 7805.27,2700.39 c 49.14,0 96.29,19.53 131.02,54.3 34.73,34.72 54.26,81.83 54.26,130.97 0,49.14 -19.53,96.25 -54.26,131.02 -34.73,34.73 -81.88,54.26 -131.02,54.26 -49.1,0 -96.25,-19.53 -130.97,-54.26 -34.77,-34.77 -54.26,-81.88 -54.26,-131.02 0,-49.14 19.49,-96.25 54.26,-130.97 34.72,-34.77 81.87,-54.3 130.97,-54.3 z"
             style="fill:#33638d;fill-opacity:1;fill-rule:nonzero;stroke:none"
             id="path132"
             inkscape:connector-curvature="0" /><path
             d="m 7163.52,3811.99 c 49.14,0 96.25,19.53 131.01,54.26 34.73,34.73 54.26,81.87 54.26,131.02 0,49.1 -19.53,96.25 -54.26,130.97 -34.76,34.77 -81.87,54.26 -131.01,54.26 -49.14,0 -96.25,-19.49 -131.02,-54.26 -34.73,-34.72 -54.26,-81.87 -54.26,-130.97 0,-49.15 19.53,-96.29 54.26,-131.02 34.77,-34.73 81.88,-54.26 131.02,-54.26 z"
             style="fill:#33638d;fill-opacity:1;fill-rule:nonzero;stroke:none"
             id="path134"
             inkscape:connector-curvature="0" /><path
             d="m 7805.27,1959.34 c 49.14,0 96.29,19.53 131.02,54.29 34.73,34.73 54.26,81.84 54.26,130.98 0,49.14 -19.53,96.25 -54.26,131.01 -34.73,34.73 -81.88,54.26 -131.02,54.26 -49.1,0 -96.25,-19.53 -130.97,-54.26 -34.77,-34.76 -54.26,-81.87 -54.26,-131.01 0,-49.14 19.49,-96.25 54.26,-130.98 34.72,-34.76 81.87,-54.29 130.97,-54.29 z"
             style="fill:#440154;fill-opacity:1;fill-rule:nonzero;stroke:none"
             id="path136"
             inkscape:connector-curvature="0" /><path
             d="m 4596.45,1588.83 c 49.1,0 96.25,19.53 130.97,54.26 34.77,34.76 54.26,81.87 54.26,131.01 0,49.14 -19.49,96.25 -54.26,130.98 -34.72,34.76 -81.87,54.26 -130.97,54.26 -49.15,0 -96.29,-19.5 -131.02,-54.26 -34.73,-34.73 -54.26,-81.84 -54.26,-130.98 0,-49.14 19.53,-96.25 54.26,-131.01 34.73,-34.73 81.87,-54.26 131.02,-54.26 z"
             style="fill:#33638d;fill-opacity:1;fill-rule:nonzero;stroke:none"
             id="path138"
             inkscape:connector-curvature="0" /></g></g><g
         id="g140"><g
           id="g142"
           clip-path="url(#clipPath144)"><path
             d="M 5280,3600 5880,2560 6480,3600 5880,4720 5280,3600 Z"
             style="fill:none;stroke:#000000;stroke-width:32;stroke-linecap:butt;stroke-linejoin:miter;stroke-miterlimit:4;stroke-dasharray:32, 32;stroke-dashoffset:0;stroke-opacity:1"
             id="path148"
             inkscape:connector-curvature="0" /><path
             d="m 5280,3600 600,1120"
             style="fill:none;stroke:#000000;stroke-width:48;stroke-linecap:butt;stroke-linejoin:miter;stroke-miterlimit:4;stroke-dasharray:none;stroke-opacity:1"
             id="path150"
             inkscape:connector-curvature="0" /><path
             d="m 5789.34,4550.74 39.29,-129.96 74.03,341.52 -243.28,-250.82 129.96,39.26 z"
             style="fill:#000000;fill-opacity:1;fill-rule:evenodd;stroke:none"
             id="path152"
             inkscape:connector-curvature="0" /><path
             d="m 5789.33,4550.75 39.31,-129.97 74.01,341.52 -243.27,-250.81 129.95,39.26 z"
             style="fill:none;stroke:#000000;stroke-width:24;stroke-linecap:butt;stroke-linejoin:round;stroke-miterlimit:4;stroke-dasharray:none;stroke-opacity:1"
             id="path154"
             inkscape:connector-curvature="0" /><path
             d="M 5280,3600 5880,2560"
             style="fill:none;stroke:#000000;stroke-width:48;stroke-linecap:butt;stroke-linejoin:miter;stroke-miterlimit:4;stroke-dasharray:none;stroke-opacity:1"
             id="path156"
             inkscape:connector-curvature="0" /><path
             d="m 5784.06,2726.29 -131.13,35.19 251.05,-243.04 -84.76,338.98 -35.16,-131.13 z"
             style="fill:#000000;fill-opacity:1;fill-rule:evenodd;stroke:none"
             id="path158"
             inkscape:connector-curvature="0" /><path
             d="m 5784.06,2726.29 -131.13,35.2 251.05,-243.05 -84.76,338.99 -35.16,-131.14 z"
             style="fill:none;stroke:#000000;stroke-width:24;stroke-linecap:butt;stroke-linejoin:round;stroke-miterlimit:4;stroke-dasharray:none;stroke-opacity:1"
             id="path160"
             inkscape:connector-curvature="0" /><g
             id="g162"
             transform="scale(10,10)"><text
               transform="matrix(1,0,0,-1,605.083,373.357)"
               style="font-variant:normal;font-weight:normal;font-size:32px;font-family:'DejaVu Sans';-inkscape-font-specification:DejaVuSans;writing-mode:lr-tb;fill:#000000;fill-opacity:1;fill-rule:nonzero;stroke:none"
               id="text164"><tspan
                 x="0"
                 y="0"
                 id="tspan166">A</tspan><tspan
                 x="-0.144141"
                 y="39.8148"
                 id="tspan168">B</tspan></text>
</g></g></g></g></g></svg>