<?xml version="1.0" encoding="UTF-8" standalone="no"?>
<!-- Created with Inkscape (http://www.inkscape.org/) -->

<svg
   xmlns:dc="http://purl.org/dc/elements/1.1/"
   xmlns:cc="http://creativecommons.org/ns#"
   xmlns:rdf="http://www.w3.org/1999/02/22-rdf-syntax-ns#"
   xmlns:svg="http://www.w3.org/2000/svg"
   xmlns="http://www.w3.org/2000/svg"
   xmlns:sodipodi="http://sodipodi.sourceforge.net/DTD/sodipodi-0.dtd"
   xmlns:inkscape="http://www.inkscape.org/namespaces/inkscape"
   id="svg2"
   version="1.1"
   inkscape:version="0.91 r13725"
   xml:space="preserve"
   width="1437.5"
   height="810"
   viewBox="0 0 1437.5 810"
   sodipodi:docname="graphene-lattice-small.svg"><sodipodi:namedview
     pagecolor="#ffffff"
     bordercolor="#666666"
     borderopacity="1"
     objecttolerance="10"
     gridtolerance="10"
     guidetolerance="10"
     inkscape:pageopacity="0"
     inkscape:pageshadow="2"
     inkscape:window-width="1366"
     inkscape:window-height="704"
     id="namedview4"
     showgrid="false"
     inkscape:zoom="0.82408494"
     inkscape:cx="598.58065"
     inkscape:cy="508.56379"
     inkscape:window-x="0"
     inkscape:window-y="27"
     inkscape:window-maximized="1"
     inkscape:current-layer="layer2" /><metadata
     id="metadata8"><rdf:RDF><cc:Work
         rdf:about=""><dc:format>image/svg+xml</dc:format><dc:type
           rdf:resource="http://purl.org/dc/dcmitype/StillImage" /><dc:title /></cc:Work></rdf:RDF></metadata><defs
     id="defs6"><marker
       inkscape:stockid="Arrow1Send"
       orient="auto"
       refY="0"
       refX="0"
       id="marker7508"
       style="overflow:visible"
       inkscape:isstock="true"><path
         inkscape:connector-curvature="0"
         id="path7510"
         d="M 0,0 5,-5 -12.5,0 5,5 0,0 Z"
         style="fill:#ddc000;fill-opacity:1;fill-rule:evenodd;stroke:#ddc000;stroke-width:1pt;stroke-opacity:1"
         transform="matrix(-0.2,0,0,-0.2,-1.2,0)" /></marker><marker
       inkscape:isstock="true"
       style="overflow:visible;"
       id="marker5879"
       refX="0.0"
       refY="0.0"
       orient="auto"
       inkscape:stockid="Arrow1Send"><path
         transform="scale(0.2) rotate(180) translate(6,0)"
         style="fill-rule:evenodd;stroke:#b90000;stroke-width:1pt;stroke-opacity:1;fill:#b90000;fill-opacity:1"
         d="M 0.0,0.0 L 5.0,-5.0 L -12.5,0.0 L 5.0,5.0 L 0.0,0.0 z "
         id="path5881" /></marker><marker
       inkscape:isstock="true"
       style="overflow:visible;"
       id="marker5763"
       refX="0.0"
       refY="0.0"
       orient="auto"
       inkscape:stockid="Arrow1Send"><path
         transform="scale(0.2) rotate(180) translate(6,0)"
         style="fill-rule:evenodd;stroke:#a90000;stroke-width:1pt;stroke-opacity:1;fill:#a90000;fill-opacity:1"
         d="M 0.0,0.0 L 5.0,-5.0 L -12.5,0.0 L 5.0,5.0 L 0.0,0.0 z "
         id="path5765" /></marker><marker
       inkscape:isstock="true"
       style="overflow:visible;"
       id="Arrow1Send"
       refX="0.0"
       refY="0.0"
       orient="auto"
       inkscape:stockid="Arrow1Send"><path
         transform="scale(0.2) rotate(180) translate(6,0)"
         style="fill-rule:evenodd;stroke:#a90000;stroke-width:1pt;stroke-opacity:1;fill:#a90000;fill-opacity:1"
         d="M 0.0,0.0 L 5.0,-5.0 L -12.5,0.0 L 5.0,5.0 L 0.0,0.0 z "
         id="path4233" /></marker><marker
       inkscape:isstock="true"
       style="overflow:visible;"
       id="Arrow1Mend"
       refX="0.0"
       refY="0.0"
       orient="auto"
       inkscape:stockid="Arrow1Mend"><path
         transform="scale(0.4) rotate(180) translate(10,0)"
         style="fill-rule:evenodd;stroke:#a90000;stroke-width:1pt;stroke-opacity:1;fill:#a90000;fill-opacity:1"
         d="M 0.0,0.0 L 5.0,-5.0 L -12.5,0.0 L 5.0,5.0 L 0.0,0.0 z "
         id="path4227" /></marker><clipPath
       id="clipPath22"
       clipPathUnits="userSpaceOnUse"><path
         inkscape:connector-curvature="0"
         id="path24"
         d="m 3761,810 0,4893 4238,0 0,-4893 -4238,0 z" /></clipPath><clipPath
       id="clipPath144"
       clipPathUnits="userSpaceOnUse"><path
         inkscape:connector-curvature="0"
         id="path146"
         d="m 3761.72,810 4236.48,0 0,4892.38 -4236.48,0 0,-4892.38 z" /></clipPath><marker
       inkscape:isstock="true"
       style="overflow:visible"
       id="Arrow1Mend-6"
       refX="0"
       refY="0"
       orient="auto"
       inkscape:stockid="Arrow1Mend"><path
         transform="matrix(-0.4,0,0,-0.4,-4,0)"
         style="fill:#000000;fill-opacity:1;fill-rule:evenodd;stroke:#000000;stroke-width:1pt;stroke-opacity:1"
         d="M 0,0 5,-5 -12.5,0 5,5 0,0 Z"
         id="path4227-7"
         inkscape:connector-curvature="0" /></marker><marker
       inkscape:collect="always"
       inkscape:isstock="true"
       style="overflow:visible"
       id="marker5879-6"
       refX="0"
       refY="0"
       orient="auto"
       inkscape:stockid="Arrow1Send"><path
         transform="matrix(-0.2,0,0,-0.2,-1.2,0)"
         style="fill:#b90000;fill-opacity:1;fill-rule:evenodd;stroke:#b90000;stroke-width:1pt;stroke-opacity:1"
         d="M 0,0 5,-5 -12.5,0 5,5 0,0 Z"
         id="path5881-5"
         inkscape:connector-curvature="0" /></marker><marker
       inkscape:stockid="Arrow1Send"
       orient="auto"
       refY="0"
       refX="0"
       id="marker7508-3"
       style="overflow:visible"
       inkscape:isstock="true"><path
         inkscape:connector-curvature="0"
         id="path7510-9"
         d="M 0,0 5,-5 -12.5,0 5,5 0,0 Z"
         style="fill:#ddc000;fill-opacity:1;fill-rule:evenodd;stroke:#ddc000;stroke-width:1pt;stroke-opacity:1"
         transform="matrix(-0.2,0,0,-0.2,-1.2,0)" /></marker><marker
       inkscape:stockid="Arrow1Send"
       orient="auto"
       refY="0"
       refX="0"
       id="marker7508-8"
       style="overflow:visible"
       inkscape:isstock="true"><path
         inkscape:connector-curvature="0"
         id="path7510-1"
         d="M 0,0 5,-5 -12.5,0 5,5 0,0 Z"
         style="fill:#ddc000;fill-opacity:1;fill-rule:evenodd;stroke:#ddc000;stroke-width:1pt;stroke-opacity:1"
         transform="matrix(-0.2,0,0,-0.2,-1.2,0)" /></marker></defs><g
     sodipodi:insensitive="true"
     transform="matrix(1.25,0,0,-1.25,0,810)"
     inkscape:label="ink_ext_XXXXXX"
     inkscape:groupmode="layer"
     id="g10"><g
       transform="scale(0.1,0.1)"
       id="g12"><path
         inkscape:connector-curvature="0"
         id="path14"
         style="fill:#ffffff;fill-opacity:1;fill-rule:nonzero;stroke:none"
         d="m 0,0 11496,0 0,6480 L 0,6480 0,0 Z" /><path
         inkscape:connector-curvature="0"
         id="path16"
         style="fill:#ffffff;fill-opacity:1;fill-rule:nonzero;stroke:none"
         d="m 3761.72,810 4236.48,0 0,4892.38 -4236.48,0 0,-4892.38 z" /><g
         id="g18"><g
           clip-path="url(#clipPath22)"
           id="g20"><path
             inkscape:connector-curvature="0"
             id="path26"
             style="fill:none;stroke:#000000;stroke-width:74.10540009;stroke-linecap:butt;stroke-linejoin:round;stroke-miterlimit:4;stroke-dasharray:none;stroke-opacity:1"
             d="m 3954.65,4367.77 641.8,-370.5" /><path
             inkscape:connector-curvature="0"
             id="path28"
             style="fill:none;stroke:#000000;stroke-width:74.10540009;stroke-linecap:butt;stroke-linejoin:round;stroke-miterlimit:4;stroke-dasharray:none;stroke-opacity:1"
             d="m 3954.65,2144.61 0,741.05" /><path
             inkscape:connector-curvature="0"
             id="path30"
             style="fill:none;stroke:#000000;stroke-width:74.10540009;stroke-linecap:butt;stroke-linejoin:round;stroke-miterlimit:4;stroke-dasharray:none;stroke-opacity:1"
             d="m 3954.65,2144.61 641.8,-370.51" /><path
             inkscape:connector-curvature="0"
             id="path32"
             style="fill:none;stroke:#000000;stroke-width:74.10540009;stroke-linecap:butt;stroke-linejoin:round;stroke-miterlimit:4;stroke-dasharray:none;stroke-opacity:1"
             d="m 5238.2,4367.77 0,741.06" /><path
             inkscape:connector-curvature="0"
             id="path34"
             style="fill:none;stroke:#000000;stroke-width:74.10540009;stroke-linecap:butt;stroke-linejoin:round;stroke-miterlimit:4;stroke-dasharray:none;stroke-opacity:1"
             d="m 5238.2,4367.77 -641.75,-370.5" /><path
             inkscape:connector-curvature="0"
             id="path36"
             style="fill:none;stroke:#000000;stroke-width:74.10540009;stroke-linecap:butt;stroke-linejoin:round;stroke-miterlimit:4;stroke-dasharray:none;stroke-opacity:1"
             d="m 5238.2,4367.77 641.76,-370.5" /><path
             inkscape:connector-curvature="0"
             id="path38"
             style="fill:none;stroke:#000000;stroke-width:74.10540009;stroke-linecap:butt;stroke-linejoin:round;stroke-miterlimit:4;stroke-dasharray:none;stroke-opacity:1"
             d="m 5879.96,3256.21 0,741.06" /><path
             inkscape:connector-curvature="0"
             id="path40"
             style="fill:none;stroke:#000000;stroke-width:74.10540009;stroke-linecap:butt;stroke-linejoin:round;stroke-miterlimit:4;stroke-dasharray:none;stroke-opacity:1"
             d="M 5879.96,3256.21 5238.2,2885.66" /><path
             inkscape:connector-curvature="0"
             id="path42"
             style="fill:none;stroke:#000000;stroke-width:74.10540009;stroke-linecap:butt;stroke-linejoin:round;stroke-miterlimit:4;stroke-dasharray:none;stroke-opacity:1"
             d="m 5879.96,3256.21 641.8,-370.55" /><path
             inkscape:connector-curvature="0"
             id="path44"
             style="fill:none;stroke:#000000;stroke-width:74.10540009;stroke-linecap:butt;stroke-linejoin:round;stroke-miterlimit:4;stroke-dasharray:none;stroke-opacity:1"
             d="M 5879.96,5479.38 5238.2,5108.83" /><path
             inkscape:connector-curvature="0"
             id="path46"
             style="fill:none;stroke:#000000;stroke-width:74.10540009;stroke-linecap:butt;stroke-linejoin:round;stroke-miterlimit:4;stroke-dasharray:none;stroke-opacity:1"
             d="m 5879.96,5479.38 641.8,-370.55" /><path
             inkscape:connector-curvature="0"
             id="path48"
             style="fill:none;stroke:#000000;stroke-width:74.10540009;stroke-linecap:butt;stroke-linejoin:round;stroke-miterlimit:4;stroke-dasharray:none;stroke-opacity:1"
             d="m 4596.45,3256.21 0,741.06" /><path
             inkscape:connector-curvature="0"
             id="path50"
             style="fill:none;stroke:#000000;stroke-width:74.10540009;stroke-linecap:butt;stroke-linejoin:round;stroke-miterlimit:4;stroke-dasharray:none;stroke-opacity:1"
             d="m 4596.45,3256.21 -641.8,-370.55" /><path
             inkscape:connector-curvature="0"
             id="path52"
             style="fill:none;stroke:#000000;stroke-width:74.10540009;stroke-linecap:butt;stroke-linejoin:round;stroke-miterlimit:4;stroke-dasharray:none;stroke-opacity:1"
             d="M 4596.45,3256.21 5238.2,2885.66" /><path
             inkscape:connector-curvature="0"
             id="path54"
             style="fill:none;stroke:#000000;stroke-width:74.10540009;stroke-linecap:butt;stroke-linejoin:round;stroke-miterlimit:4;stroke-dasharray:none;stroke-opacity:1"
             d="M 4596.45,5479.38 5238.2,5108.83" /><path
             inkscape:connector-curvature="0"
             id="path56"
             style="fill:none;stroke:#000000;stroke-width:74.10540009;stroke-linecap:butt;stroke-linejoin:round;stroke-miterlimit:4;stroke-dasharray:none;stroke-opacity:1"
             d="m 5238.2,2144.61 0,741.05" /><path
             inkscape:connector-curvature="0"
             id="path58"
             style="fill:none;stroke:#000000;stroke-width:74.10540009;stroke-linecap:butt;stroke-linejoin:round;stroke-miterlimit:4;stroke-dasharray:none;stroke-opacity:1"
             d="M 5238.2,2144.61 4596.45,1774.1" /><path
             inkscape:connector-curvature="0"
             id="path60"
             style="fill:none;stroke:#000000;stroke-width:74.10540009;stroke-linecap:butt;stroke-linejoin:round;stroke-miterlimit:4;stroke-dasharray:none;stroke-opacity:1"
             d="M 5238.2,2144.61 5879.96,1774.1" /><path
             inkscape:connector-curvature="0"
             id="path62"
             style="fill:none;stroke:#000000;stroke-width:74.10540009;stroke-linecap:butt;stroke-linejoin:round;stroke-miterlimit:4;stroke-dasharray:none;stroke-opacity:1"
             d="m 7163.52,3256.21 0,741.06" /><path
             inkscape:connector-curvature="0"
             id="path64"
             style="fill:none;stroke:#000000;stroke-width:74.10540009;stroke-linecap:butt;stroke-linejoin:round;stroke-miterlimit:4;stroke-dasharray:none;stroke-opacity:1"
             d="M 7163.52,3256.21 6521.76,2885.66" /><path
             inkscape:connector-curvature="0"
             id="path66"
             style="fill:none;stroke:#000000;stroke-width:74.10540009;stroke-linecap:butt;stroke-linejoin:round;stroke-miterlimit:4;stroke-dasharray:none;stroke-opacity:1"
             d="m 7163.52,3256.21 641.75,-370.55" /><path
             inkscape:connector-curvature="0"
             id="path68"
             style="fill:none;stroke:#000000;stroke-width:74.10540009;stroke-linecap:butt;stroke-linejoin:round;stroke-miterlimit:4;stroke-dasharray:none;stroke-opacity:1"
             d="m 6521.76,4367.77 0,741.06" /><path
             inkscape:connector-curvature="0"
             id="path70"
             style="fill:none;stroke:#000000;stroke-width:74.10540009;stroke-linecap:butt;stroke-linejoin:round;stroke-miterlimit:4;stroke-dasharray:none;stroke-opacity:1"
             d="m 6521.76,4367.77 -641.8,-370.5" /><path
             inkscape:connector-curvature="0"
             id="path72"
             style="fill:none;stroke:#000000;stroke-width:74.10540009;stroke-linecap:butt;stroke-linejoin:round;stroke-miterlimit:4;stroke-dasharray:none;stroke-opacity:1"
             d="m 6521.76,4367.77 641.76,-370.5" /><path
             inkscape:connector-curvature="0"
             id="path74"
             style="fill:none;stroke:#000000;stroke-width:74.10540009;stroke-linecap:butt;stroke-linejoin:round;stroke-miterlimit:4;stroke-dasharray:none;stroke-opacity:1"
             d="m 7805.27,4367.77 -641.75,-370.5" /><path
             inkscape:connector-curvature="0"
             id="path76"
             style="fill:none;stroke:#000000;stroke-width:74.10540009;stroke-linecap:butt;stroke-linejoin:round;stroke-miterlimit:4;stroke-dasharray:none;stroke-opacity:1"
             d="m 6521.76,2144.61 0,741.05" /><path
             inkscape:connector-curvature="0"
             id="path78"
             style="fill:none;stroke:#000000;stroke-width:74.10540009;stroke-linecap:butt;stroke-linejoin:round;stroke-miterlimit:4;stroke-dasharray:none;stroke-opacity:1"
             d="M 6521.76,2144.61 5879.96,1774.1" /><path
             inkscape:connector-curvature="0"
             id="path80"
             style="fill:none;stroke:#000000;stroke-width:74.10540009;stroke-linecap:butt;stroke-linejoin:round;stroke-miterlimit:4;stroke-dasharray:none;stroke-opacity:1"
             d="M 6521.76,2144.61 7163.52,1774.1" /><path
             inkscape:connector-curvature="0"
             id="path82"
             style="fill:none;stroke:#000000;stroke-width:74.10540009;stroke-linecap:butt;stroke-linejoin:round;stroke-miterlimit:4;stroke-dasharray:none;stroke-opacity:1"
             d="M 7163.52,5479.38 6521.76,5108.83" /><path
             inkscape:connector-curvature="0"
             id="path84"
             style="fill:none;stroke:#000000;stroke-width:74.10540009;stroke-linecap:butt;stroke-linejoin:round;stroke-miterlimit:4;stroke-dasharray:none;stroke-opacity:1"
             d="m 7805.27,2144.61 0,741.05" /><path
             inkscape:connector-curvature="0"
             id="path86"
             style="fill:none;stroke:#000000;stroke-width:74.10540009;stroke-linecap:butt;stroke-linejoin:round;stroke-miterlimit:4;stroke-dasharray:none;stroke-opacity:1"
             d="M 7805.27,2144.61 7163.52,1774.1" /><path
             inkscape:connector-curvature="0"
             id="path88"
             style="fill:#33638d;fill-opacity:1;fill-rule:nonzero;stroke:none"
             d="m 4596.45,3811.99 c 49.1,0 96.25,19.53 130.97,54.26 34.77,34.73 54.26,81.87 54.26,131.02 0,49.1 -19.49,96.25 -54.26,130.97 -34.72,34.77 -81.87,54.26 -130.97,54.26 -49.15,0 -96.29,-19.49 -131.02,-54.26 -34.73,-34.72 -54.26,-81.87 -54.26,-130.97 0,-49.15 19.53,-96.29 54.26,-131.02 34.73,-34.73 81.87,-54.26 131.02,-54.26 z" /><path
             inkscape:connector-curvature="0"
             id="path90"
             style="fill:#33638d;fill-opacity:1;fill-rule:nonzero;stroke:none"
             d="m 5879.96,1588.83 c 49.14,0 96.29,19.53 131.02,54.26 34.72,34.76 54.25,81.87 54.25,131.01 0,49.14 -19.53,96.25 -54.25,130.98 -34.73,34.76 -81.88,54.26 -131.02,54.26 -49.1,0 -96.25,-19.5 -130.98,-54.26 -34.76,-34.73 -54.25,-81.84 -54.25,-130.98 0,-49.14 19.49,-96.25 54.25,-131.01 34.73,-34.73 81.88,-54.26 130.98,-54.26 z" /><path
             inkscape:connector-curvature="0"
             id="path92"
             style="fill:#33638d;fill-opacity:1;fill-rule:nonzero;stroke:none"
             d="m 7163.52,1588.83 c 49.14,0 96.25,19.53 131.01,54.26 34.73,34.76 54.26,81.87 54.26,131.01 0,49.14 -19.53,96.25 -54.26,130.98 -34.76,34.76 -81.87,54.26 -131.01,54.26 -49.14,0 -96.25,-19.5 -131.02,-54.26 -34.73,-34.73 -54.26,-81.84 -54.26,-130.98 0,-49.14 19.53,-96.25 54.26,-131.01 34.77,-34.73 81.88,-54.26 131.02,-54.26 z" /><path
             inkscape:connector-curvature="0"
             id="path94"
             style="fill:#33638d;fill-opacity:1;fill-rule:nonzero;stroke:none"
             d="m 6521.76,2700.39 c 49.1,0 96.25,19.53 130.97,54.3 34.77,34.72 54.26,81.83 54.26,130.97 0,49.14 -19.49,96.25 -54.26,131.02 -34.72,34.73 -81.87,54.26 -130.97,54.26 -49.14,0 -96.29,-19.53 -131.02,-54.26 -34.72,-34.77 -54.26,-81.88 -54.26,-131.02 0,-49.14 19.54,-96.25 54.26,-130.97 34.73,-34.77 81.88,-54.3 131.02,-54.3 z" /><path
             inkscape:connector-curvature="0"
             id="path96"
             style="fill:#440154;fill-opacity:1;fill-rule:nonzero;stroke:none"
             d="m 3954.65,4182.5 c 49.14,0 96.29,19.53 131.01,54.3 34.73,34.72 54.26,81.83 54.26,130.97 0,49.14 -19.53,96.25 -54.26,131.02 -34.72,34.73 -81.87,54.26 -131.01,54.26 -49.14,0 -96.25,-19.53 -130.98,-54.26 -34.76,-34.77 -54.26,-81.88 -54.26,-131.02 0,-49.14 19.5,-96.25 54.26,-130.97 34.73,-34.77 81.84,-54.3 130.98,-54.3 z" /><path
             inkscape:connector-curvature="0"
             id="path98"
             style="fill:#440154;fill-opacity:1;fill-rule:nonzero;stroke:none"
             d="m 3954.65,1959.34 c 49.14,0 96.29,19.53 131.01,54.29 34.73,34.73 54.26,81.84 54.26,130.98 0,49.14 -19.53,96.25 -54.26,131.01 -34.72,34.73 -81.87,54.26 -131.01,54.26 -49.14,0 -96.25,-19.53 -130.98,-54.26 -34.76,-34.76 -54.26,-81.87 -54.26,-131.01 0,-49.14 19.5,-96.25 54.26,-130.98 34.73,-34.76 81.84,-54.29 130.98,-54.29 z" /><path
             inkscape:connector-curvature="0"
             id="path100"
             style="fill:#440154;fill-opacity:1;fill-rule:nonzero;stroke:none"
             d="m 5238.2,4182.5 c 49.14,0 96.25,19.53 131.02,54.3 34.73,34.72 54.26,81.83 54.26,130.97 0,49.14 -19.53,96.25 -54.26,131.02 -34.77,34.73 -81.88,54.26 -131.02,54.26 -49.14,0 -96.25,-19.53 -131.01,-54.26 -34.73,-34.77 -54.26,-81.88 -54.26,-131.02 0,-49.14 19.53,-96.25 54.26,-130.97 34.76,-34.77 81.87,-54.3 131.01,-54.3 z" /><path
             inkscape:connector-curvature="0"
             id="path102"
             style="fill:#440154;fill-opacity:1;fill-rule:nonzero;stroke:none"
             d="m 5879.96,3070.94 c 49.14,0 96.29,19.53 131.02,54.26 34.72,34.72 54.25,81.87 54.25,131.01 0,49.14 -19.53,96.25 -54.25,130.98 -34.73,34.76 -81.88,54.26 -131.02,54.26 -49.1,0 -96.25,-19.5 -130.98,-54.26 -34.76,-34.73 -54.25,-81.84 -54.25,-130.98 0,-49.14 19.49,-96.29 54.25,-131.01 34.73,-34.73 81.88,-54.26 130.98,-54.26 z" /><path
             inkscape:connector-curvature="0"
             id="path104"
             style="fill:#440154;fill-opacity:1;fill-rule:nonzero;stroke:none"
             d="m 5879.96,5294.1 c 49.14,0 96.29,19.53 131.02,54.26 34.72,34.73 54.25,81.87 54.25,131.02 0,49.1 -19.53,96.24 -54.25,130.97 -34.73,34.77 -81.88,54.26 -131.02,54.26 -49.1,0 -96.25,-19.49 -130.98,-54.26 -34.76,-34.73 -54.25,-81.87 -54.25,-130.97 0,-49.15 19.49,-96.29 54.25,-131.02 34.73,-34.73 81.88,-54.26 130.98,-54.26 z" /><path
             inkscape:connector-curvature="0"
             id="path106"
             style="fill:#440154;fill-opacity:1;fill-rule:nonzero;stroke:none"
             d="m 4596.45,3070.94 c 49.1,0 96.25,19.53 130.97,54.26 34.77,34.72 54.26,81.87 54.26,131.01 0,49.14 -19.49,96.25 -54.26,130.98 -34.72,34.76 -81.87,54.26 -130.97,54.26 -49.15,0 -96.29,-19.5 -131.02,-54.26 -34.73,-34.73 -54.26,-81.84 -54.26,-130.98 0,-49.14 19.53,-96.29 54.26,-131.01 34.73,-34.73 81.87,-54.26 131.02,-54.26 z" /><path
             inkscape:connector-curvature="0"
             id="path108"
             style="fill:#440154;fill-opacity:1;fill-rule:nonzero;stroke:none"
             d="m 4596.45,5294.1 c 49.1,0 96.25,19.53 130.97,54.26 34.77,34.73 54.26,81.87 54.26,131.02 0,49.1 -19.49,96.24 -54.26,130.97 -34.72,34.77 -81.87,54.26 -130.97,54.26 -49.15,0 -96.29,-19.49 -131.02,-54.26 -34.73,-34.73 -54.26,-81.87 -54.26,-130.97 0,-49.15 19.53,-96.29 54.26,-131.02 34.73,-34.73 81.87,-54.26 131.02,-54.26 z" /><path
             inkscape:connector-curvature="0"
             id="path110"
             style="fill:#33638d;fill-opacity:1;fill-rule:nonzero;stroke:none"
             d="m 3954.65,2700.39 c 49.14,0 96.29,19.53 131.01,54.3 34.73,34.72 54.26,81.83 54.26,130.97 0,49.14 -19.53,96.25 -54.26,131.02 -34.72,34.73 -81.87,54.26 -131.01,54.26 -49.14,0 -96.25,-19.53 -130.98,-54.26 -34.76,-34.77 -54.26,-81.88 -54.26,-131.02 0,-49.14 19.5,-96.25 54.26,-130.97 34.73,-34.77 81.84,-54.3 130.98,-54.3 z" /><path
             inkscape:connector-curvature="0"
             id="path112"
             style="fill:#440154;fill-opacity:1;fill-rule:nonzero;stroke:none"
             d="m 5238.2,1959.34 c 49.14,0 96.25,19.53 131.02,54.29 34.73,34.73 54.26,81.84 54.26,130.98 0,49.14 -19.53,96.25 -54.26,131.01 -34.77,34.73 -81.88,54.26 -131.02,54.26 -49.14,0 -96.25,-19.53 -131.01,-54.26 -34.73,-34.76 -54.26,-81.87 -54.26,-131.01 0,-49.14 19.53,-96.25 54.26,-130.98 34.76,-34.76 81.87,-54.29 131.01,-54.29 z" /><path
             inkscape:connector-curvature="0"
             id="path114"
             style="fill:#440154;fill-opacity:1;fill-rule:nonzero;stroke:none"
             d="m 7163.52,3070.94 c 49.14,0 96.25,19.53 131.01,54.26 34.73,34.72 54.26,81.87 54.26,131.01 0,49.14 -19.53,96.25 -54.26,130.98 -34.76,34.76 -81.87,54.26 -131.01,54.26 -49.14,0 -96.25,-19.5 -131.02,-54.26 -34.73,-34.73 -54.26,-81.84 -54.26,-130.98 0,-49.14 19.53,-96.29 54.26,-131.01 34.77,-34.73 81.88,-54.26 131.02,-54.26 z" /><path
             inkscape:connector-curvature="0"
             id="path116"
             style="fill:#440154;fill-opacity:1;fill-rule:nonzero;stroke:none"
             d="m 6521.76,4182.5 c 49.1,0 96.25,19.53 130.97,54.3 34.77,34.72 54.26,81.83 54.26,130.97 0,49.14 -19.49,96.25 -54.26,131.02 -34.72,34.73 -81.87,54.26 -130.97,54.26 -49.14,0 -96.29,-19.53 -131.02,-54.26 -34.72,-34.77 -54.26,-81.88 -54.26,-131.02 0,-49.14 19.54,-96.25 54.26,-130.97 34.73,-34.77 81.88,-54.3 131.02,-54.3 z" /><path
             inkscape:connector-curvature="0"
             id="path118"
             style="fill:#440154;fill-opacity:1;fill-rule:nonzero;stroke:none"
             d="m 7805.27,4182.5 c 49.14,0 96.29,19.53 131.02,54.3 34.73,34.72 54.26,81.83 54.26,130.97 0,49.14 -19.53,96.25 -54.26,131.02 -34.73,34.73 -81.88,54.26 -131.02,54.26 -49.1,0 -96.25,-19.53 -130.97,-54.26 -34.77,-34.77 -54.26,-81.88 -54.26,-131.02 0,-49.14 19.49,-96.25 54.26,-130.97 34.72,-34.77 81.87,-54.3 130.97,-54.3 z" /><path
             inkscape:connector-curvature="0"
             id="path120"
             style="fill:#33638d;fill-opacity:1;fill-rule:nonzero;stroke:none"
             d="m 5238.2,2700.39 c 49.14,0 96.25,19.53 131.02,54.3 34.73,34.72 54.26,81.83 54.26,130.97 0,49.14 -19.53,96.25 -54.26,131.02 -34.77,34.73 -81.88,54.26 -131.02,54.26 -49.14,0 -96.25,-19.53 -131.01,-54.26 -34.73,-34.77 -54.26,-81.88 -54.26,-131.02 0,-49.14 19.53,-96.25 54.26,-130.97 34.76,-34.77 81.87,-54.3 131.01,-54.3 z" /><path
             inkscape:connector-curvature="0"
             id="path122"
             style="fill:#440154;fill-opacity:1;fill-rule:nonzero;stroke:none"
             d="m 6521.76,1959.34 c 49.1,0 96.25,19.53 130.97,54.29 34.77,34.73 54.26,81.84 54.26,130.98 0,49.14 -19.49,96.25 -54.26,131.01 -34.72,34.73 -81.87,54.26 -130.97,54.26 -49.14,0 -96.29,-19.53 -131.02,-54.26 -34.72,-34.76 -54.26,-81.87 -54.26,-131.01 0,-49.14 19.54,-96.25 54.26,-130.98 34.73,-34.76 81.88,-54.29 131.02,-54.29 z" /><path
             inkscape:connector-curvature="0"
             id="path124"
             style="fill:#440154;fill-opacity:1;fill-rule:nonzero;stroke:none"
             d="m 7163.52,5294.1 c 49.14,0 96.25,19.53 131.01,54.26 34.73,34.73 54.26,81.87 54.26,131.02 0,49.1 -19.53,96.24 -54.26,130.97 -34.76,34.77 -81.87,54.26 -131.01,54.26 -49.14,0 -96.25,-19.49 -131.02,-54.26 -34.73,-34.73 -54.26,-81.87 -54.26,-130.97 0,-49.15 19.53,-96.29 54.26,-131.02 34.77,-34.73 81.88,-54.26 131.02,-54.26 z" /><path
             inkscape:connector-curvature="0"
             id="path126"
             style="fill:#33638d;fill-opacity:1;fill-rule:nonzero;stroke:none"
             d="m 5879.96,3811.99 c 49.14,0 96.29,19.53 131.02,54.26 34.72,34.73 54.25,81.87 54.25,131.02 0,49.1 -19.53,96.25 -54.25,130.97 -34.73,34.77 -81.88,54.26 -131.02,54.26 -49.1,0 -96.25,-19.49 -130.98,-54.26 -34.76,-34.72 -54.25,-81.87 -54.25,-130.97 0,-49.15 19.49,-96.29 54.25,-131.02 34.73,-34.73 81.88,-54.26 130.98,-54.26 z" /><path
             inkscape:connector-curvature="0"
             id="path128"
             style="fill:#33638d;fill-opacity:1;fill-rule:nonzero;stroke:none"
             d="m 5238.2,4923.55 c 49.14,0 96.25,19.54 131.02,54.3 34.73,34.73 54.26,81.84 54.26,130.98 0,49.14 -19.53,96.25 -54.26,131.01 -34.77,34.73 -81.88,54.26 -131.02,54.26 -49.14,0 -96.25,-19.53 -131.01,-54.26 -34.73,-34.76 -54.26,-81.87 -54.26,-131.01 0,-49.14 19.53,-96.25 54.26,-130.98 34.76,-34.76 81.87,-54.3 131.01,-54.3 z" /><path
             inkscape:connector-curvature="0"
             id="path130"
             style="fill:#33638d;fill-opacity:1;fill-rule:nonzero;stroke:none"
             d="m 6521.76,4923.55 c 49.1,0 96.25,19.54 130.97,54.3 34.77,34.73 54.26,81.84 54.26,130.98 0,49.14 -19.49,96.25 -54.26,131.01 -34.72,34.73 -81.87,54.26 -130.97,54.26 -49.14,0 -96.29,-19.53 -131.02,-54.26 -34.72,-34.76 -54.26,-81.87 -54.26,-131.01 0,-49.14 19.54,-96.25 54.26,-130.98 34.73,-34.76 81.88,-54.3 131.02,-54.3 z" /><path
             inkscape:connector-curvature="0"
             id="path132"
             style="fill:#33638d;fill-opacity:1;fill-rule:nonzero;stroke:none"
             d="m 7805.27,2700.39 c 49.14,0 96.29,19.53 131.02,54.3 34.73,34.72 54.26,81.83 54.26,130.97 0,49.14 -19.53,96.25 -54.26,131.02 -34.73,34.73 -81.88,54.26 -131.02,54.26 -49.1,0 -96.25,-19.53 -130.97,-54.26 -34.77,-34.77 -54.26,-81.88 -54.26,-131.02 0,-49.14 19.49,-96.25 54.26,-130.97 34.72,-34.77 81.87,-54.3 130.97,-54.3 z" /><path
             inkscape:connector-curvature="0"
             id="path134"
             style="fill:#33638d;fill-opacity:1;fill-rule:nonzero;stroke:none"
             d="m 7163.52,3811.99 c 49.14,0 96.25,19.53 131.01,54.26 34.73,34.73 54.26,81.87 54.26,131.02 0,49.1 -19.53,96.25 -54.26,130.97 -34.76,34.77 -81.87,54.26 -131.01,54.26 -49.14,0 -96.25,-19.49 -131.02,-54.26 -34.73,-34.72 -54.26,-81.87 -54.26,-130.97 0,-49.15 19.53,-96.29 54.26,-131.02 34.77,-34.73 81.88,-54.26 131.02,-54.26 z" /><path
             inkscape:connector-curvature="0"
             id="path136"
             style="fill:#440154;fill-opacity:1;fill-rule:nonzero;stroke:none"
             d="m 7805.27,1959.34 c 49.14,0 96.29,19.53 131.02,54.29 34.73,34.73 54.26,81.84 54.26,130.98 0,49.14 -19.53,96.25 -54.26,131.01 -34.73,34.73 -81.88,54.26 -131.02,54.26 -49.1,0 -96.25,-19.53 -130.97,-54.26 -34.77,-34.76 -54.26,-81.87 -54.26,-131.01 0,-49.14 19.49,-96.25 54.26,-130.98 34.72,-34.76 81.87,-54.29 130.97,-54.29 z" /><path
             inkscape:connector-curvature="0"
             id="path138"
             style="fill:#33638d;fill-opacity:1;fill-rule:nonzero;stroke:none"
             d="m 4596.45,1588.83 c 49.1,0 96.25,19.53 130.97,54.26 34.77,34.76 54.26,81.87 54.26,131.01 0,49.14 -19.49,96.25 -54.26,130.98 -34.72,34.76 -81.87,54.26 -130.97,54.26 -49.15,0 -96.29,-19.5 -131.02,-54.26 -34.73,-34.73 -54.26,-81.84 -54.26,-130.98 0,-49.14 19.53,-96.25 54.26,-131.01 34.73,-34.73 81.87,-54.26 131.02,-54.26 z" /></g></g></g></g><g
     inkscape:label="ink_ext_XXXXXX 1"
     id="layer2"
     inkscape:groupmode="layer"><path
       inkscape:connector-curvature="0"
       id="path5865"
       d="M 570.60381,405 653.83475,261.70551"
       style="fill:none;fill-rule:evenodd;stroke:#b90000;stroke-width:6;stroke-linecap:butt;stroke-linejoin:miter;stroke-opacity:1;stroke-miterlimit:4;stroke-dasharray:none;marker-end:url(#marker5879)" /><path
       inkscape:connector-curvature="0"
       id="path5865-6"
       d="m 568.30087,402.90131 165.70559,-1.53645"
       style="fill:none;fill-rule:evenodd;stroke:#b90000;stroke-width:6;stroke-linecap:butt;stroke-linejoin:miter;stroke-miterlimit:4;stroke-dasharray:none;stroke-opacity:1;marker-end:url(#marker5879-6)" /><path
       inkscape:connector-curvature="0"
       id="path7500"
       d="m 734.2829,398.08912 0.45452,-93.54218"
       style="fill:none;fill-rule:evenodd;stroke:#ddc000;stroke-width:6;stroke-linecap:butt;stroke-linejoin:miter;stroke-miterlimit:4;stroke-dasharray:none;stroke-opacity:1;marker-end:url(#marker7508)" /><path
       inkscape:transform-center-y="2.0215791"
       inkscape:transform-center-x="11.779712"
       inkscape:connector-curvature="0"
       id="path7500-4"
       d="m 738.51803,404.65953 81.19506,46.45116"
       style="fill:none;fill-rule:evenodd;stroke:#ddc000;stroke-width:6;stroke-linecap:butt;stroke-linejoin:miter;stroke-miterlimit:4;stroke-dasharray:none;stroke-opacity:1;marker-end:url(#marker7508-3)" /><path
       inkscape:transform-center-y="-6.4863881"
       inkscape:transform-center-x="-13.520576"
       inkscape:connector-curvature="0"
       id="path7500-2"
       d="m 730.90081,405.65404 -81.04888,46.70573"
       style="fill:none;fill-rule:evenodd;stroke:#ddc000;stroke-width:6;stroke-linecap:butt;stroke-linejoin:miter;stroke-miterlimit:4;stroke-dasharray:none;stroke-opacity:1;marker-end:url(#marker7508-8)" /><g
       id="g12576"
       transform="matrix(0.77264986,0,0,0.77264986,376.23075,-135.91639)"><g
         word-spacing="normal"
         letter-spacing="normal"
         font-size-adjust="none"
         font-stretch="normal"
         font-weight="normal"
         font-variant="normal"
         font-style="normal"
         stroke-miterlimit="10.433"
         xml:space="preserve"
         transform="matrix(1.1571429,0,0,-1.1571429,-202.5,1078.125)"
         id="content"
         style="font-style:normal;font-variant:normal;font-weight:normal;font-stretch:normal;letter-spacing:normal;word-spacing:normal;text-anchor:start;fill:none;fill-opacity:1;fill-rule:evenodd;stroke:#000000;stroke-linecap:butt;stroke-linejoin:miter;stroke-miterlimit:10.43299961;stroke-dasharray:none;stroke-dashoffset:0;stroke-opacity:1"><path
           id="path12579"
           d="m 474.1,425.03 -0.09,0.17 -0.09,0.17 -0.09,0.16 -0.09,0.16 -0.1,0.16 -0.1,0.16 -0.11,0.15 -0.11,0.14 -0.11,0.15 -0.12,0.13 -0.12,0.14 -0.12,0.13 -0.13,0.12 -0.13,0.12 -0.14,0.11 -0.14,0.11 -0.14,0.11 -0.15,0.09 -0.15,0.1 -0.15,0.08 -0.16,0.08 -0.17,0.08 -0.17,0.06 -0.17,0.07 -0.17,0.05 -0.18,0.05 -0.19,0.04 -0.19,0.03 -0.19,0.03 -0.2,0.02 -0.2,0.01 -0.21,0 0.05,-1.09 c 3.23,0 3.93,-4.08 3.93,-4.37 0,-0.32 -0.09,-0.61 -0.14,-0.86 l -2.5,-9.77 c -0.25,-0.89 -0.25,-0.98 -1,-1.84 -2.18,-2.74 -4.23,-3.53 -5.62,-3.53 -2.49,0 -3.19,2.73 -3.19,4.68 0,2.49 1.59,8.61 2.74,10.91 1.54,2.94 3.79,4.78 5.78,4.78 l -0.05,1.09 c -5.83,0 -12,-7.31 -12,-14.59 0,-4.69 2.73,-7.97 6.62,-7.97 0.99,0 3.49,0.21 6.47,3.74 0.41,-2.1 2.14,-3.74 4.53,-3.74 1.75,0 2.9,1.14 3.69,2.74 0.85,1.79 1.5,4.84 1.5,4.93 0,0.5 -0.45,0.5 -0.59,0.5 -0.5,0 -0.55,-0.2 -0.7,-0.9 -0.85,-3.24 -1.75,-6.17 -3.79,-6.17 -1.34,0 -1.5,1.29 -1.5,2.29 0,1.1 0.1,1.49 0.64,3.69 0.57,2.09 0.66,2.59 1.11,4.48 l 1.79,6.97 c 0.35,1.39 0.35,1.5 0.35,1.69 0,0.86 -0.6,1.36 -1.45,1.36 -1.19,0 -1.94,-1.11 -2.09,-2.2 z"
           inkscape:connector-curvature="0"
           style="fill:#000000;stroke-width:0" /><path
           id="path12581"
           d="m 493.47,420.92 0,0.04 0,0.04 0,0.05 0,0.04 0,0.03 0,0.04 0,0.04 0,0.03 0,0.04 0,0.03 -0.01,0.03 0,0.03 0,0.03 -0.01,0.03 0,0.03 0,0.02 -0.01,0.03 0,0.02 -0.01,0.03 0,0.02 -0.01,0.04 -0.02,0.04 -0.02,0.03 -0.02,0.03 -0.02,0.03 -0.02,0.03 -0.03,0.02 -0.03,0.02 -0.03,0.02 -0.04,0.01 -0.04,0.01 -0.05,0.02 -0.02,0 -0.02,0 -0.03,0.01 -0.03,0 -0.02,0.01 -0.03,0 -0.03,0 -0.03,0 -0.03,0 -0.04,0.01 -0.03,0 -0.04,0 -0.03,0 -0.04,0 -0.04,0 -0.04,0 -0.04,0 -0.04,0 -0.05,0 -0.04,0 c -2.24,-2.2 -5.39,-2.23 -6.83,-2.23 l 0,-1.25 c 0.84,0 3.14,0 5.04,0.97 l 0,-17.77 c 0,-1.16 0,-1.61 -3.48,-1.61 l -1.31,0 0,-1.25 c 0.62,0.03 4.9,0.14 6.2,0.14 1.08,0 5.47,-0.11 6.24,-0.14 l 0,1.25 -1.33,0 c -3.49,0 -3.49,0.45 -3.49,1.61 z"
           inkscape:connector-curvature="0"
           style="fill:#000000;stroke-width:0" /></g></g><g
       id="g12779"
       transform="matrix(0.75073941,0,0,0.75073941,405.3055,-73.10018)"><g
         id="g12781"
         transform="matrix(1.1571429,0,0,-1.1571429,-202.5,1078.125)"
         xml:space="preserve"
         stroke-miterlimit="10.433"
         font-style="normal"
         font-variant="normal"
         font-weight="normal"
         font-stretch="normal"
         font-size-adjust="none"
         letter-spacing="normal"
         word-spacing="normal"
         style="font-style:normal;font-variant:normal;font-weight:normal;font-stretch:normal;letter-spacing:normal;word-spacing:normal;text-anchor:start;fill:none;fill-opacity:1;fill-rule:evenodd;stroke:#000000;stroke-linecap:butt;stroke-linejoin:miter;stroke-miterlimit:10.43299961;stroke-dasharray:none;stroke-dashoffset:0;stroke-opacity:1"><path
           d="m 474.1,425.03 -0.09,0.17 -0.09,0.17 -0.09,0.16 -0.09,0.16 -0.1,0.16 -0.1,0.16 -0.11,0.15 -0.11,0.14 -0.11,0.15 -0.12,0.13 -0.12,0.14 -0.12,0.13 -0.13,0.12 -0.13,0.12 -0.14,0.11 -0.14,0.11 -0.14,0.11 -0.15,0.09 -0.15,0.1 -0.15,0.08 -0.16,0.08 -0.17,0.08 -0.17,0.06 -0.17,0.07 -0.17,0.05 -0.18,0.05 -0.19,0.04 -0.19,0.03 -0.19,0.03 -0.2,0.02 -0.2,0.01 -0.21,0 0.05,-1.09 c 3.23,0 3.93,-4.08 3.93,-4.37 0,-0.32 -0.09,-0.61 -0.14,-0.86 l -2.5,-9.77 c -0.25,-0.89 -0.25,-0.98 -1,-1.84 -2.18,-2.74 -4.23,-3.53 -5.62,-3.53 -2.49,0 -3.19,2.73 -3.19,4.68 0,2.49 1.59,8.61 2.74,10.91 1.54,2.94 3.79,4.78 5.78,4.78 l -0.05,1.09 c -5.83,0 -12,-7.31 -12,-14.59 0,-4.69 2.73,-7.97 6.62,-7.97 0.99,0 3.49,0.21 6.47,3.74 0.41,-2.1 2.14,-3.74 4.53,-3.74 1.75,0 2.9,1.14 3.69,2.74 0.85,1.79 1.5,4.84 1.5,4.93 0,0.5 -0.45,0.5 -0.59,0.5 -0.5,0 -0.55,-0.2 -0.7,-0.9 -0.85,-3.24 -1.75,-6.17 -3.79,-6.17 -1.34,0 -1.5,1.29 -1.5,2.29 0,1.1 0.1,1.49 0.64,3.69 0.57,2.09 0.66,2.59 1.11,4.48 l 1.79,6.97 c 0.35,1.39 0.35,1.5 0.35,1.69 0,0.86 -0.6,1.36 -1.45,1.36 -1.19,0 -1.94,-1.11 -2.09,-2.2 z"
           id="path12783"
           inkscape:connector-curvature="0"
           style="fill:#000000;stroke-width:0" /><path
           d="m 499.39,405.11 -1.18,0 c -0.1,-0.77 -0.46,-2.83 -0.91,-3.18 -0.26,-0.2 -2.95,-0.2 -3.44,-0.2 l -6.42,0 c 3.66,3.23 4.88,4.2 6.97,5.84 2.58,2.07 4.98,4.22 4.98,7.54 0,4.21 -3.68,6.79 -8.15,6.79 -4.31,0 -7.25,-3.03 -7.25,-6.23 0,-1.78 1.5,-1.96 1.86,-1.96 0.83,0 1.84,0.6 1.84,1.85 0,0.62 -0.25,1.84 -2.06,1.84 1.08,2.47 3.45,3.24 5.09,3.24 3.49,0 5.3,-2.71 5.3,-5.53 0,-3.04 -2.16,-5.44 -3.28,-6.69 l -8.39,-8.3 c -0.36,-0.31 -0.36,-0.39 -0.36,-1.36 l 14.36,0 z"
           id="path12785"
           inkscape:connector-curvature="0"
           style="fill:#000000;stroke-width:0" /></g></g><g
       id="g12991"
       transform="matrix(0.78070422,0,0,0.78070422,490.86641,-4.7691963)"><g
         word-spacing="normal"
         letter-spacing="normal"
         font-size-adjust="none"
         font-stretch="normal"
         font-weight="normal"
         font-variant="normal"
         font-style="normal"
         stroke-miterlimit="10.433"
         xml:space="preserve"
         transform="matrix(1.1571429,0,0,-1.1571429,-202.5,1078.125)"
         id="g12993"
         style="font-style:normal;font-variant:normal;font-weight:normal;font-stretch:normal;letter-spacing:normal;word-spacing:normal;text-anchor:start;fill:none;fill-opacity:1;fill-rule:evenodd;stroke:#000000;stroke-linecap:butt;stroke-linejoin:miter;stroke-miterlimit:10.43299961;stroke-dasharray:none;stroke-dashoffset:0;stroke-opacity:1"><path
           id="path12995"
           d="m 468.68,427.96 -0.58,-0.15 -0.58,-0.18 -0.56,-0.21 -0.55,-0.24 -0.54,-0.26 -0.53,-0.28 -0.52,-0.31 -0.5,-0.33 -0.49,-0.35 -0.48,-0.38 -0.47,-0.39 -0.44,-0.41 -0.44,-0.42 -0.41,-0.45 -0.4,-0.46 -0.38,-0.47 -0.37,-0.49 -0.34,-0.5 -0.33,-0.51 -0.3,-0.52 -0.28,-0.53 -0.27,-0.53 -0.24,-0.55 -0.22,-0.55 -0.19,-0.56 -0.17,-0.56 -0.15,-0.57 -0.12,-0.56 -0.09,-0.57 -0.07,-0.57 -0.04,-0.57 -0.02,-0.57 c 0,-4.78 3.19,-8.35 7.88,-8.35 l 0,1.09 c -2.75,0 -4.78,2.09 -4.78,5.87 0,3.14 1.84,12.5 8.56,14.3 l 0,0 c 1.25,-2.28 2.73,-4.98 2.73,-8.56 0,-3.3 -1.89,-11.61 -6.51,-11.61 l 0,-1.09 c 5.83,0 9.95,7.81 9.95,14.68 0,4.55 -1.98,7.03 -3.69,9.27 -1.78,2.25 -4.71,5.98 -4.71,8.17 0,1.11 0.98,2.3 2.73,2.3 1.5,0 2.48,-0.64 3.53,-1.35 1,-0.59 2,-1.25 2.75,-1.25 1.24,0 1.99,1.21 1.99,2 0,1.1 -0.8,1.24 -2.6,1.64 -2.58,0.55 -3.28,0.55 -4.08,0.55 -3.89,0 -5.68,-2.14 -5.68,-5.12 0,-2.71 1.45,-5.49 3,-8.54 z"
           inkscape:connector-curvature="0"
           style="fill:#000000;stroke-width:0" /><path
           id="path12997"
           d="m 495.2,405.11 -1.19,0 c -0.1,-0.77 -0.46,-2.83 -0.91,-3.18 -0.26,-0.2 -2.95,-0.2 -3.44,-0.2 l -6.42,0 c 3.66,3.23 4.88,4.2 6.97,5.84 2.58,2.07 4.99,4.22 4.99,7.54 0,4.21 -3.69,6.79 -8.16,6.79 -4.31,0 -7.25,-3.03 -7.25,-6.23 0,-1.78 1.5,-1.96 1.86,-1.96 0.83,0 1.84,0.6 1.84,1.85 0,0.62 -0.25,1.84 -2.06,1.84 1.08,2.47 3.45,3.24 5.09,3.24 3.49,0 5.3,-2.71 5.3,-5.53 0,-3.04 -2.16,-5.44 -3.28,-6.69 l -8.39,-8.3 c -0.36,-0.31 -0.36,-0.39 -0.36,-1.36 l 14.36,0 z"
           inkscape:connector-curvature="0"
           style="fill:#000000;stroke-width:0" /></g></g><g
       id="g13211"
       transform="matrix(0.79877399,0,0,0.79877399,422.80822,-16.760475)"><g
         id="g13213"
         transform="matrix(1.1571429,0,0,-1.1571429,-202.5,1078.125)"
         xml:space="preserve"
         stroke-miterlimit="10.433"
         font-style="normal"
         font-variant="normal"
         font-weight="normal"
         font-stretch="normal"
         font-size-adjust="none"
         letter-spacing="normal"
         word-spacing="normal"
         style="font-style:normal;font-variant:normal;font-weight:normal;font-stretch:normal;letter-spacing:normal;word-spacing:normal;text-anchor:start;fill:none;fill-opacity:1;fill-rule:evenodd;stroke:#000000;stroke-linecap:butt;stroke-linejoin:miter;stroke-miterlimit:10.43299961;stroke-dasharray:none;stroke-dashoffset:0;stroke-opacity:1"><path
           d="m 468.68,427.96 -0.58,-0.15 -0.58,-0.18 -0.56,-0.21 -0.55,-0.24 -0.54,-0.26 -0.53,-0.28 -0.52,-0.31 -0.5,-0.33 -0.49,-0.35 -0.48,-0.38 -0.47,-0.39 -0.44,-0.41 -0.44,-0.42 -0.41,-0.45 -0.4,-0.46 -0.38,-0.47 -0.37,-0.49 -0.34,-0.5 -0.33,-0.51 -0.3,-0.52 -0.28,-0.53 -0.27,-0.53 -0.24,-0.55 -0.22,-0.55 -0.19,-0.56 -0.17,-0.56 -0.15,-0.57 -0.12,-0.56 -0.09,-0.57 -0.07,-0.57 -0.04,-0.57 -0.02,-0.57 c 0,-4.78 3.19,-8.35 7.88,-8.35 l 0,1.09 c -2.75,0 -4.78,2.09 -4.78,5.87 0,3.14 1.84,12.5 8.56,14.3 l 0,0 c 1.25,-2.28 2.73,-4.98 2.73,-8.56 0,-3.3 -1.89,-11.61 -6.51,-11.61 l 0,-1.09 c 5.83,0 9.95,7.81 9.95,14.68 0,4.55 -1.98,7.03 -3.69,9.27 -1.78,2.25 -4.71,5.98 -4.71,8.17 0,1.11 0.98,2.3 2.73,2.3 1.5,0 2.48,-0.64 3.53,-1.35 1,-0.59 2,-1.25 2.75,-1.25 1.24,0 1.99,1.21 1.99,2 0,1.1 -0.8,1.24 -2.6,1.64 -2.58,0.55 -3.28,0.55 -4.08,0.55 -3.89,0 -5.68,-2.14 -5.68,-5.12 0,-2.71 1.45,-5.49 3,-8.54 z"
           id="path13215"
           inkscape:connector-curvature="0"
           style="fill:#000000;stroke-width:0" /><path
           d="m 489.27,420.92 0,0.04 0,0.04 0,0.05 0,0.04 0,0.03 0,0.04 0,0.04 0,0.03 0,0.04 0,0.03 -0.01,0.03 0,0.03 0,0.03 0,0.03 -0.01,0.03 0,0.02 -0.01,0.03 0,0.02 -0.01,0.03 0,0.02 -0.01,0.04 -0.02,0.04 -0.02,0.03 -0.01,0.03 -0.03,0.03 -0.02,0.03 -0.03,0.02 -0.03,0.02 -0.03,0.02 -0.04,0.01 -0.04,0.01 -0.04,0.02 -0.03,0 -0.02,0 -0.03,0.01 -0.02,0 -0.03,0.01 -0.03,0 -0.03,0 -0.03,0 -0.03,0 -0.04,0.01 -0.03,0 -0.04,0 -0.03,0 -0.04,0 -0.04,0 -0.04,0 -0.04,0 -0.04,0 -0.05,0 -0.04,0 c -2.24,-2.2 -5.39,-2.23 -6.83,-2.23 l 0,-1.25 c 0.84,0 3.14,0 5.05,0.97 l 0,-17.77 c 0,-1.16 0,-1.61 -3.49,-1.61 l -1.31,0 0,-1.25 c 0.62,0.03 4.9,0.14 6.2,0.14 1.08,0 5.47,-0.11 6.24,-0.14 l 0,1.25 -1.33,0 c -3.49,0 -3.49,0.45 -3.49,1.61 z"
           id="path13217"
           inkscape:connector-curvature="0"
           style="fill:#000000;stroke-width:0" /></g></g><g
       id="g13439"
       transform="matrix(0.7786438,0,0,0.7786438,501.13732,-101.259)"><g
         word-spacing="normal"
         letter-spacing="normal"
         font-size-adjust="none"
         font-stretch="normal"
         font-weight="normal"
         font-variant="normal"
         font-style="normal"
         stroke-miterlimit="10.433"
         xml:space="preserve"
         transform="matrix(1.1571429,0,0,-1.1571429,-202.5,1078.125)"
         id="g13441"
         style="font-style:normal;font-variant:normal;font-weight:normal;font-stretch:normal;letter-spacing:normal;word-spacing:normal;text-anchor:start;fill:none;fill-opacity:1;fill-rule:evenodd;stroke:#000000;stroke-linecap:butt;stroke-linejoin:miter;stroke-miterlimit:10.43299961;stroke-dasharray:none;stroke-dashoffset:0;stroke-opacity:1"><path
           id="path13443"
           d="m 468.68,427.96 -0.58,-0.15 -0.58,-0.18 -0.56,-0.21 -0.55,-0.24 -0.54,-0.26 -0.53,-0.28 -0.52,-0.31 -0.5,-0.33 -0.49,-0.35 -0.48,-0.38 -0.47,-0.39 -0.44,-0.41 -0.44,-0.42 -0.41,-0.45 -0.4,-0.46 -0.38,-0.47 -0.37,-0.49 -0.34,-0.5 -0.33,-0.51 -0.3,-0.52 -0.28,-0.53 -0.27,-0.53 -0.24,-0.55 -0.22,-0.55 -0.19,-0.56 -0.17,-0.56 -0.15,-0.57 -0.12,-0.56 -0.09,-0.57 -0.07,-0.57 -0.04,-0.57 -0.02,-0.57 c 0,-4.78 3.19,-8.35 7.88,-8.35 l 0,1.09 c -2.75,0 -4.78,2.09 -4.78,5.87 0,3.14 1.84,12.5 8.56,14.3 l 0,0 c 1.25,-2.28 2.73,-4.98 2.73,-8.56 0,-3.3 -1.89,-11.61 -6.51,-11.61 l 0,-1.09 c 5.83,0 9.95,7.81 9.95,14.68 0,4.55 -1.98,7.03 -3.69,9.27 -1.78,2.25 -4.71,5.98 -4.71,8.17 0,1.11 0.98,2.3 2.73,2.3 1.5,0 2.48,-0.64 3.53,-1.35 1,-0.59 2,-1.25 2.75,-1.25 1.24,0 1.99,1.21 1.99,2 0,1.1 -0.8,1.24 -2.6,1.64 -2.58,0.55 -3.28,0.55 -4.08,0.55 -3.89,0 -5.68,-2.14 -5.68,-5.12 0,-2.71 1.45,-5.49 3,-8.54 z"
           inkscape:connector-curvature="0"
           style="fill:#000000;stroke-width:0" /><path
           id="path13445"
           d="m 487.12,410.4 0.25,0 0.25,-0.02 0.24,-0.03 0.24,-0.04 0.23,-0.05 0.23,-0.06 0.22,-0.07 0.21,-0.08 0.21,-0.1 0.21,-0.1 0.19,-0.12 0.19,-0.12 0.18,-0.14 0.18,-0.15 0.16,-0.16 0.16,-0.17 0.15,-0.18 0.15,-0.19 0.13,-0.2 0.13,-0.22 0.11,-0.22 0.11,-0.24 0.1,-0.24 0.09,-0.26 0.08,-0.27 0.07,-0.28 0.06,-0.29 0.05,-0.3 0.04,-0.31 0.03,-0.32 0.01,-0.33 0.01,-0.35 c 0,-4.33 -2.52,-5.61 -4.53,-5.61 -1.39,0 -4.47,0.38 -5.92,2.44 1.62,0.06 2.01,1.22 2.01,1.95 0,1.11 -0.84,1.91 -1.92,1.91 -0.97,0 -1.95,-0.59 -1.95,-2.02 0,-3.28 3.62,-5.4 7.84,-5.4 4.84,0 8.19,3.25 8.19,6.73 0,2.72 -2.22,5.44 -6.06,6.24 3.65,1.33 4.98,3.93 4.98,6.06 0,2.75 -3.17,4.81 -7.03,4.81 -3.88,0 -6.83,-1.89 -6.83,-4.67 0,-1.19 0.77,-1.84 1.81,-1.84 1.08,0 1.77,0.79 1.77,1.76 0,1.02 -0.69,1.75 -1.77,1.81 1.22,1.55 3.61,1.93 4.91,1.93 1.56,0 3.76,-0.77 3.76,-3.8 0,-1.47 -0.48,-3.06 -1.39,-4.14 -1.15,-1.33 -2.12,-1.41 -3.87,-1.5 -0.88,-0.08 -0.94,-0.08 -1.11,-0.11 -0.08,0 -0.36,-0.06 -0.36,-0.45 0,-0.49 0.31,-0.49 0.91,-0.49 z"
           inkscape:connector-curvature="0"
           style="fill:#000000;stroke-width:0" /></g></g></g></svg>