<?xml version="1.0" encoding="UTF-8" standalone="no"?>
<!-- Created with Inkscape (http://www.inkscape.org/) -->

<svg
   xmlns:dc="http://purl.org/dc/elements/1.1/"
   xmlns:cc="http://creativecommons.org/ns#"
   xmlns:rdf="http://www.w3.org/1999/02/22-rdf-syntax-ns#"
   xmlns:svg="http://www.w3.org/2000/svg"
   xmlns="http://www.w3.org/2000/svg"
   xmlns:sodipodi="http://sodipodi.sourceforge.net/DTD/sodipodi-0.dtd"
   xmlns:inkscape="http://www.inkscape.org/namespaces/inkscape"
   width="162.27777mm"
   height="130.1494mm"
   viewBox="0 0 574.99998 461.15929"
   id="svg2"
   version="1.1"
   inkscape:version="0.92.2 (5c3e80d, 2017-08-06)"
   sodipodi:docname="hourglass_csch.svg">
  <sodipodi:namedview
     id="base"
     pagecolor="#ffffff"
     bordercolor="#666666"
     borderopacity="1.0"
     inkscape:pageopacity="0.0"
     inkscape:pageshadow="2"
     inkscape:zoom="1.4142136"
     inkscape:cx="277.15577"
     inkscape:cy="232.18777"
     inkscape:document-units="px"
     inkscape:current-layer="layer1"
     showgrid="true"
     showguides="false"
     inkscape:window-width="1920"
     inkscape:window-height="1025"
     inkscape:window-x="0"
     inkscape:window-y="27"
     inkscape:window-maximized="1"
     inkscape:guide-bbox="true"
     objecttolerance="10000"
     guidetolerance="10000"
     inkscape:snap-tangential="true"
     fit-margin-top="0"
     fit-margin-left="0"
     fit-margin-right="0"
     fit-margin-bottom="0">
    <inkscape:grid
       originy="-479.36722"
       originx="-49.999998"
       type="xygrid"
       id="grid4153" />
    <sodipodi:guide
       position="199.37501,264.07029"
       orientation="1,0"
       id="guide5057"
       inkscape:locked="false" />
  </sodipodi:namedview>
  <defs
     id="defs4">
    <marker
       inkscape:isstock="true"
       style="overflow:visible"
       id="marker4947"
       refX="0"
       refY="0"
       orient="auto"
       inkscape:stockid="Arrow2Mstart">
      <path
         transform="scale(0.6,0.6)"
         d="M 8.7185878,4.0337352 -2.2072895,0.01601326 8.7185884,-4.0017078 c -1.7454984,2.3720609 -1.7354408,5.6174519 -6e-7,8.035443 z"
         style="fill:#000000;fill-opacity:1;fill-rule:evenodd;stroke:#000000;stroke-width:0.625;stroke-linejoin:round;stroke-opacity:1"
         id="path4945"
         inkscape:connector-curvature="0" />
    </marker>
    <marker
       inkscape:stockid="Arrow1Send"
       orient="auto"
       refY="0.0"
       refX="0.0"
       id="marker6048"
       style="overflow:visible;"
       inkscape:isstock="true">
      <path
         id="path6050"
         d="M 0.0,0.0 L 5.0,-5.0 L -12.5,0.0 L 5.0,5.0 L 0.0,0.0 z "
         style="fill-rule:evenodd;stroke:#000000;stroke-width:1pt;stroke-opacity:1;fill:#000000;fill-opacity:1"
         transform="scale(0.2) rotate(180) translate(6,0)" />
    </marker>
    <marker
       inkscape:isstock="true"
       style="overflow:visible;"
       id="marker5839"
       refX="0.0"
       refY="0.0"
       orient="auto"
       inkscape:stockid="Arrow1Send">
      <path
         transform="scale(0.2) rotate(180) translate(6,0)"
         style="fill-rule:evenodd;stroke:#000000;stroke-width:1pt;stroke-opacity:1;fill:#000000;fill-opacity:1"
         d="M 0.0,0.0 L 5.0,-5.0 L -12.5,0.0 L 5.0,5.0 L 0.0,0.0 z "
         id="path5595" />
    </marker>
    <marker
       inkscape:isstock="true"
       style="overflow:visible;"
       id="marker5836"
       refX="0.0"
       refY="0.0"
       orient="auto"
       inkscape:stockid="Arrow1Mend">
      <path
         transform="scale(0.4) rotate(180) translate(10,0)"
         style="fill-rule:evenodd;stroke:#000000;stroke-width:1pt;stroke-opacity:1;fill:#000000;fill-opacity:1"
         d="M 0.0,0.0 L 5.0,-5.0 L -12.5,0.0 L 5.0,5.0 L 0.0,0.0 z "
         id="path5589" />
    </marker>
    <inkscape:perspective
       id="perspective5537"
       inkscape:persp3d-origin="287.49999 : 153.71976 : 1"
       inkscape:vp_z="574.99998 : 230.57964 : 1"
       inkscape:vp_y="0 : 1000 : 0"
       inkscape:vp_x="0 : 230.57964 : 1"
       sodipodi:type="inkscape:persp3d" />
    <marker
       inkscape:isstock="true"
       style="overflow:visible"
       id="marker9817"
       refX="0"
       refY="0"
       orient="auto"
       inkscape:stockid="Arrow1Send">
      <path
         inkscape:connector-curvature="0"
         transform="matrix(-0.2,0,0,-0.2,-1.2,0)"
         style="fill:#000000;fill-opacity:1;fill-rule:evenodd;stroke:#000000;stroke-width:1pt;stroke-opacity:1"
         d="M 0,0 5,-5 -12.5,0 5,5 0,0 Z"
         id="path9819" />
    </marker>
    <marker
       inkscape:isstock="true"
       style="overflow:visible"
       id="marker9332"
       refX="0"
       refY="0"
       orient="auto"
       inkscape:stockid="Arrow1Sstart">
      <path
         inkscape:connector-curvature="0"
         transform="matrix(0.2,0,0,0.2,1.2,0)"
         style="fill:#000000;fill-opacity:1;fill-rule:evenodd;stroke:#000000;stroke-width:1pt;stroke-opacity:1"
         d="M 0,0 5,-5 -12.5,0 5,5 0,0 Z"
         id="path9334" />
    </marker>
    <marker
       inkscape:isstock="true"
       style="overflow:visible"
       id="marker9329"
       refX="0"
       refY="0"
       orient="auto"
       inkscape:stockid="Arrow1Sstart">
      <path
         inkscape:connector-curvature="0"
         transform="matrix(0.2,0,0,0.2,1.2,0)"
         style="fill:#000000;fill-opacity:1;fill-rule:evenodd;stroke:#000000;stroke-width:1pt;stroke-opacity:1"
         d="M 0,0 5,-5 -12.5,0 5,5 0,0 Z"
         id="path9062" />
    </marker>
    <marker
       inkscape:isstock="true"
       style="overflow:visible"
       id="marker9325"
       refX="0"
       refY="0"
       orient="auto"
       inkscape:stockid="Arrow1Send">
      <path
         inkscape:connector-curvature="0"
         transform="matrix(-0.2,0,0,-0.2,-1.2,0)"
         style="fill:#000000;fill-opacity:1;fill-rule:evenodd;stroke:#000000;stroke-width:1pt;stroke-opacity:1"
         d="M 0,0 5,-5 -12.5,0 5,5 0,0 Z"
         id="path9327" />
    </marker>
    <marker
       inkscape:isstock="true"
       style="overflow:visible"
       id="marker9321"
       refX="0"
       refY="0"
       orient="auto"
       inkscape:stockid="Arrow1Send">
      <path
         inkscape:connector-curvature="0"
         transform="matrix(-0.2,0,0,-0.2,-1.2,0)"
         style="fill:#000000;fill-opacity:1;fill-rule:evenodd;stroke:#000000;stroke-width:1pt;stroke-opacity:1"
         d="M 0,0 5,-5 -12.5,0 5,5 0,0 Z"
         id="path9323" />
    </marker>
    <marker
       inkscape:isstock="true"
       style="overflow:visible"
       id="marker9317"
       refX="0"
       refY="0"
       orient="auto"
       inkscape:stockid="Arrow1Send">
      <path
         inkscape:connector-curvature="0"
         transform="matrix(-0.2,0,0,-0.2,-1.2,0)"
         style="fill:#000000;fill-opacity:1;fill-rule:evenodd;stroke:#000000;stroke-width:1pt;stroke-opacity:1"
         d="M 0,0 5,-5 -12.5,0 5,5 0,0 Z"
         id="path9319" />
    </marker>
    <marker
       inkscape:isstock="true"
       style="overflow:visible"
       id="marker9311"
       refX="0"
       refY="0"
       orient="auto"
       inkscape:stockid="Arrow1Send">
      <path
         inkscape:connector-curvature="0"
         transform="matrix(-0.2,0,0,-0.2,-1.2,0)"
         style="fill:#000000;fill-opacity:1;fill-rule:evenodd;stroke:#000000;stroke-width:1pt;stroke-opacity:1"
         d="M 0,0 5,-5 -12.5,0 5,5 0,0 Z"
         id="path9313" />
    </marker>
    <marker
       inkscape:isstock="true"
       style="overflow:visible"
       id="marker9308"
       refX="0"
       refY="0"
       orient="auto"
       inkscape:stockid="Arrow1Send">
      <path
         inkscape:connector-curvature="0"
         transform="matrix(-0.2,0,0,-0.2,-1.2,0)"
         style="fill:#000000;fill-opacity:1;fill-rule:evenodd;stroke:#000000;stroke-width:1pt;stroke-opacity:1"
         d="M 0,0 5,-5 -12.5,0 5,5 0,0 Z"
         id="path9065" />
    </marker>
    <marker
       inkscape:isstock="true"
       style="overflow:visible"
       id="Arrow1Mend"
       refX="0"
       refY="0"
       orient="auto"
       inkscape:stockid="Arrow1Mend">
      <path
         inkscape:connector-curvature="0"
         transform="matrix(-0.4,0,0,-0.4,-4,0)"
         style="fill:#000000;fill-opacity:1;fill-rule:evenodd;stroke:#000000;stroke-width:1pt;stroke-opacity:1"
         d="M 0,0 5,-5 -12.5,0 5,5 0,0 Z"
         id="path9059" />
    </marker>
    <marker
       inkscape:stockid="Arrow2Mstart"
       orient="auto"
       refY="0"
       refX="0"
       id="marker7770"
       style="overflow:visible"
       inkscape:isstock="true">
      <path
         inkscape:connector-curvature="0"
         id="path7772"
         style="fill:#000000;fill-opacity:1;fill-rule:evenodd;stroke:#000000;stroke-width:0.625;stroke-linejoin:round;stroke-opacity:1"
         d="M 8.7185878,4.0337352 -2.2072895,0.01601326 8.7185884,-4.0017078 c -1.7454984,2.3720609 -1.7354408,5.6174519 -6e-7,8.035443 z"
         transform="scale(0.6,0.6)" />
    </marker>
    <marker
       inkscape:stockid="Arrow2Mend"
       orient="auto"
       refY="0"
       refX="0"
       id="Arrow2Mend"
       style="overflow:visible"
       inkscape:isstock="true">
      <path
         inkscape:connector-curvature="0"
         id="path4216"
         style="fill:#000000;fill-opacity:1;fill-rule:evenodd;stroke:#000000;stroke-width:0.625;stroke-linejoin:round;stroke-opacity:1"
         d="M 8.7185878,4.0337352 -2.2072895,0.01601326 8.7185884,-4.0017078 c -1.7454984,2.3720609 -1.7354408,5.6174519 -6e-7,8.035443 z"
         transform="scale(-0.6,-0.6)" />
    </marker>
    <marker
       inkscape:stockid="Arrow1Send"
       orient="auto"
       refY="0"
       refX="0"
       id="Arrow1Send"
       style="overflow:visible"
       inkscape:isstock="true">
      <path
         inkscape:connector-curvature="0"
         id="path4204"
         d="M 0,0 5,-5 -12.5,0 5,5 0,0 Z"
         style="fill:#000000;fill-opacity:1;fill-rule:evenodd;stroke:#000000;stroke-width:1pt;stroke-opacity:1"
         transform="matrix(-0.2,0,0,-0.2,-1.2,0)" />
    </marker>
    <marker
       inkscape:stockid="Arrow2Mstart"
       orient="auto"
       refY="0"
       refX="0"
       id="marker7444"
       style="overflow:visible"
       inkscape:isstock="true">
      <path
         inkscape:connector-curvature="0"
         id="path7446"
         style="fill:#000000;fill-opacity:1;fill-rule:evenodd;stroke:#000000;stroke-width:0.625;stroke-linejoin:round;stroke-opacity:1"
         d="M 8.7185878,4.0337352 -2.2072895,0.01601326 8.7185884,-4.0017078 c -1.7454984,2.3720609 -1.7354408,5.6174519 -6e-7,8.035443 z"
         transform="scale(0.6,0.6)" />
    </marker>
    <marker
       inkscape:stockid="Arrow2Mstart"
       orient="auto"
       refY="0"
       refX="0"
       id="marker7374"
       style="overflow:visible"
       inkscape:isstock="true">
      <path
         inkscape:connector-curvature="0"
         id="path7376"
         style="fill:#000000;fill-opacity:1;fill-rule:evenodd;stroke:#000000;stroke-width:0.625;stroke-linejoin:round;stroke-opacity:1"
         d="M 8.7185878,4.0337352 -2.2072895,0.01601326 8.7185884,-4.0017078 c -1.7454984,2.3720609 -1.7354408,5.6174519 -6e-7,8.035443 z"
         transform="scale(0.6,0.6)" />
    </marker>
    <marker
       inkscape:stockid="Arrow2Mstart"
       orient="auto"
       refY="0"
       refX="0"
       id="Arrow2Mstart"
       style="overflow:visible"
       inkscape:isstock="true">
      <path
         inkscape:connector-curvature="0"
         id="path4213"
         style="fill:#000000;fill-opacity:1;fill-rule:evenodd;stroke:#000000;stroke-width:0.625;stroke-linejoin:round;stroke-opacity:1"
         d="M 8.7185878,4.0337352 -2.2072895,0.01601326 8.7185884,-4.0017078 c -1.7454984,2.3720609 -1.7354408,5.6174519 -6e-7,8.035443 z"
         transform="scale(0.6,0.6)" />
    </marker>
    <marker
       inkscape:stockid="Arrow1Sstart"
       orient="auto"
       refY="0"
       refX="0"
       id="marker7218"
       style="overflow:visible"
       inkscape:isstock="true">
      <path
         inkscape:connector-curvature="0"
         id="path7220"
         d="M 0,0 5,-5 -12.5,0 5,5 0,0 Z"
         style="fill:#000000;fill-opacity:1;fill-rule:evenodd;stroke:#000000;stroke-width:1pt;stroke-opacity:1"
         transform="matrix(0.2,0,0,0.2,1.2,0)" />
    </marker>
    <marker
       inkscape:stockid="Arrow1Mstart"
       orient="auto"
       refY="0"
       refX="0"
       id="Arrow1Mstart"
       style="overflow:visible"
       inkscape:isstock="true">
      <path
         inkscape:connector-curvature="0"
         id="path4195"
         d="M 0,0 5,-5 -12.5,0 5,5 0,0 Z"
         style="fill:#000000;fill-opacity:1;fill-rule:evenodd;stroke:#000000;stroke-width:1pt;stroke-opacity:1"
         transform="matrix(0.4,0,0,0.4,4,0)" />
    </marker>
    <marker
       inkscape:stockid="Arrow1Sstart"
       orient="auto"
       refY="0"
       refX="0"
       id="Arrow1Sstart"
       style="overflow:visible"
       inkscape:isstock="true">
      <path
         inkscape:connector-curvature="0"
         id="path4201"
         d="M 0,0 5,-5 -12.5,0 5,5 0,0 Z"
         style="fill:#000000;fill-opacity:1;fill-rule:evenodd;stroke:#000000;stroke-width:1pt;stroke-opacity:1"
         transform="matrix(0.2,0,0,0.2,1.2,0)" />
    </marker>
    <marker
       inkscape:stockid="TriangleOutM"
       orient="auto"
       refY="0"
       refX="0"
       id="TriangleOutM"
       style="overflow:visible"
       inkscape:isstock="true">
      <path
         inkscape:connector-curvature="0"
         id="path4334"
         d="m 5.77,0 -8.65,5 0,-10 8.65,5 z"
         style="fill:#000000;fill-opacity:1;fill-rule:evenodd;stroke:#000000;stroke-width:1pt;stroke-opacity:1"
         transform="scale(0.4,0.4)" />
    </marker>
    <marker
       inkscape:stockid="Arrow1Lend"
       orient="auto"
       refY="0"
       refX="0"
       id="Arrow1Lend"
       style="overflow:visible"
       inkscape:isstock="true">
      <path
         inkscape:connector-curvature="0"
         id="path4192"
         d="M 0,0 5,-5 -12.5,0 5,5 0,0 Z"
         style="fill:#000000;fill-opacity:1;fill-rule:evenodd;stroke:#000000;stroke-width:1pt;stroke-opacity:1"
         transform="matrix(-0.8,0,0,-0.8,-10,0)" />
    </marker>
    <marker
       inkscape:stockid="TriangleOutM"
       orient="auto"
       refY="0"
       refX="0"
       id="TriangleOutM-9"
       style="overflow:visible"
       inkscape:isstock="true">
      <path
         inkscape:connector-curvature="0"
         id="path4334-6"
         d="m 5.77,0 -8.65,5 0,-10 8.65,5 z"
         style="fill:#000000;fill-opacity:1;fill-rule:evenodd;stroke:#000000;stroke-width:1pt;stroke-opacity:1"
         transform="scale(0.4,0.4)" />
    </marker>
    <marker
       inkscape:stockid="TriangleOutM"
       orient="auto"
       refY="0"
       refX="0"
       id="TriangleOutM-8"
       style="overflow:visible"
       inkscape:isstock="true">
      <path
         inkscape:connector-curvature="0"
         id="path4334-5"
         d="m 5.77,0 -8.65,5 0,-10 8.65,5 z"
         style="fill:#000000;fill-opacity:1;fill-rule:evenodd;stroke:#000000;stroke-width:1pt;stroke-opacity:1"
         transform="scale(0.4,0.4)" />
    </marker>
    <marker
       inkscape:stockid="Arrow1Sstart"
       orient="auto"
       refY="0"
       refX="0"
       id="marker7218-1"
       style="overflow:visible"
       inkscape:isstock="true">
      <path
         inkscape:connector-curvature="0"
         id="path7220-1"
         d="M 0,0 5,-5 -12.5,0 5,5 0,0 Z"
         style="fill:#000000;fill-opacity:1;fill-rule:evenodd;stroke:#000000;stroke-width:1pt;stroke-opacity:1"
         transform="matrix(0.2,0,0,0.2,1.2,0)" />
    </marker>
    <marker
       inkscape:stockid="Arrow1Send"
       orient="auto"
       refY="0"
       refX="0"
       id="Arrow1Send-5"
       style="overflow:visible"
       inkscape:isstock="true">
      <path
         inkscape:connector-curvature="0"
         id="path4204-9"
         d="M 0,0 5,-5 -12.5,0 5,5 0,0 Z"
         style="fill:#000000;fill-opacity:1;fill-rule:evenodd;stroke:#000000;stroke-width:1pt;stroke-opacity:1"
         transform="matrix(-0.2,0,0,-0.2,-1.2,0)" />
    </marker>
    <marker
       inkscape:stockid="Arrow1Send"
       orient="auto"
       refY="0"
       refX="0"
       id="Arrow1Send-4"
       style="overflow:visible"
       inkscape:isstock="true">
      <path
         inkscape:connector-curvature="0"
         id="path4204-6"
         d="M 0,0 5,-5 -12.5,0 5,5 0,0 Z"
         style="fill:#000000;fill-opacity:1;fill-rule:evenodd;stroke:#000000;stroke-width:1pt;stroke-opacity:1"
         transform="matrix(-0.2,0,0,-0.2,-1.2,0)" />
    </marker>
    <marker
       inkscape:stockid="Arrow1Send"
       orient="auto"
       refY="0"
       refX="0"
       id="Arrow1Send-4-9"
       style="overflow:visible"
       inkscape:isstock="true">
      <path
         inkscape:connector-curvature="0"
         id="path4204-6-8"
         d="M 0,0 5,-5 -12.5,0 5,5 0,0 Z"
         style="fill:#000000;fill-opacity:1;fill-rule:evenodd;stroke:#000000;stroke-width:1pt;stroke-opacity:1"
         transform="matrix(-0.2,0,0,-0.2,-1.2,0)" />
    </marker>
    <marker
       inkscape:stockid="Arrow2Mstart"
       orient="auto"
       refY="0"
       refX="0"
       id="marker7770-9"
       style="overflow:visible"
       inkscape:isstock="true"
       inkscape:collect="always">
      <path
         inkscape:connector-curvature="0"
         id="path7772-4"
         style="fill:#000000;fill-opacity:1;fill-rule:evenodd;stroke:#000000;stroke-width:0.625;stroke-linejoin:round;stroke-opacity:1"
         d="M 8.7185878,4.0337352 -2.2072895,0.01601326 8.7185884,-4.0017078 c -1.7454984,2.3720609 -1.7354408,5.6174519 -6e-7,8.035443 z"
         transform="scale(0.6,0.6)" />
    </marker>
    <marker
       inkscape:stockid="Arrow2Mend"
       orient="auto"
       refY="0"
       refX="0"
       id="Arrow2Mend-8"
       style="overflow:visible"
       inkscape:isstock="true">
      <path
         inkscape:connector-curvature="0"
         id="path4216-1"
         style="fill:#000000;fill-opacity:1;fill-rule:evenodd;stroke:#000000;stroke-width:0.625;stroke-linejoin:round;stroke-opacity:1"
         d="M 8.7185878,4.0337352 -2.2072895,0.01601326 8.7185884,-4.0017078 c -1.7454984,2.3720609 -1.7354408,5.6174519 -6e-7,8.035443 z"
         transform="scale(-0.6,-0.6)" />
    </marker>
    <marker
       inkscape:isstock="true"
       style="overflow:visible"
       id="marker4672"
       refX="0"
       refY="0"
       orient="auto"
       inkscape:stockid="Arrow1Mstart">
      <path
         inkscape:connector-curvature="0"
         transform="matrix(0.4,0,0,0.4,4,0)"
         style="fill:#000000;fill-opacity:1;fill-rule:evenodd;stroke:#000000;stroke-width:1pt;stroke-opacity:1"
         d="M 0,0 5,-5 -12.5,0 5,5 0,0 Z"
         id="path4420" />
    </marker>
    <marker
       inkscape:isstock="true"
       style="overflow:visible"
       id="marker4679"
       refX="0"
       refY="0"
       orient="auto"
       inkscape:stockid="Arrow1Mstart">
      <path
         inkscape:connector-curvature="0"
         transform="matrix(0.4,0,0,0.4,4,0)"
         style="fill:#000000;fill-opacity:1;fill-rule:evenodd;stroke:#000000;stroke-width:1pt;stroke-opacity:1"
         d="M 0,0 5,-5 -12.5,0 5,5 0,0 Z"
         id="path4681" />
    </marker>
    <marker
       style="overflow:visible"
       id="TriangleInM"
       refX="0.0"
       refY="0.0"
       orient="auto"
       inkscape:stockid="TriangleInM">
      <path
         transform="scale(-0.4)"
         style="fill-rule:evenodd;stroke:#000000;stroke-width:1.0pt"
         d="M 5.77,0.0 L -2.88,5.0 L -2.88,-5.0 L 5.77,0.0 z "
         id="path4883" />
    </marker>
    <marker
       inkscape:stockid="Arrow2Mstart"
       orient="auto"
       refY="0.0"
       refX="0.0"
       id="marker7770-2"
       style="overflow:visible"
       inkscape:isstock="true">
      <path
         id="path7772-9"
         style="fill-rule:evenodd;stroke-width:0.625;stroke-linejoin:round;stroke:#000000;stroke-opacity:1;fill:#000000;fill-opacity:1"
         d="M 8.7185878,4.0337352 L -2.2072895,0.016013256 L 8.7185884,-4.0017078 C 6.9730900,-1.6296469 6.9831476,1.6157441 8.7185878,4.0337352 z "
         transform="scale(0.6) translate(0,0)" />
    </marker>
    <marker
       inkscape:stockid="Arrow2Mend"
       orient="auto"
       refY="0.0"
       refX="0.0"
       id="Arrow2Mend-1"
       style="overflow:visible;"
       inkscape:isstock="true">
      <path
         id="path4216-2"
         style="fill-rule:evenodd;stroke-width:0.625;stroke-linejoin:round;stroke:#000000;stroke-opacity:1;fill:#000000;fill-opacity:1"
         d="M 8.7185878,4.0337352 L -2.2072895,0.016013256 L 8.7185884,-4.0017078 C 6.9730900,-1.6296469 6.9831476,1.6157441 8.7185878,4.0337352 z "
         transform="scale(0.6) rotate(180) translate(0,0)" />
    </marker>
    <marker
       inkscape:stockid="Arrow1Send"
       orient="auto"
       refY="0.0"
       refX="0.0"
       id="Arrow1Send-7"
       style="overflow:visible;"
       inkscape:isstock="true">
      <path
         id="path4204-0"
         d="M 0.0,0.0 L 5.0,-5.0 L -12.5,0.0 L 5.0,5.0 L 0.0,0.0 z "
         style="fill-rule:evenodd;stroke:#000000;stroke-width:1pt;stroke-opacity:1;fill:#000000;fill-opacity:1"
         transform="scale(0.2) rotate(180) translate(6,0)" />
    </marker>
    <marker
       inkscape:stockid="Arrow2Mstart"
       orient="auto"
       refY="0.0"
       refX="0.0"
       id="marker7444-9"
       style="overflow:visible"
       inkscape:isstock="true">
      <path
         id="path7446-3"
         style="fill-rule:evenodd;stroke-width:0.625;stroke-linejoin:round;stroke:#000000;stroke-opacity:1;fill:#000000;fill-opacity:1"
         d="M 8.7185878,4.0337352 L -2.2072895,0.016013256 L 8.7185884,-4.0017078 C 6.9730900,-1.6296469 6.9831476,1.6157441 8.7185878,4.0337352 z "
         transform="scale(0.6) translate(0,0)" />
    </marker>
    <marker
       inkscape:stockid="Arrow2Mstart"
       orient="auto"
       refY="0.0"
       refX="0.0"
       id="marker7374-6"
       style="overflow:visible"
       inkscape:isstock="true">
      <path
         id="path7376-0"
         style="fill-rule:evenodd;stroke-width:0.625;stroke-linejoin:round;stroke:#000000;stroke-opacity:1;fill:#000000;fill-opacity:1"
         d="M 8.7185878,4.0337352 L -2.2072895,0.016013256 L 8.7185884,-4.0017078 C 6.9730900,-1.6296469 6.9831476,1.6157441 8.7185878,4.0337352 z "
         transform="scale(0.6) translate(0,0)" />
    </marker>
    <marker
       inkscape:stockid="Arrow2Mstart"
       orient="auto"
       refY="0.0"
       refX="0.0"
       id="Arrow2Mstart-6"
       style="overflow:visible"
       inkscape:isstock="true">
      <path
         id="path4213-2"
         style="fill-rule:evenodd;stroke-width:0.625;stroke-linejoin:round;stroke:#000000;stroke-opacity:1;fill:#000000;fill-opacity:1"
         d="M 8.7185878,4.0337352 L -2.2072895,0.016013256 L 8.7185884,-4.0017078 C 6.9730900,-1.6296469 6.9831476,1.6157441 8.7185878,4.0337352 z "
         transform="scale(0.6) translate(0,0)" />
    </marker>
    <marker
       inkscape:stockid="Arrow1Sstart"
       orient="auto"
       refY="0.0"
       refX="0.0"
       id="marker7218-6"
       style="overflow:visible"
       inkscape:isstock="true">
      <path
         id="path7220-18"
         d="M 0.0,0.0 L 5.0,-5.0 L -12.5,0.0 L 5.0,5.0 L 0.0,0.0 z "
         style="fill-rule:evenodd;stroke:#000000;stroke-width:1pt;stroke-opacity:1;fill:#000000;fill-opacity:1"
         transform="scale(0.2) translate(6,0)" />
    </marker>
    <marker
       inkscape:stockid="Arrow1Mstart"
       orient="auto"
       refY="0.0"
       refX="0.0"
       id="Arrow1Mstart-7"
       style="overflow:visible"
       inkscape:isstock="true">
      <path
         id="path4195-9"
         d="M 0.0,0.0 L 5.0,-5.0 L -12.5,0.0 L 5.0,5.0 L 0.0,0.0 z "
         style="fill-rule:evenodd;stroke:#000000;stroke-width:1pt;stroke-opacity:1;fill:#000000;fill-opacity:1"
         transform="scale(0.4) translate(10,0)" />
    </marker>
    <marker
       inkscape:stockid="Arrow1Sstart"
       orient="auto"
       refY="0.0"
       refX="0.0"
       id="Arrow1Sstart-2"
       style="overflow:visible"
       inkscape:isstock="true">
      <path
         id="path4201-0"
         d="M 0.0,0.0 L 5.0,-5.0 L -12.5,0.0 L 5.0,5.0 L 0.0,0.0 z "
         style="fill-rule:evenodd;stroke:#000000;stroke-width:1pt;stroke-opacity:1;fill:#000000;fill-opacity:1"
         transform="scale(0.2) translate(6,0)" />
    </marker>
    <marker
       inkscape:stockid="TriangleOutM"
       orient="auto"
       refY="0.0"
       refX="0.0"
       id="TriangleOutM-2"
       style="overflow:visible"
       inkscape:isstock="true">
      <path
         id="path4334-3"
         d="M 5.77,0.0 L -2.88,5.0 L -2.88,-5.0 L 5.77,0.0 z "
         style="fill-rule:evenodd;stroke:#000000;stroke-width:1pt;stroke-opacity:1;fill:#000000;fill-opacity:1"
         transform="scale(0.4)" />
    </marker>
    <marker
       inkscape:stockid="Arrow1Lend"
       orient="auto"
       refY="0.0"
       refX="0.0"
       id="Arrow1Lend-7"
       style="overflow:visible;"
       inkscape:isstock="true">
      <path
         id="path4192-5"
         d="M 0.0,0.0 L 5.0,-5.0 L -12.5,0.0 L 5.0,5.0 L 0.0,0.0 z "
         style="fill-rule:evenodd;stroke:#000000;stroke-width:1pt;stroke-opacity:1;fill:#000000;fill-opacity:1"
         transform="scale(0.8) rotate(180) translate(12.5,0)" />
    </marker>
    <marker
       inkscape:stockid="TriangleOutM"
       orient="auto"
       refY="0"
       refX="0"
       id="TriangleOutM-9-9"
       style="overflow:visible"
       inkscape:isstock="true">
      <path
         inkscape:connector-curvature="0"
         id="path4334-6-2"
         d="m 5.77,0 -8.65,5 0,-10 8.65,5 z"
         style="fill:#000000;fill-opacity:1;fill-rule:evenodd;stroke:#000000;stroke-width:1pt;stroke-opacity:1"
         transform="scale(0.4,0.4)" />
    </marker>
    <marker
       inkscape:stockid="TriangleOutM"
       orient="auto"
       refY="0"
       refX="0"
       id="TriangleOutM-8-2"
       style="overflow:visible"
       inkscape:isstock="true">
      <path
         inkscape:connector-curvature="0"
         id="path4334-5-8"
         d="m 5.77,0 -8.65,5 0,-10 8.65,5 z"
         style="fill:#000000;fill-opacity:1;fill-rule:evenodd;stroke:#000000;stroke-width:1pt;stroke-opacity:1"
         transform="scale(0.4,0.4)" />
    </marker>
    <marker
       inkscape:stockid="Arrow1Sstart"
       orient="auto"
       refY="0"
       refX="0"
       id="marker7218-1-9"
       style="overflow:visible"
       inkscape:isstock="true">
      <path
         inkscape:connector-curvature="0"
         id="path7220-1-7"
         d="M 0,0 5,-5 -12.5,0 5,5 0,0 Z"
         style="fill:#000000;fill-opacity:1;fill-rule:evenodd;stroke:#000000;stroke-width:1pt;stroke-opacity:1"
         transform="matrix(0.2,0,0,0.2,1.2,0)" />
    </marker>
    <marker
       inkscape:stockid="Arrow1Send"
       orient="auto"
       refY="0"
       refX="0"
       id="Arrow1Send-5-3"
       style="overflow:visible"
       inkscape:isstock="true">
      <path
         inkscape:connector-curvature="0"
         id="path4204-9-6"
         d="M 0,0 5,-5 -12.5,0 5,5 0,0 Z"
         style="fill:#000000;fill-opacity:1;fill-rule:evenodd;stroke:#000000;stroke-width:1pt;stroke-opacity:1"
         transform="matrix(-0.2,0,0,-0.2,-1.2,0)" />
    </marker>
    <marker
       inkscape:stockid="Arrow1Send"
       orient="auto"
       refY="0"
       refX="0"
       id="Arrow1Send-4-1"
       style="overflow:visible"
       inkscape:isstock="true">
      <path
         inkscape:connector-curvature="0"
         id="path4204-6-2"
         d="M 0,0 5,-5 -12.5,0 5,5 0,0 Z"
         style="fill:#000000;fill-opacity:1;fill-rule:evenodd;stroke:#000000;stroke-width:1pt;stroke-opacity:1"
         transform="matrix(-0.2,0,0,-0.2,-1.2,0)" />
    </marker>
    <marker
       inkscape:stockid="Arrow1Send"
       orient="auto"
       refY="0"
       refX="0"
       id="Arrow1Send-4-9-9"
       style="overflow:visible"
       inkscape:isstock="true">
      <path
         inkscape:connector-curvature="0"
         id="path4204-6-8-3"
         d="M 0,0 5,-5 -12.5,0 5,5 0,0 Z"
         style="fill:#000000;fill-opacity:1;fill-rule:evenodd;stroke:#000000;stroke-width:1pt;stroke-opacity:1"
         transform="matrix(-0.2,0,0,-0.2,-1.2,0)" />
    </marker>
    <marker
       inkscape:stockid="Arrow2Mstart"
       orient="auto"
       refY="0"
       refX="0"
       id="marker7770-9-1"
       style="overflow:visible"
       inkscape:isstock="true">
      <path
         inkscape:connector-curvature="0"
         id="path7772-4-9"
         style="fill:#000000;fill-opacity:1;fill-rule:evenodd;stroke:#000000;stroke-width:0.625;stroke-linejoin:round;stroke-opacity:1"
         d="M 8.7185878,4.0337352 -2.2072895,0.01601326 8.7185884,-4.0017078 c -1.7454984,2.3720609 -1.7354408,5.6174519 -6e-7,8.035443 z"
         transform="scale(0.6,0.6)" />
    </marker>
    <marker
       inkscape:stockid="Arrow2Mend"
       orient="auto"
       refY="0"
       refX="0"
       id="Arrow2Mend-8-4"
       style="overflow:visible"
       inkscape:isstock="true">
      <path
         inkscape:connector-curvature="0"
         id="path4216-1-7"
         style="fill:#000000;fill-opacity:1;fill-rule:evenodd;stroke:#000000;stroke-width:0.625;stroke-linejoin:round;stroke-opacity:1"
         d="M 8.7185878,4.0337352 -2.2072895,0.01601326 8.7185884,-4.0017078 c -1.7454984,2.3720609 -1.7354408,5.6174519 -6e-7,8.035443 z"
         transform="scale(-0.6,-0.6)" />
    </marker>
    <marker
       style="overflow:visible"
       id="TriangleInM-3"
       refX="0"
       refY="0"
       orient="auto"
       inkscape:stockid="TriangleInM">
      <path
         transform="scale(-0.4,-0.4)"
         style="fill-rule:evenodd;stroke:#000000;stroke-width:1pt"
         d="m 5.77,0 -8.65,5 0,-10 8.65,5 z"
         id="path4883-6"
         inkscape:connector-curvature="0" />
    </marker>
    <marker
       inkscape:stockid="TriangleOutM"
       orient="auto"
       refY="0"
       refX="0"
       id="TriangleOutM-8-7"
       style="overflow:visible"
       inkscape:isstock="true">
      <path
         inkscape:connector-curvature="0"
         id="path4334-5-5"
         d="m 5.77,0 -8.65,5 0,-10 8.65,5 z"
         style="fill:#000000;fill-opacity:1;fill-rule:evenodd;stroke:#000000;stroke-width:1pt;stroke-opacity:1"
         transform="scale(0.4,0.4)" />
    </marker>
    <marker
       inkscape:stockid="Arrow1Sstart"
       orient="auto"
       refY="0"
       refX="0"
       id="marker7218-3"
       style="overflow:visible"
       inkscape:isstock="true">
      <path
         inkscape:connector-curvature="0"
         id="path7220-6"
         d="M 0,0 5,-5 -12.5,0 5,5 Z"
         style="fill:#000000;fill-opacity:1;fill-rule:evenodd;stroke:#000000;stroke-width:1.00000003pt;stroke-opacity:1"
         transform="matrix(0.2,0,0,0.2,1.2,0)" />
    </marker>
  </defs>
  <metadata
     id="metadata7">
    <rdf:RDF>
      <cc:Work
         rdf:about="">
        <dc:format>image/svg+xml</dc:format>
        <dc:type
           rdf:resource="http://purl.org/dc/dcmitype/StillImage" />
        <dc:title />
      </cc:Work>
    </rdf:RDF>
  </metadata>
  <g
     transform="translate(-50,-111.83568)"
     inkscape:label="Ebene 1"
     inkscape:groupmode="layer"
     id="layer1"
     style="display:inline;opacity:1">
    <rect
       style="opacity:1;fill:#24878d;fill-opacity:1;stroke:#24878d;stroke-width:1.87500002;stroke-miterlimit:4;stroke-dasharray:none;stroke-opacity:1;paint-order:normal;stroke-linecap:butt"
       id="rect4136"
       width="173.43748"
       height="379.6875"
       x="-248.43748"
       y="-550.79968"
       transform="scale(-1)" />
    <rect
       style="opacity:1;fill:#cccccc;fill-opacity:1;stroke:none;stroke-width:2.87016749;stroke-miterlimit:4;stroke-dasharray:none"
       id="rect12952"
       width="168.75"
       height="379.6875"
       x="248.4375"
       y="171.11218" />
    <rect
       style="display:inline;opacity:1;fill:#24878d;fill-opacity:1;stroke:#24878d;stroke-width:1.87500002;stroke-miterlimit:4;stroke-dasharray:none;stroke-opacity:1"
       id="rect4136-3"
       width="173.43748"
       height="379.6875"
       x="-590.625"
       y="-550.79968"
       transform="scale(-1)" />
    <path
       style="fill:none;fill-rule:evenodd;stroke:#000000;stroke-width:2.81250004;stroke-linecap:butt;stroke-linejoin:miter;stroke-miterlimit:4;stroke-dasharray:5.62500007,5.62500007;stroke-dashoffset:0;stroke-opacity:1;marker-start:url(#marker7218-3)"
       d="M 253.125,320.18094 416.25001,446.73719"
       id="path6046-7"
       inkscape:connector-curvature="0" />
  </g>
  <g
     style="display:inline"
     inkscape:label="Ebene 3"
     id="layer3"
     inkscape:groupmode="layer">
    <path
       sodipodi:type="star"
       style="opacity:1;fill:#867a92;fill-opacity:1;stroke:#463f4d;stroke-width:1.2411418;stroke-linecap:butt;stroke-miterlimit:4;stroke-dasharray:none;stroke-opacity:1;paint-order:normal"
       id="path5616"
       sodipodi:sides="3"
       sodipodi:cx="278.125"
       sodipodi:cy="71.085266"
       sodipodi:r1="61.117523"
       sodipodi:r2="30.558762"
       sodipodi:arg1="1.5707963"
       sodipodi:arg2="2.6179939"
       inkscape:flatsided="false"
       inkscape:rounded="0"
       inkscape:randomized="0"
       d="m 278.125,132.20279 -26.46466,-45.838144 -26.46467,-45.83814 52.92933,-10e-7 52.92933,-2e-6 -26.46467,45.838144 z"
       inkscape:transform-center-y="21.875"
       transform="matrix(1.594107,0,0,1.431668,-160.5485,1.256005)"
       inkscape:transform-center-x="9.0935347e-06" />
    <path
       sodipodi:type="star"
       style="display:inline;opacity:1;fill:#867a92;fill-opacity:1;stroke:#463f4d;stroke-width:1.2411418;stroke-miterlimit:4;stroke-dasharray:none;stroke-opacity:1"
       id="path5616-6"
       sodipodi:sides="3"
       sodipodi:cx="278.125"
       sodipodi:cy="71.085266"
       sodipodi:r1="61.117523"
       sodipodi:r2="30.558762"
       sodipodi:arg1="1.5707963"
       sodipodi:arg2="2.6179939"
       inkscape:flatsided="false"
       inkscape:rounded="0"
       inkscape:randomized="0"
       d="m 278.125,132.20279 -26.46466,-45.838144 -26.46467,-45.83814 52.92933,-10e-7 52.92933,-2e-6 -26.46467,45.838144 z"
       inkscape:transform-center-y="-21.875"
       transform="matrix(-1.594107,0,0,-1.431668,726.17352,496.9845)"
       inkscape:transform-center-x="-4.7670353e-06" />
  </g>
  <g
     transform="translate(-50,-111.83568)"
     inkscape:groupmode="layer"
     id="layer2"
     inkscape:label="Ebene 2"
     style="display:inline">
    <path
       inkscape:connector-curvature="0"
       id="path4396"
       d="M 561.56251,358.93062 H 102.1875"
       style="display:inline;fill:none;fill-rule:evenodd;stroke:#000000;stroke-width:1.40625;stroke-linecap:butt;stroke-linejoin:miter;stroke-miterlimit:4;stroke-dasharray:none;stroke-opacity:1;marker-start:url(#marker7770-9);filter:url(#filter4406);enable-background:new" />
    <text
       xml:space="preserve"
       style="font-style:normal;font-weight:normal;line-height:0%;font-family:Utopia;text-align:start;letter-spacing:-21.12000084px;word-spacing:0px;writing-mode:lr;text-anchor:start;display:inline;fill:#000000;fill-opacity:1;stroke:none;filter:url(#filter4406);enable-background:new;-inkscape-font-specification:'Utopia, Normal';font-stretch:normal;font-variant:normal;font-size:37.5000005px;font-variant-ligatures:normal;font-variant-caps:normal;font-variant-numeric:normal;font-feature-settings:normal;"
       x="142.45473"
       y="461.42892"
       id="text25220-4"><tspan
         sodipodi:role="line"
         id="tspan25222-5"
         x="142.45473"
         y="461.42892"
         style="font-size:37.5000005px;line-height:1.25;-inkscape-font-specification:'Utopia, Normal';font-family:Utopia;font-weight:normal;font-style:normal;font-stretch:normal;font-variant:normal;text-anchor:start;text-align:start;writing-mode:lr;font-variant-ligatures:normal;font-variant-caps:normal;font-variant-numeric:normal;font-feature-settings:normal;">S</tspan></text>
    <g
       id="g125"
       transform="translate(24.375,26.25)">
      <path
         style="font-style:normal;font-variant:normal;font-weight:normal;font-stretch:normal;letter-spacing:normal;word-spacing:normal;text-anchor:start;display:inline;fill:#000000;stroke:#000000;stroke-width:0;stroke-linecap:butt;stroke-linejoin:miter;stroke-miterlimit:10.43299961;stroke-dasharray:none;stroke-dashoffset:0;stroke-opacity:1;filter:url(#filter4406);enable-background:new"
         inkscape:connector-curvature="0"
         d="m 139.96001,168.08204 0.0213,-0.0213 0.0319,-0.0319 0.0213,-0.0213 0.0213,-0.0213 0.0213,-0.0319 0.0319,-0.0213 0.0213,-0.0213 0.0213,-0.0213 0.0213,-0.0213 0.0106,-0.0213 0.0213,-0.0213 0.0213,-0.0213 0.0213,-0.0213 0.0106,-0.0213 0.0213,-0.0106 0.0106,-0.0213 0.0213,-0.0213 0.0106,-0.0106 0.0106,-0.0213 0.0213,-0.0106 0.0213,-0.0319 0.0213,-0.0319 0.0213,-0.0213 0.0213,-0.0319 0.0106,-0.0213 0.0106,-0.0213 0.0213,-0.0213 0.0106,-0.0213 0.0106,-0.0213 v -0.0213 l 0.0106,-0.0106 0.0106,-0.0213 v -0.0213 -0.0106 l 0.0106,-0.0213 v -0.0106 -0.0319 -0.0319 -0.0213 c 0,-0.3189 -0.2126,-0.6378 -0.62717,-0.6378 -0.3189,0 -0.53149,0.26575 -0.85039,0.6378 l -12.11812,13.5 c -2.12598,-6.72874 -2.56181,-8.05748 -3.77362,-10.86378 -0.58464,-1.21181 -1.7433,-3.84803 -6.40984,-3.84803 -3.07205,0 -4.43268,2.73189 -4.43268,3.48662 0,0.0425 0,0.53149 0.62717,0.53149 0.46771,0 0.58464,-0.3189 0.68031,-0.58464 0.79725,-2.06221 2.4874,-2.27481 2.8063,-2.27481 1.59449,0 3.18898,4.01811 4.09252,6.34607 1.69016,4.18819 3.38032,10.33228 3.38032,10.49173 0,0.0532 0,0.14882 -0.4252,0.58464 l -12.18189,13.6063 c -0.57402,0.57402 -0.57402,0.69095 -0.57402,0.83977 0,0.31889 0.30827,0.64842 0.62717,0.64842 0.36142,0 0.62717,-0.38267 0.85039,-0.57401 l 12.11811,-13.62756 c 1.70079,5.51693 2.34922,7.57913 3.60355,10.55551 0.70157,1.57323 1.86023,4.23071 6.57992,4.23071 3.06142,0 4.50708,-2.75315 4.50708,-3.45473 0,-0.26574 -0.11692,-0.58464 -0.64842,-0.58464 -0.5315,0 -0.58465,0.22323 -0.73347,0.75472 -0.47834,1.25433 -1.80708,2.12599 -2.80629,2.12599 -2.71063,0 -6.31418,-12.83032 -7.47284,-16.91221 z"
         id="path10370" />
      <path
         style="font-style:normal;font-variant:normal;font-weight:normal;font-stretch:normal;letter-spacing:normal;word-spacing:normal;text-anchor:start;display:inline;fill:#000000;stroke:#000000;stroke-width:0;stroke-linecap:butt;stroke-linejoin:miter;stroke-miterlimit:10.43299961;stroke-dasharray:none;stroke-dashoffset:0;stroke-opacity:1;filter:url(#filter4406);enable-background:new"
         inkscape:connector-curvature="0"
         d="m 154.65056,173.77968 v -0.0425 -0.0425 -0.0531 -0.0425 -0.0319 -0.0425 -0.0425 -0.0319 l -0.0106,-0.0425 v -0.0319 -0.0319 -0.0319 -0.0319 l -0.0106,-0.0319 v -0.0319 -0.0213 l -0.0106,-0.0319 v -0.0213 l -0.0106,-0.0319 v -0.0213 l -0.0213,-0.0425 -0.0106,-0.0425 -0.0213,-0.0319 -0.0213,-0.0319 -0.0213,-0.0319 -0.0213,-0.0319 -0.0319,-0.0213 -0.0319,-0.0213 -0.0425,-0.0213 -0.0319,-0.0106 -0.0425,-0.0106 -0.0532,-0.0213 h -0.0213 -0.0319 l -0.0213,-0.0106 h -0.0319 l -0.0213,-0.0106 h -0.0319 -0.0319 -0.0319 -0.0425 l -0.0319,-0.0106 h -0.0319 -0.0425 -0.0425 -0.0319 -0.0425 -0.0425 -0.0425 -0.0531 -0.0425 -0.0532 c -2.37047,2.33858 -5.72953,2.37047 -7.24961,2.37047 v 1.32874 c 0.89292,0 3.3378,0 5.35748,-1.0311 v 18.88937 c 0,1.23307 0,1.71141 -3.69921,1.71141 h -1.39252 v 1.32874 c 0.65906,-0.0319 5.20866,-0.14882 6.59055,-0.14882 1.14803,0 5.81457,0.11693 6.62244,0.14882 v -1.32874 h -1.40315 c -3.70984,0 -3.70984,-0.47834 -3.70984,-1.71141 z"
         id="path10372" />
    </g>
    <g
       transform="translate(182.59666,-142.47524)"
       id="g10550"
       style="display:inline;filter:url(#filter4406);enable-background:new">
      <g
         style="font-style:normal;font-variant:normal;font-weight:normal;font-stretch:normal;letter-spacing:normal;word-spacing:normal;text-anchor:start;fill:none;stroke:#000000;stroke-linecap:butt;stroke-linejoin:miter;stroke-miterlimit:10.43299961;stroke-dasharray:none;stroke-dashoffset:0;stroke-opacity:1"
         id="g10552"
         transform="matrix(1.0629921,0,0,-1.0629921,-186.02362,789.27165)"
         xml:space="preserve"
         stroke-miterlimit="10.433"
         font-style="normal"
         font-variant="normal"
         font-weight="normal"
         font-stretch="normal"
         font-size-adjust="none"
         letter-spacing="normal"
         word-spacing="normal"><path
           style="fill:#000000;stroke-width:0"
           inkscape:connector-curvature="0"
           d="m 484.57,426.28 0.02,0.02 0.03,0.03 0.02,0.02 0.02,0.02 0.02,0.03 0.03,0.02 0.02,0.02 0.02,0.02 0.02,0.02 0.01,0.02 0.02,0.02 0.02,0.02 0.02,0.02 0.01,0.02 0.02,0.01 0.01,0.02 0.02,0.02 0.01,0.01 0.01,0.02 0.02,0.01 0.02,0.03 0.02,0.03 0.02,0.02 0.02,0.03 0.01,0.02 0.01,0.02 0.02,0.02 0.01,0.02 0.01,0.02 v 0.02 l 0.01,0.01 0.01,0.02 v 0.02 0.01 l 0.01,0.02 v 0.01 0.03 0.03 0.02 c 0,0.3 -0.2,0.6 -0.59,0.6 -0.3,0 -0.5,-0.25 -0.8,-0.6 l -11.4,-12.7 c -2,6.33 -2.41,7.58 -3.55,10.22 -0.55,1.14 -1.64,3.62 -6.03,3.62 -2.89,0 -4.17,-2.57 -4.17,-3.28 0,-0.04 0,-0.5 0.59,-0.5 0.44,0 0.55,0.3 0.64,0.55 0.75,1.94 2.34,2.14 2.64,2.14 1.5,0 3,-3.78 3.85,-5.97 1.59,-3.94 3.18,-9.72 3.18,-9.87 0,-0.05 0,-0.14 -0.4,-0.55 l -11.46,-12.8 c -0.54,-0.54 -0.54,-0.65 -0.54,-0.79 0,-0.3 0.29,-0.61 0.59,-0.61 0.34,0 0.59,0.36 0.8,0.54 l 11.4,12.82 c 1.6,-5.19 2.21,-7.13 3.39,-9.93 0.66,-1.48 1.75,-3.98 6.19,-3.98 2.88,0 4.24,2.59 4.24,3.25 0,0.25 -0.11,0.55 -0.61,0.55 -0.5,0 -0.55,-0.21 -0.69,-0.71 -0.45,-1.18 -1.7,-2 -2.64,-2 -2.55,0 -5.94,12.07 -7.03,15.91 z"
           id="path10554" /><path
           style="fill:#000000;stroke-width:0"
           inkscape:connector-curvature="0"
           d="m 504.31,405.11 h -1.19 c -0.09,-0.77 -0.45,-2.83 -0.9,-3.18 -0.27,-0.2 -2.95,-0.2 -3.44,-0.2 h -6.42 c 3.66,3.23 4.87,4.2 6.97,5.84 2.58,2.07 4.98,4.22 4.98,7.54 0,4.21 -3.69,6.79 -8.15,6.79 -4.32,0 -7.25,-3.03 -7.25,-6.23 0,-1.78 1.5,-1.96 1.86,-1.96 0.82,0 1.84,0.6 1.84,1.85 0,0.62 -0.25,1.84 -2.06,1.84 1.07,2.47 3.45,3.24 5.09,3.24 3.48,0 5.3,-2.71 5.3,-5.53 0,-3.04 -2.16,-5.44 -3.28,-6.69 l -8.39,-8.3 c -0.36,-0.31 -0.36,-0.39 -0.36,-1.36 h 14.36 z"
           id="path10556" /></g>    </g>
    <path
       inkscape:connector-curvature="0"
       id="path4394"
       d="M 332.81251,124.23718 V 564.86219"
       style="display:inline;fill:none;fill-rule:evenodd;stroke:#000000;stroke-width:1.40625002;stroke-linecap:butt;stroke-linejoin:miter;stroke-miterlimit:4;stroke-dasharray:none;stroke-opacity:1;marker-start:url(#marker4947);filter:url(#filter4406);enable-background:new" />
    <text
       xml:space="preserve"
       style="font-style:normal;font-weight:normal;font-size:37.5000005px;line-height:0%;font-family:Utopia;text-align:start;letter-spacing:-21.12000275px;word-spacing:0px;writing-mode:lr;text-anchor:start;display:inline;fill:#000000;fill-opacity:1;stroke:none;stroke-width:1.00000012;filter:url(#filter4406);enable-background:new;-inkscape-font-specification:'Utopia, Normal';font-stretch:normal;font-variant:normal;font-variant-ligatures:normal;font-variant-caps:normal;font-variant-numeric:normal;font-feature-settings:normal;"
       x="493.07974"
       y="460.49142"
       id="text25220-4-6"><tspan
         sodipodi:role="line"
         id="tspan25222-5-7"
         x="493.07974"
         y="460.49142"
         style="font-size:37.5000005px;line-height:1.25;stroke-width:1.00000012;-inkscape-font-specification:'Utopia, Normal';font-family:Utopia;font-weight:normal;font-style:normal;font-stretch:normal;font-variant:normal;text-anchor:start;text-align:start;writing-mode:lr;font-variant-ligatures:normal;font-variant-caps:normal;font-variant-numeric:normal;font-feature-settings:normal;">S</tspan></text>
    <text
       xml:space="preserve"
       style="font-style:normal;font-variant:normal;font-weight:normal;font-stretch:normal;font-size:30px;line-height:125%;font-family:Utopia;-inkscape-font-specification:'Utopia, Normal';font-variant-ligatures:normal;font-variant-caps:normal;font-variant-numeric:normal;font-feature-settings:normal;text-align:start;letter-spacing:0px;word-spacing:0px;writing-mode:lr-tb;text-anchor:start;display:inline;fill:#000000;fill-opacity:1;stroke:none;stroke-width:0.9375px;stroke-linecap:butt;stroke-linejoin:miter;stroke-opacity:1"
       x="313.25488"
       y="160.31714"
       id="text7701"><tspan
         sodipodi:role="line"
         id="tspan7699"
         x="313.25488"
         y="160.31714"
         style="font-style:normal;font-variant:normal;font-weight:normal;font-stretch:normal;font-size:30px;font-family:Utopia;-inkscape-font-specification:'Utopia, Normal';font-variant-ligatures:normal;font-variant-caps:normal;font-variant-numeric:normal;font-feature-settings:normal;text-align:start;writing-mode:lr-tb;text-anchor:start;stroke-width:0.9375px">y</tspan></text>
    <text
       xml:space="preserve"
       style="font-style:normal;font-variant:normal;font-weight:normal;font-stretch:normal;font-size:30px;line-height:0%;font-family:Utopia;-inkscape-font-specification:'Utopia, Normal';font-variant-ligatures:normal;font-variant-caps:normal;font-variant-numeric:normal;font-feature-settings:normal;text-align:start;letter-spacing:-13.53181267px;word-spacing:0px;writing-mode:lr-tb;text-anchor:start;display:inline;fill:#000000;fill-opacity:1;stroke:none;stroke-width:0.55762565;filter:url(#filter4406);enable-background:new"
       x="527.35522"
       y="377.43198"
       id="text24697-6"><tspan
         sodipodi:role="line"
         id="tspan24699-8"
         x="527.35522"
         y="377.43198"
         style="font-style:normal;font-variant:normal;font-weight:normal;font-stretch:normal;font-size:30px;line-height:1.25;font-family:Utopia;-inkscape-font-specification:'Utopia, Normal';font-variant-ligatures:normal;font-variant-caps:normal;font-variant-numeric:normal;font-feature-settings:normal;text-align:start;writing-mode:lr-tb;text-anchor:start;stroke-width:0.55762565">x</tspan></text>
  </g>
  <path
     inkscape:connector-curvature="0"
     id="path5842"
     d="m 199.37501,198.52652 h 167.8125 v 0"
     style="fill:none;fill-rule:evenodd;stroke:#000000;stroke-width:2.81250004;stroke-linecap:butt;stroke-linejoin:miter;stroke-miterlimit:4;stroke-dasharray:2.81250004,2.81250004;stroke-dashoffset:0;stroke-opacity:1" />
  <g
     id="g5942"
     transform="translate(53.15433,61.518283)">
    <g
       word-spacing="normal"
       letter-spacing="normal"
       font-size-adjust="none"
       font-stretch="normal"
       font-weight="normal"
       font-variant="normal"
       font-style="normal"
       stroke-miterlimit="10.433"
       xml:space="preserve"
       transform="matrix(0.65879899,0,0,-0.65879899,-115.28982,431.24998)"
       id="content"
       style="font-style:normal;font-variant:normal;font-weight:normal;font-stretch:normal;letter-spacing:normal;word-spacing:normal;text-anchor:start;fill:none;fill-opacity:1;fill-rule:evenodd;stroke:#000000;stroke-linecap:butt;stroke-linejoin:miter;stroke-miterlimit:10.43299961;stroke-dasharray:none;stroke-dashoffset:0;stroke-opacity:1"><path
         id="path5945"
         d="m 478.19,431.11 0,0.31 -0.01,0.34 -0.02,0.36 -0.02,0.37 -0.03,0.39 -0.04,0.39 -0.04,0.41 -0.06,0.41 -0.07,0.42 -0.07,0.43 -0.09,0.42 -0.1,0.43 -0.12,0.42 -0.12,0.42 -0.14,0.41 -0.16,0.41 -0.17,0.4 -0.18,0.38 -0.2,0.37 -0.22,0.36 -0.23,0.34 -0.25,0.32 -0.28,0.3 -0.29,0.27 -0.31,0.25 -0.16,0.12 -0.17,0.1 -0.17,0.1 -0.18,0.1 -0.18,0.08 -0.19,0.08 -0.19,0.07 -0.2,0.06 -0.21,0.05 -0.21,0.05 -0.22,0.03 -0.22,0.02 -0.23,0.02 -0.23,0 -0.05,-1.09 c 2.44,0 2.73,-3.19 2.73,-6.03 0,-2.44 -0.39,-4.99 -1.59,-9.92 l -10.41,0 c 0.85,3.2 1.85,7.18 3.83,10.72 1.36,2.43 3.19,5.23 5.44,5.23 l 0.05,1.09 c -6.92,0 -14.6,-14.04 -14.6,-25.45 0,-4.69 1.44,-10.22 5.99,-10.22 l 0,1.1 c -1.66,0 -2.71,1.45 -2.71,6.07 0,2.1 0.3,4.99 1.6,9.86 l 10.37,0 c -0.54,-2.28 -1.59,-6.51 -3.5,-10.11 -1.73,-3.39 -3.62,-5.82 -5.76,-5.82 l 0,-1.1 c 7.01,0 14.59,14.3 14.59,25.46 z"
         inkscape:connector-curvature="0"
         style="fill:#000000;stroke-width:0" /></g>  </g>
  <path
     style="fill:none;fill-rule:evenodd;stroke:#000000;stroke-width:2.81250004;stroke-linecap:butt;stroke-linejoin:miter;stroke-miterlimit:4;stroke-dasharray:none;stroke-opacity:1;marker-end:url(#marker6048)"
     d="m 199.37501,198.0265 163.125,126.55623"
     id="path6046"
     inkscape:connector-curvature="0" />
  <path
     style="fill:none;fill-rule:evenodd;stroke:#000000;stroke-width:1.40625002;stroke-linecap:butt;stroke-linejoin:miter;stroke-opacity:1;stroke-miterlimit:4;stroke-dasharray:none"
     d="M 269.29289,198.40521 C 270,214.25628 264.33481,230.26946 250.00001,237.4015"
     id="path6064"
     inkscape:connector-curvature="0"
     sodipodi:nodetypes="cc" />
</svg>
