<?xml version="1.0" encoding="UTF-8" standalone="no"?>
<!-- Created with Inkscape (http://www.inkscape.org/) -->

<svg
   xmlns:dc="http://purl.org/dc/elements/1.1/"
   xmlns:cc="http://creativecommons.org/ns#"
   xmlns:rdf="http://www.w3.org/1999/02/22-rdf-syntax-ns#"
   xmlns:svg="http://www.w3.org/2000/svg"
   xmlns="http://www.w3.org/2000/svg"
   xmlns:xlink="http://www.w3.org/1999/xlink"
   xmlns:sodipodi="http://sodipodi.sourceforge.net/DTD/sodipodi-0.dtd"
   xmlns:inkscape="http://www.inkscape.org/namespaces/inkscape"
   width="210mm"
   height="297mm"
   viewBox="0 0 744.09448819 1052.3622047"
   id="svg2"
   version="1.1"
   inkscape:version="0.91 r13725"
   sodipodi:docname="qpc_sns_junction.svg">
  <sodipodi:namedview
     id="base"
     pagecolor="#ffffff"
     bordercolor="#666666"
     borderopacity="1.0"
     inkscape:pageopacity="0.0"
     inkscape:pageshadow="2"
     inkscape:zoom="0.70710678"
     inkscape:cx="289.91428"
     inkscape:cy="798.06635"
     inkscape:document-units="px"
     inkscape:current-layer="layer2"
     showgrid="true"
     showguides="true"
     inkscape:window-width="1366"
     inkscape:window-height="704"
     inkscape:window-x="0"
     inkscape:window-y="27"
     inkscape:window-maximized="1">
    <inkscape:grid
       type="xygrid"
       id="grid4153" />
  </sodipodi:namedview>
  <defs
     id="defs4">
    <linearGradient
       inkscape:collect="always"
       id="linearGradient17052">
      <stop
         style="stop-color:#000000;stop-opacity:1;"
         offset="0"
         id="stop17054" />
      <stop
         style="stop-color:#000000;stop-opacity:0;"
         offset="1"
         id="stop17056" />
    </linearGradient>
    <linearGradient
       inkscape:collect="always"
       id="linearGradient17044">
      <stop
         style="stop-color:#000000;stop-opacity:1;"
         offset="0"
         id="stop17046" />
      <stop
         style="stop-color:#000000;stop-opacity:0;"
         offset="1"
         id="stop17048" />
    </linearGradient>
    <marker
       inkscape:stockid="Arrow2Mstart"
       orient="auto"
       refY="0.0"
       refX="0.0"
       id="marker7770"
       style="overflow:visible"
       inkscape:isstock="true">
      <path
         id="path7772"
         style="fill-rule:evenodd;stroke-width:0.625;stroke-linejoin:round;stroke:#000000;stroke-opacity:1;fill:#000000;fill-opacity:1"
         d="M 8.7185878,4.0337352 L -2.2072895,0.016013256 L 8.7185884,-4.0017078 C 6.9730900,-1.6296469 6.9831476,1.6157441 8.7185878,4.0337352 z "
         transform="scale(0.6) translate(0,0)" />
    </marker>
    <marker
       inkscape:stockid="Arrow2Mend"
       orient="auto"
       refY="0.0"
       refX="0.0"
       id="Arrow2Mend"
       style="overflow:visible;"
       inkscape:isstock="true">
      <path
         id="path4216"
         style="fill-rule:evenodd;stroke-width:0.625;stroke-linejoin:round;stroke:#000000;stroke-opacity:1;fill:#000000;fill-opacity:1"
         d="M 8.7185878,4.0337352 L -2.2072895,0.016013256 L 8.7185884,-4.0017078 C 6.9730900,-1.6296469 6.9831476,1.6157441 8.7185878,4.0337352 z "
         transform="scale(0.6) rotate(180) translate(0,0)" />
    </marker>
    <marker
       inkscape:stockid="Arrow1Send"
       orient="auto"
       refY="0.0"
       refX="0.0"
       id="Arrow1Send"
       style="overflow:visible;"
       inkscape:isstock="true">
      <path
         id="path4204"
         d="M 0.0,0.0 L 5.0,-5.0 L -12.5,0.0 L 5.0,5.0 L 0.0,0.0 z "
         style="fill-rule:evenodd;stroke:#000000;stroke-width:1pt;stroke-opacity:1;fill:#000000;fill-opacity:1"
         transform="scale(0.2) rotate(180) translate(6,0)" />
    </marker>
    <marker
       inkscape:stockid="Arrow2Mstart"
       orient="auto"
       refY="0.0"
       refX="0.0"
       id="marker7444"
       style="overflow:visible"
       inkscape:isstock="true">
      <path
         id="path7446"
         style="fill-rule:evenodd;stroke-width:0.625;stroke-linejoin:round;stroke:#000000;stroke-opacity:1;fill:#000000;fill-opacity:1"
         d="M 8.7185878,4.0337352 L -2.2072895,0.016013256 L 8.7185884,-4.0017078 C 6.9730900,-1.6296469 6.9831476,1.6157441 8.7185878,4.0337352 z "
         transform="scale(0.6) translate(0,0)" />
    </marker>
    <marker
       inkscape:stockid="Arrow2Mstart"
       orient="auto"
       refY="0.0"
       refX="0.0"
       id="marker7374"
       style="overflow:visible"
       inkscape:isstock="true">
      <path
         id="path7376"
         style="fill-rule:evenodd;stroke-width:0.625;stroke-linejoin:round;stroke:#000000;stroke-opacity:1;fill:#000000;fill-opacity:1"
         d="M 8.7185878,4.0337352 L -2.2072895,0.016013256 L 8.7185884,-4.0017078 C 6.9730900,-1.6296469 6.9831476,1.6157441 8.7185878,4.0337352 z "
         transform="scale(0.6) translate(0,0)" />
    </marker>
    <marker
       inkscape:stockid="Arrow2Mstart"
       orient="auto"
       refY="0.0"
       refX="0.0"
       id="Arrow2Mstart"
       style="overflow:visible"
       inkscape:isstock="true">
      <path
         id="path4213"
         style="fill-rule:evenodd;stroke-width:0.625;stroke-linejoin:round;stroke:#000000;stroke-opacity:1;fill:#000000;fill-opacity:1"
         d="M 8.7185878,4.0337352 L -2.2072895,0.016013256 L 8.7185884,-4.0017078 C 6.9730900,-1.6296469 6.9831476,1.6157441 8.7185878,4.0337352 z "
         transform="scale(0.6) translate(0,0)" />
    </marker>
    <marker
       inkscape:stockid="Arrow1Sstart"
       orient="auto"
       refY="0.0"
       refX="0.0"
       id="marker7218"
       style="overflow:visible"
       inkscape:isstock="true">
      <path
         id="path7220"
         d="M 0.0,0.0 L 5.0,-5.0 L -12.5,0.0 L 5.0,5.0 L 0.0,0.0 z "
         style="fill-rule:evenodd;stroke:#000000;stroke-width:1pt;stroke-opacity:1;fill:#000000;fill-opacity:1"
         transform="scale(0.2) translate(6,0)" />
    </marker>
    <marker
       inkscape:stockid="Arrow1Mstart"
       orient="auto"
       refY="0.0"
       refX="0.0"
       id="Arrow1Mstart"
       style="overflow:visible"
       inkscape:isstock="true">
      <path
         id="path4195"
         d="M 0.0,0.0 L 5.0,-5.0 L -12.5,0.0 L 5.0,5.0 L 0.0,0.0 z "
         style="fill-rule:evenodd;stroke:#000000;stroke-width:1pt;stroke-opacity:1;fill:#000000;fill-opacity:1"
         transform="scale(0.4) translate(10,0)" />
    </marker>
    <marker
       inkscape:stockid="Arrow1Sstart"
       orient="auto"
       refY="0.0"
       refX="0.0"
       id="Arrow1Sstart"
       style="overflow:visible"
       inkscape:isstock="true">
      <path
         id="path4201"
         d="M 0.0,0.0 L 5.0,-5.0 L -12.5,0.0 L 5.0,5.0 L 0.0,0.0 z "
         style="fill-rule:evenodd;stroke:#000000;stroke-width:1pt;stroke-opacity:1;fill:#000000;fill-opacity:1"
         transform="scale(0.2) translate(6,0)" />
    </marker>
    <marker
       inkscape:stockid="TriangleOutM"
       orient="auto"
       refY="0.0"
       refX="0.0"
       id="TriangleOutM"
       style="overflow:visible"
       inkscape:isstock="true">
      <path
         id="path4334"
         d="M 5.77,0.0 L -2.88,5.0 L -2.88,-5.0 L 5.77,0.0 z "
         style="fill-rule:evenodd;stroke:#000000;stroke-width:1pt;stroke-opacity:1;fill:#000000;fill-opacity:1"
         transform="scale(0.4)" />
    </marker>
    <marker
       inkscape:stockid="Arrow1Lend"
       orient="auto"
       refY="0.0"
       refX="0.0"
       id="Arrow1Lend"
       style="overflow:visible;"
       inkscape:isstock="true">
      <path
         id="path4192"
         d="M 0.0,0.0 L 5.0,-5.0 L -12.5,0.0 L 5.0,5.0 L 0.0,0.0 z "
         style="fill-rule:evenodd;stroke:#000000;stroke-width:1pt;stroke-opacity:1;fill:#000000;fill-opacity:1"
         transform="scale(0.8) rotate(180) translate(12.5,0)" />
    </marker>
    <marker
       inkscape:stockid="TriangleOutM"
       orient="auto"
       refY="0"
       refX="0"
       id="TriangleOutM-9"
       style="overflow:visible"
       inkscape:isstock="true">
      <path
         inkscape:connector-curvature="0"
         id="path4334-6"
         d="m 5.77,0 -8.65,5 0,-10 8.65,5 z"
         style="fill:#000000;fill-opacity:1;fill-rule:evenodd;stroke:#000000;stroke-width:1pt;stroke-opacity:1"
         transform="scale(0.4,0.4)" />
    </marker>
    <marker
       inkscape:stockid="TriangleOutM"
       orient="auto"
       refY="0"
       refX="0"
       id="TriangleOutM-8"
       style="overflow:visible"
       inkscape:isstock="true">
      <path
         inkscape:connector-curvature="0"
         id="path4334-5"
         d="m 5.77,0 -8.65,5 0,-10 8.65,5 z"
         style="fill:#000000;fill-opacity:1;fill-rule:evenodd;stroke:#000000;stroke-width:1pt;stroke-opacity:1"
         transform="scale(0.4,0.4)" />
    </marker>
    <marker
       inkscape:stockid="Arrow1Sstart"
       orient="auto"
       refY="0"
       refX="0"
       id="marker7218-1"
       style="overflow:visible"
       inkscape:isstock="true">
      <path
         inkscape:connector-curvature="0"
         id="path7220-1"
         d="M 0,0 5,-5 -12.5,0 5,5 0,0 Z"
         style="fill:#000000;fill-opacity:1;fill-rule:evenodd;stroke:#000000;stroke-width:1pt;stroke-opacity:1"
         transform="matrix(0.2,0,0,0.2,1.2,0)" />
    </marker>
    <marker
       inkscape:stockid="Arrow1Send"
       orient="auto"
       refY="0"
       refX="0"
       id="Arrow1Send-5"
       style="overflow:visible"
       inkscape:isstock="true">
      <path
         inkscape:connector-curvature="0"
         id="path4204-9"
         d="M 0,0 5,-5 -12.5,0 5,5 0,0 Z"
         style="fill:#000000;fill-opacity:1;fill-rule:evenodd;stroke:#000000;stroke-width:1pt;stroke-opacity:1"
         transform="matrix(-0.2,0,0,-0.2,-1.2,0)" />
    </marker>
    <linearGradient
       inkscape:collect="always"
       xlink:href="#linearGradient17044"
       id="linearGradient17050"
       x1="50"
       y1="352.3622"
       x2="250"
       y2="352.3622"
       gradientUnits="userSpaceOnUse"
       gradientTransform="translate(-300,-704.7244)" />
    <linearGradient
       inkscape:collect="always"
       xlink:href="#linearGradient17052"
       id="linearGradient17058"
       x1="425"
       y1="352.3622"
       x2="625"
       y2="352.3622"
       gradientUnits="userSpaceOnUse" />
    <marker
       inkscape:stockid="Arrow1Send"
       orient="auto"
       refY="0"
       refX="0"
       id="Arrow1Send-4"
       style="overflow:visible"
       inkscape:isstock="true">
      <path
         inkscape:connector-curvature="0"
         id="path4204-6"
         d="M 0,0 5,-5 -12.5,0 5,5 0,0 Z"
         style="fill:#000000;fill-opacity:1;fill-rule:evenodd;stroke:#000000;stroke-width:1pt;stroke-opacity:1"
         transform="matrix(-0.2,0,0,-0.2,-1.2,0)" />
    </marker>
    <marker
       inkscape:stockid="Arrow1Send"
       orient="auto"
       refY="0"
       refX="0"
       id="Arrow1Send-4-9"
       style="overflow:visible"
       inkscape:isstock="true">
      <path
         inkscape:connector-curvature="0"
         id="path4204-6-8"
         d="M 0,0 5,-5 -12.5,0 5,5 0,0 Z"
         style="fill:#000000;fill-opacity:1;fill-rule:evenodd;stroke:#000000;stroke-width:1pt;stroke-opacity:1"
         transform="matrix(-0.2,0,0,-0.2,-1.2,0)" />
    </marker>
  </defs>
  <metadata
     id="metadata7">
    <rdf:RDF>
      <cc:Work
         rdf:about="">
        <dc:format>image/svg+xml</dc:format>
        <dc:type
           rdf:resource="http://purl.org/dc/dcmitype/StillImage" />
        <dc:title></dc:title>
      </cc:Work>
    </rdf:RDF>
  </metadata>
  <g
     inkscape:label="Ebene 1"
     inkscape:groupmode="layer"
     id="layer1"
     style="display:inline"
     sodipodi:insensitive="true">
    <rect
       style="opacity:1;fill:url(#linearGradient17050);fill-opacity:1"
       id="rect4136"
       width="200"
       height="400"
       x="-250"
       y="-552.36218"
       transform="scale(-1,-1)" />
    <rect
       style="opacity:1;fill:url(#linearGradient17058);fill-opacity:1;fill-rule:evenodd"
       id="rect4136-3"
       width="200"
       height="400"
       x="425"
       y="152.3622" />
    <rect
       style="opacity:1;fill:#000000;fill-opacity:0.13563831;stroke-width:3;stroke-miterlimit:4;stroke-dasharray:none"
       id="rect12952"
       width="175"
       height="400"
       x="250"
       y="152.36218" />
  </g>
  <g
     inkscape:groupmode="layer"
     id="layer2"
     inkscape:label="Ebene 2"
     style="display:inline">
    <path
       style="fill:none;fill-rule:evenodd;stroke:#000000;stroke-width:3.70000005;stroke-linecap:butt;stroke-linejoin:miter;stroke-miterlimit:4;stroke-dasharray:none;stroke-opacity:1;marker-end:url(#Arrow1Send)"
       d="m 335.5,355.72716 c 80,0 80,0 80,0"
       id="path21714"
       inkscape:connector-curvature="0" />
    <path
       style="display:inline;fill:none;fill-rule:evenodd;stroke:#000000;stroke-width:3.70000005;stroke-linecap:butt;stroke-linejoin:miter;stroke-miterlimit:4;stroke-dasharray:none;stroke-opacity:1;marker-end:url(#Arrow1Send-4-9)"
       d="m 337.34654,356.3622 c 0,-80 0,-80 0,-80"
       id="path21714-2"
       inkscape:connector-curvature="0" />
    <text
       xml:space="preserve"
       style="font-style:normal;font-weight:normal;font-size:26.71417809px;line-height:125%;font-family:sans-serif;text-align:start;letter-spacing:-14.10508633px;word-spacing:0px;writing-mode:lr-tb;text-anchor:start;fill:#000000;fill-opacity:1;stroke:none;stroke-width:1px;stroke-linecap:butt;stroke-linejoin:miter;stroke-opacity:1"
       x="315.4668"
       y="295.12576"
       id="text24693"
       sodipodi:linespacing="125%"><tspan
         sodipodi:role="line"
         id="tspan24695"
         x="315.4668"
         y="295.12576">y</tspan></text>
    <text
       xml:space="preserve"
       style="font-style:normal;font-weight:normal;font-size:26.33402443px;line-height:125%;font-family:sans-serif;text-align:start;letter-spacing:-13.90436554px;word-spacing:0px;writing-mode:lr-tb;text-anchor:start;fill:#000000;fill-opacity:1;stroke:none;stroke-width:1px;stroke-linecap:butt;stroke-linejoin:miter;stroke-opacity:1"
       x="400.98813"
       y="377.47491"
       id="text24697"
       sodipodi:linespacing="125%"><tspan
         sodipodi:role="line"
         id="tspan24699"
         x="400.98813"
         y="377.47491">x</tspan></text>
    <g
       id="g24763"
       transform="matrix(0.74588152,0,0,0.74588152,164.53918,231.72129)">
      <g
         id="content"
         transform="matrix(1.0629921,0,0,-1.0629921,-186.02362,789.27165)"
         xml:space="preserve"
         stroke-miterlimit="10.433"
         font-style="normal"
         font-variant="normal"
         font-weight="normal"
         font-stretch="normal"
         font-size-adjust="none"
         letter-spacing="normal"
         word-spacing="normal"
         style="font-style:normal;font-variant:normal;font-weight:normal;font-stretch:normal;letter-spacing:normal;word-spacing:normal;text-anchor:start;fill:none;fill-opacity:1;fill-rule:evenodd;stroke:#000000;stroke-linecap:butt;stroke-linejoin:miter;stroke-miterlimit:10.43299961;stroke-dasharray:none;stroke-dashoffset:0;stroke-opacity:1"><path
           d="m 463.49,410.09 -0.05,-0.18 -0.04,-0.17 -0.05,-0.16 -0.04,-0.15 -0.04,-0.15 -0.05,-0.13 -0.05,-0.13 -0.05,-0.12 -0.05,-0.11 -0.06,-0.11 -0.07,-0.1 -0.07,-0.09 -0.07,-0.09 -0.09,-0.07 -0.09,-0.08 -0.11,-0.06 -0.11,-0.07 -0.13,-0.05 -0.13,-0.05 -0.15,-0.05 -0.16,-0.04 -0.09,-0.02 -0.09,-0.01 -0.09,-0.02 -0.1,-0.02 -0.1,-0.01 -0.1,-0.01 -0.11,-0.01 -0.12,-0.02 -0.11,-0.01 -0.13,-0.01 -0.12,0 -0.13,-0.01 -0.14,-0.01 -0.14,0 -0.14,-0.01 -0.15,0 -0.16,-0.01 -0.16,0 -0.16,0 -0.17,0 -0.18,0 -0.18,0 c -0.85,0 -1.35,0 -1.35,-1 0,-0.55 0.46,-0.55 1.35,-0.55 l 17.78,0 c 7.87,0 13.75,5.87 13.75,10.76 0,3.58 -2.89,6.47 -7.72,7.02 5.19,0.95 10.42,4.64 10.42,9.38 0,3.68 -3.3,6.87 -9.28,6.87 l -0.69,-1.55 c 4.38,0 5.42,-2.93 5.42,-5.12 0,-4.39 -4.28,-9.13 -10.35,-9.13 l -7.27,0 -0.3,-1.09 9.41,0 c 4.78,0 5.73,-3.69 5.73,-5.83 0,-4.94 -4.43,-9.76 -10.31,-9.76 l -6.78,0 c -0.69,0 -0.8,0 -1.09,0.04 -0.5,0.05 -0.64,0.1 -0.64,0.5 0,0.14 0,0.25 0.25,1.14 l 3.43,13.91 0.3,1.09 3.08,12.36 c 0.45,1.74 0.54,1.89 2.7,1.89 l 6.42,0 0.69,1.55 -16.73,0 c -0.94,0 -1.44,0 -1.44,-1 0,-0.55 0.44,-0.55 1.39,-0.55 0.09,0 1.05,0 1.89,-0.09 0.89,-0.11 1.34,-0.16 1.34,-0.8 0,-0.2 -0.04,-0.36 -0.2,-0.95 z"
           id="path24766"
           inkscape:connector-curvature="0"
           style="fill:#000000;stroke-width:0" /></g>    </g>
    <g
       id="g25017"
       transform="translate(24.747259,245)">
      <g
         id="g25019"
         transform="matrix(1.0629921,0,0,-1.0629921,-186.02362,789.27165)"
         xml:space="preserve"
         stroke-miterlimit="10.433"
         font-style="normal"
         font-variant="normal"
         font-weight="normal"
         font-stretch="normal"
         font-size-adjust="none"
         letter-spacing="normal"
         word-spacing="normal"
         style="font-style:normal;font-variant:normal;font-weight:normal;font-stretch:normal;letter-spacing:normal;word-spacing:normal;text-anchor:start;fill:none;fill-opacity:1;fill-rule:evenodd;stroke:#000000;stroke-linecap:butt;stroke-linejoin:miter;stroke-miterlimit:10.43299961;stroke-dasharray:none;stroke-dashoffset:0;stroke-opacity:1"><path
           d="m 474.16,436.34 0.04,0.16 0.04,0.16 0.04,0.15 0.04,0.15 0.04,0.13 0.05,0.13 0.05,0.13 0.05,0.11 0.06,0.12 0.06,0.1 0.08,0.1 0.08,0.09 0.09,0.09 0.1,0.08 0.11,0.08 0.12,0.07 0.13,0.06 0.15,0.06 0.16,0.06 0.18,0.05 0.09,0.02 0.1,0.02 0.1,0.02 0.11,0.02 0.11,0.02 0.11,0.02 0.12,0.02 0.13,0.01 0.13,0.01 0.14,0.02 0.14,0.01 0.14,0.01 0.15,0.01 0.16,0.01 0.16,0.01 0.17,0.01 0.17,0 0.18,0.01 0.18,0 0.19,0.01 0.2,0 0.2,0 0.21,0 0.22,0 c 1.49,0 1.89,0 1.89,0.96 0,0.59 -0.54,0.59 -0.79,0.59 -1.66,0 -5.74,-0.16 -7.38,-0.16 -1.5,0 -5.14,0.16 -6.62,0.16 -0.36,0 -0.96,0 -0.96,-1 0,-0.55 0.46,-0.55 1.39,-0.55 0.11,0 1.05,0 1.91,-0.09 0.89,-0.11 1.34,-0.16 1.34,-0.8 0,-0.2 -0.06,-0.36 -0.2,-0.95 l -6.67,-26.75 c -0.5,-1.95 -0.61,-2.34 -4.55,-2.34 -0.84,0 -1.34,0 -1.34,-1 0,-0.55 0.45,-0.55 1.34,-0.55 l 23.08,0 c 1.19,0 1.23,0 1.55,0.84 l 3.92,10.77 c 0.2,0.55 0.2,0.64 0.2,0.7 0,0.19 -0.14,0.55 -0.59,0.55 -0.46,0 -0.5,-0.25 -0.85,-1.05 -1.7,-4.59 -3.89,-10.26 -12.51,-10.26 l -4.67,0 c -0.71,0 -0.8,0 -1.1,0.04 -0.5,0.05 -0.65,0.1 -0.65,0.5 0,0.14 0,0.25 0.25,1.14 z"
           id="path25021"
           inkscape:connector-curvature="0"
           style="fill:#000000;stroke-width:0" /></g>    </g>
    <g
       id="g25149"
       transform="translate(-223,-6.280721)">
      <g
         word-spacing="normal"
         letter-spacing="normal"
         font-size-adjust="none"
         font-stretch="normal"
         font-weight="normal"
         font-variant="normal"
         font-style="normal"
         stroke-miterlimit="10.433"
         xml:space="preserve"
         transform="matrix(1.0629921,0,0,-1.0629921,-186.02362,789.27165)"
         id="g25151"
         style="font-style:normal;font-variant:normal;font-weight:normal;font-stretch:normal;letter-spacing:normal;word-spacing:normal;text-anchor:start;fill:none;fill-opacity:1;fill-rule:evenodd;stroke:#000000;stroke-linecap:butt;stroke-linejoin:miter;stroke-miterlimit:10.43299961;stroke-dasharray:none;stroke-dashoffset:0;stroke-opacity:1"><path
           id="path25153"
           d="m 501.21,434.45 0.23,0.4 0.24,0.4 0.24,0.38 0.24,0.37 0.13,0.18 0.13,0.17 0.14,0.17 0.13,0.16 0.14,0.16 0.15,0.16 0.15,0.15 0.16,0.14 0.16,0.14 0.17,0.13 0.17,0.13 0.18,0.12 0.19,0.11 0.19,0.11 0.2,0.1 0.21,0.09 0.22,0.09 0.23,0.08 0.24,0.07 0.25,0.06 0.25,0.05 0.27,0.05 0.28,0.04 0.29,0.02 c 0.45,0.05 0.95,0.05 0.95,1 0,0.19 -0.2,0.55 -0.61,0.55 -1.19,0 -2.58,-0.16 -3.83,-0.16 -1.7,0 -3.55,0.16 -5.19,0.16 -0.29,0 -0.93,0 -0.93,-0.95 0,-0.55 0.43,-0.6 0.73,-0.6 1.2,-0.04 2.95,-0.45 2.95,-1.93 0,-0.55 -0.25,-0.96 -0.65,-1.66 l -13.46,-23.45 -1.84,24.7 c -0.05,1 -0.14,2.3 3.48,2.34 0.86,0 1.36,0 1.36,1 0,0.5 -0.56,0.55 -0.75,0.55 -2,0 -4.09,-0.16 -6.07,-0.16 -1.16,0 -4.1,0.16 -5.24,0.16 -0.3,0 -0.95,0 -0.95,-1 0,-0.55 0.5,-0.55 1.2,-0.55 2.19,0 2.53,-0.29 2.64,-1.25 l 0.3,-3.82 -12.61,-21.97 -1.89,25.25 c 0,0.59 0,1.75 3.78,1.79 0.5,0 1.05,0 1.05,1 0,0.55 -0.6,0.55 -0.69,0.55 -2,0 -4.09,-0.16 -6.13,-0.16 -1.75,0 -3.54,0.16 -5.23,0.16 -0.25,0 -0.91,0 -0.91,-0.95 0,-0.6 0.46,-0.6 1.25,-0.6 2.5,0 2.55,-0.45 2.64,-1.84 l 2.25,-30.44 c 0.05,-0.9 0.1,-1.29 0.8,-1.29 0.6,0 0.74,0.29 1.19,1.04 l 14.66,25.41 1.84,-25.16 c 0.09,-1.04 0.19,-1.29 0.8,-1.29 0.64,0 0.93,0.5 1.18,0.93 z"
           inkscape:connector-curvature="0"
           style="fill:#000000;stroke-width:0" /></g>    </g>
    <text
       xml:space="preserve"
       style="font-style:normal;font-weight:normal;font-size:40px;line-height:125%;font-family:sans-serif;text-align:start;letter-spacing:-21.12000084px;word-spacing:0px;writing-mode:lr-tb;text-anchor:start;fill:#000000;fill-opacity:1;stroke:none;stroke-width:1px;stroke-linecap:butt;stroke-linejoin:miter;stroke-opacity:1"
       x="122.36328"
       y="191.79579"
       id="text25220"
       sodipodi:linespacing="125%"><tspan
         sodipodi:role="line"
         id="tspan25222"
         x="122.36328"
         y="191.79579">S</tspan></text>
    <text
       xml:space="preserve"
       style="font-style:normal;font-weight:normal;font-size:40px;line-height:125%;font-family:sans-serif;text-align:start;letter-spacing:-21.12000084px;word-spacing:0px;writing-mode:lr-tb;text-anchor:start;fill:#000000;fill-opacity:1;stroke:none;stroke-width:1px;stroke-linecap:butt;stroke-linejoin:miter;stroke-opacity:1"
       x="321.07422"
       y="192.36218"
       id="text25224"
       sodipodi:linespacing="125%"><tspan
         sodipodi:role="line"
         id="tspan25226"
         x="321.07422"
         y="192.36218">N</tspan></text>
    <text
       xml:space="preserve"
       style="font-style:normal;font-weight:normal;font-size:40px;line-height:125%;font-family:sans-serif;text-align:start;letter-spacing:-21.12000084px;word-spacing:0px;writing-mode:lr-tb;text-anchor:start;fill:#000000;fill-opacity:1;stroke:none;stroke-width:1px;stroke-linecap:butt;stroke-linejoin:miter;stroke-opacity:1"
       x="522.36328"
       y="191.79579"
       id="text25228"
       sodipodi:linespacing="125%"><tspan
         sodipodi:role="line"
         id="tspan25230"
         x="522.36328"
         y="191.79579">S</tspan><tspan
         sodipodi:role="line"
         x="522.36328"
         y="241.79579"
         id="tspan25232" /><tspan
         sodipodi:role="line"
         x="522.36328"
         y="291.79581"
         id="tspan25234" /></text>
    <circle
       style="opacity:1;fill:none;fill-opacity:0.18351063;fill-rule:evenodd;stroke:#000000;stroke-width:1.08873427;stroke-miterlimit:4;stroke-dasharray:none;stroke-opacity:1"
       id="path25240"
       cx="371.53552"
       cy="483.89771"
       r="11.770099" />
    <path
       style="fill:none;fill-rule:evenodd;stroke:#000000;stroke-width:1.08873427;stroke-linecap:butt;stroke-linejoin:miter;stroke-miterlimit:4;stroke-dasharray:none;stroke-opacity:1"
       d="m 371.53553,472.1276 0,23.5402 0,0"
       id="path25242"
       inkscape:connector-curvature="0" />
    <path
       style="fill:none;fill-rule:evenodd;stroke:#000000;stroke-width:1.08873427;stroke-linecap:butt;stroke-linejoin:miter;stroke-miterlimit:4;stroke-dasharray:none;stroke-opacity:1"
       d="m 359.76543,483.8977 23.54021,0 0,0"
       id="path25244"
       inkscape:connector-curvature="0" />
    <rect
       style="opacity:1;fill:#00005f;fill-opacity:0.56914894;fill-rule:evenodd;stroke:none;stroke-width:3.70000005;stroke-miterlimit:4;stroke-dasharray:none;stroke-opacity:1"
       id="rect25265"
       width="19.363604"
       height="193.63603"
       x="327.5314"
       y="152.3622" />
    <rect
       style="display:inline;opacity:1;fill:#00005f;fill-opacity:0.56914894;fill-rule:evenodd;stroke:none;stroke-width:3.70000005;stroke-miterlimit:4;stroke-dasharray:none;stroke-opacity:1"
       id="rect25265-2"
       width="18.939341"
       height="189.3934"
       x="327.74353"
       y="362.96878" />
  </g>
</svg>
